<svg xmlns="http://www.w3.org/2000/svg" viewBox="0 0 612 435.38"><defs><style>.cls-1,.cls-10,.cls-18,.cls-19,.cls-22,.cls-27,.cls-42{fill:#231f20;}.cls-11,.cls-12,.cls-13,.cls-14,.cls-15,.cls-16,.cls-17,.cls-2,.cls-3,.cls-4,.cls-5,.cls-53,.cls-6,.cls-7,.cls-8{fill:none;}.cls-10,.cls-12,.cls-13,.cls-14,.cls-15,.cls-2,.cls-3,.cls-4,.cls-5,.cls-6,.cls-7,.cls-8,.cls-9{stroke:#231f20;}.cls-10,.cls-14,.cls-16,.cls-2,.cls-3,.cls-4,.cls-5,.cls-53,.cls-7,.cls-9{stroke-linecap:round;}.cls-10,.cls-16,.cls-17,.cls-2,.cls-3,.cls-4,.cls-5,.cls-53,.cls-7,.cls-8,.cls-9{stroke-linejoin:round;}.cls-10,.cls-11,.cls-12,.cls-13,.cls-14,.cls-15,.cls-16,.cls-17,.cls-2,.cls-3,.cls-4,.cls-53,.cls-9{stroke-width:0.35px;}.cls-13,.cls-14,.cls-15,.cls-2,.cls-5,.cls-53,.cls-6,.cls-7,.cls-8{stroke-dasharray:2 1;}.cls-3{stroke-dasharray:1.21 0.61;}.cls-5{stroke-width:0.28px;}.cls-6{stroke-linecap:square;}.cls-6,.cls-7,.cls-8{stroke-width:0.28px;}.cls-11,.cls-16,.cls-17,.cls-53{stroke:#000;}.cls-11,.cls-12,.cls-13{stroke-miterlimit:10;}.cls-18{font-size:7px;}.cls-18,.cls-19,.cls-22,.cls-27,.cls-42{font-family:Gotham-Light, Gotham;font-weight:300;}.cls-19{font-size:5.15px;}.cls-20{letter-spacing:-0.1em;}.cls-21{letter-spacing:0em;}.cls-22{font-size:4px;}.cls-23{letter-spacing:-0.1em;}.cls-24{letter-spacing:-0.08em;}.cls-25{letter-spacing:-0.03em;}.cls-26{letter-spacing:-0.01em;}.cls-27{font-size:8px;}.cls-28{letter-spacing:-0.08em;}.cls-29{letter-spacing:-0.13em;}.cls-30{letter-spacing:-0.02em;}.cls-31{letter-spacing:-0.04em;}.cls-32{letter-spacing:-0.05em;}.cls-33{letter-spacing:0em;}.cls-34{letter-spacing:-0.03em;}.cls-35{letter-spacing:-0.07em;}.cls-36{letter-spacing:0em;}.cls-37{letter-spacing:-0.02em;}.cls-38{letter-spacing:-0.01em;}.cls-39{letter-spacing:0em;}.cls-40{letter-spacing:-0.1em;}.cls-41{letter-spacing:-0.09em;}.cls-42{font-size:5px;}.cls-43{letter-spacing:-0.02em;}.cls-44{letter-spacing:0em;}.cls-45{letter-spacing:-0.04em;}.cls-46{letter-spacing:0em;}.cls-47{letter-spacing:0em;}.cls-48{letter-spacing:-0.09em;}.cls-49{letter-spacing:-0.04em;}.cls-50{letter-spacing:0em;}.cls-51{letter-spacing:-0.02em;}.cls-52{letter-spacing:-0.06em;}</style></defs><title>Clearwater_PlanA</title><g id="Layer_12_copy" data-name="Layer 12 copy"><g id="LINE"><polygon points="510.48 353.27 510.48 381.95 491.59 381.95 491.59 379.14 507.68 379.14 507.68 353.27 510.48 353.27"/><rect x="507.68" y="323.9" width="2.8" height="4.2"/><rect x="507.68" y="294.52" width="2.8" height="4.2"/><polygon points="510.48 214.1 510.48 269.36 507.68 269.36 507.68 243.47 402.78 243.47 402.78 251 402.77 251 399.98 251 399.98 246.28 398.59 246.28 398.59 240.68 415.37 240.68 419.56 240.68 448.94 240.68 453.14 240.68 482.51 240.68 486.7 240.68 507.68 240.68 507.68 214.1 510.48 214.1"/><polygon points="510.48 178.61 510.48 188.93 507.68 188.93 507.68 178.8 507.69 178.81 507.89 178.61 510.48 178.61"/><polygon points="510.48 130.88 510.48 154.48 508.41 154.48 507.68 154.48 507.68 150.81 507.68 146.62 507.68 130.88 510.48 130.88"/><rect x="507.68" y="101.52" width="2.8" height="4.19"/><path d="M290.89,135.78h11.18V144h-2.79v-5.42H282.49v37.77h16.79v-5.42h2.79v8.22H282.49v2.79H276.9v-2.79H254.52v-4.2H237.74v4.2H195.08v-5.6h8.39v2.8h14.69v-2.63h.17l0,0,0,0H221v2.63h14V152.56H221v2.63h-2.79v-11H215v-2.79H221v8.38h24.3v2.8h-7.51v19.59h42V152.56h-7.53v-2.8h7.53v-93H247.53V54H510.47V76.34h-2.79V56.76H394.39V76.34H388.8V56.76H282.49v79ZM279.7,176.34v-1.4H257.31v1.4Z"/><path class="cls-1" d="M508.41,178.08l-.52.53h-.21v.19l-16.29-16.29h0c.21-.25.43-.51.67-.76l0,0Z"/><rect x="458.02" y="379.14" width="15.39" height="2.81"/><rect x="424.46" y="379.14" width="15.39" height="2.81"/><path class="cls-1" d="M419.08,267.31l-.66.76h0l0,0-16.32-16.32.72-.71Z"/><path d="M340.21,321.79h-.12V319h2.1V295.23H300.67V319h20.9v2.79h-4.11v7.54h-2.8v-7.54H296.48V295.23H262.92v83.91h51.74V356.25h2.8v22.89h69.93V356.25h2.8v22.89h16.09V382H81.09V370.4h2.8v8.74H218.16v-1.4h42V292.43H276.9V273.72h2.8v18.71h36.36V269.7h2.79V291h49V243.47h-49v2.1h-2.79v-2.1h-4.9v-5.59h7.69v2.8H372v5.6h-1.4v33.56H400v-4.72h2.8v7.52H390.19v46.69h-2.8v-34.1h-42v26.56Zm47.18-29.36v-9.79H370.61v9.79Z"/><path class="cls-1" d="M399.48,338.48c-.12.14-.24.29-.37.43l-.05,0-9.15-9.13.35-.34.06-.07,9.15,9.15Z"/><path class="cls-1" d="M398.92,346.67l.36.43-9.15,9.15-.39-.4,9.15-9.15Z"/><path class="cls-1" d="M335.18,261.89c-.22.26-.45.51-.68.76h0l0,0L318.14,246.3l.73-.72Z"/><path class="cls-1" d="M334.53,333.75a6.91,6.91,0,0,1-.6.5l-12.36-12.36,0-.05.51-.5,12.36,12.36Z"/><path class="cls-1" d="M314.72,329.49l.4.39L306,339l0,0a5.08,5.08,0,0,1-.38-.43Z"/><path class="cls-1" d="M306,346.7l9.14,9.15-.4.4h0l-9.14-9.15.37-.44Z"/><path class="cls-1" d="M295.33,256.63c.23.25.46.51.67.77l-16.3,16.32h0L279,273l16.32-16.32Z"/><polygon points="284.6 237.88 284.6 243.47 279.7 243.47 279.7 249.6 276.9 249.6 276.9 225.29 83.89 225.29 83.89 234.03 81.09 234.03 81.09 222.5 141.23 222.5 141.23 212.88 143.97 212.88 144.03 212.88 144.03 222.5 276.9 222.5 276.9 219.7 282.49 219.7 282.49 237.88 284.6 237.88"/><polygon points="222.35 53.95 222.35 56.76 190.18 56.76 190.18 141.38 192.29 141.38 192.29 144.17 185.29 144.17 185.29 141.38 187.39 141.38 187.39 77.73 187.39 56.76 145.43 56.76 145.43 65.13 145.43 69.35 145.43 77.73 145.43 100.11 145.43 125.29 160.11 125.29 164.31 125.29 164.31 141.38 166.76 141.38 166.76 144.17 160.47 144.17 160.47 141.38 161.5 141.38 161.5 136.48 161.5 128.08 144.03 128.08 144.03 136.48 144.03 141.38 146.48 141.38 146.48 144.11 146.48 144.17 144.03 144.17 144.03 147.49 141.23 147.49 141.23 81.93 138.43 81.93 138.43 73.54 123.04 73.54 123.04 81.93 115.53 81.93 115.53 81.76 115.6 81.69 115.53 81.62 115.53 79.13 120.25 79.13 120.25 70.73 141.23 70.73 141.23 65.14 141.23 64.09 141.23 56.76 114.66 56.76 83.89 56.76 83.89 64.09 83.89 65.14 83.89 79.13 88.6 79.13 88.6 81.82 88.6 81.93 50.31 81.93 50.31 100.47 47.51 100.47 47.51 79.13 81.09 79.13 81.09 53.95 222.35 53.95"/><path class="cls-1" d="M218.9,173.2l-.53.51h0L206,161.37c.16-.19.32-.38.5-.57l0,0Z"/><path class="cls-1" d="M207.61,126a8.54,8.54,0,0,1,.72.63l0,0L193,142l-.66-.65h0Z"/><path class="cls-1" d="M185.31,141.29l-.05.06-.5.49L172.4,129.48l0,0c.19-.17.38-.34.59-.51Z"/><polygon points="167.11 173.54 167.11 179.13 144.03 179.13 144.03 185.96 143.97 185.96 141.23 185.96 141.23 176.34 47.51 176.34 47.51 155.01 50.32 155.01 50.32 173.54 141.23 173.54 141.23 170.22 144.03 170.22 144.03 173.54 167.11 173.54"/><path class="cls-1" d="M161.52,193.6c.26.28.5.56.75.86L144,212.76l-.8-.81,18.29-18.29Z"/><path class="cls-1" d="M156.14,152.86l0,0c-.13.13-.27.25-.41.37l-9.15-9.15.4-.39Z"/><path class="cls-1" d="M126.24,153.69l15.67,15.81-.69.7-15.67-15.81v0c.2-.25.42-.49.63-.72Z"/><path class="cls-1" d="M115.53,81.62v.14l-9.08,9.07c-.16-.12-.3-.24-.44-.36l0,0,9.15-9.15Z"/><path class="cls-1" d="M98.22,90.56l0,0c-.13.12-.28.24-.43.36l-9.15-9.14.41-.41Z"/><rect x="47.51" y="125.63" width="2.81" height="4.19"/><polyline class="cls-2" points="394.39 76.34 394.39 146.62 394.39 150.81 394.39 240.68"/><polyline class="cls-2" points="394.39 150.81 415.37 150.81 419.56 150.81 448.94 150.81 453.14 150.81 482.51 150.81 486.7 150.81 507.68 150.81"/><polyline class="cls-2" points="394.39 146.62 415.37 146.62 419.56 146.62 448.94 146.62 453.14 146.62 482.51 146.62 486.7 146.62 507.68 146.62"/><line class="cls-2" x1="453.14" y1="146.62" x2="453.14" y2="56.76"/><line class="cls-2" x1="448.93" y1="146.62" x2="448.93" y2="56.76"/><line class="cls-2" x1="419.56" y1="146.62" x2="419.56" y2="56.76"/><line class="cls-2" x1="415.37" y1="146.62" x2="415.37" y2="56.76"/><line class="cls-2" x1="453.14" y1="150.81" x2="453.14" y2="240.68"/><line class="cls-2" x1="448.93" y1="150.81" x2="448.93" y2="240.68"/><line class="cls-2" x1="419.56" y1="150.81" x2="419.56" y2="240.68"/><line class="cls-2" x1="415.37" y1="150.81" x2="415.37" y2="240.68"/><line class="cls-2" x1="482.51" y1="146.62" x2="482.51" y2="56.76"/><line class="cls-2" x1="486.7" y1="146.62" x2="486.7" y2="56.76"/><line class="cls-2" x1="482.51" y1="150.81" x2="482.51" y2="240.68"/><line class="cls-2" x1="486.7" y1="150.81" x2="486.7" y2="240.68"/><polyline class="cls-3" points="372.01 240.68 394.39 240.68 398.59 240.68"/><line class="cls-4" x1="83.89" y1="379.14" x2="218.16" y2="379.14"/><line class="cls-4" x1="218.16" y1="377.74" x2="260.11" y2="377.74"/><polyline class="cls-4" points="262.92 379.14 297.88 379.14 314.66 379.14"/><polyline class="cls-4" points="317.46 379.14 342.64 379.14 362.21 379.14 387.39 379.14"/><line class="cls-4" x1="491.59" y1="379.14" x2="507.68" y2="379.14"/><line class="cls-4" x1="458.02" y1="379.14" x2="473.41" y2="379.14"/><line class="cls-4" x1="424.46" y1="379.14" x2="439.84" y2="379.14"/><line class="cls-4" x1="390.19" y1="379.14" x2="406.28" y2="379.14"/><line class="cls-4" x1="406.28" y1="379.14" x2="406.28" y2="381.95"/><line class="cls-4" x1="424.46" y1="379.14" x2="424.46" y2="381.95"/><line class="cls-4" x1="439.84" y1="379.14" x2="439.84" y2="381.95"/><line class="cls-4" x1="458.02" y1="379.14" x2="458.02" y2="381.95"/><line class="cls-4" x1="473.41" y1="379.14" x2="473.41" y2="381.95"/><line class="cls-4" x1="491.59" y1="379.14" x2="491.59" y2="381.95"/><line class="cls-4" x1="279.7" y1="292.43" x2="316.06" y2="292.43"/><line class="cls-4" x1="318.85" y1="291.02" x2="367.82" y2="291.02"/><line class="cls-4" x1="370.61" y1="292.43" x2="387.39" y2="292.43"/><line class="cls-4" x1="262.92" y1="295.23" x2="296.48" y2="295.23"/><line class="cls-4" x1="300.67" y1="295.23" x2="342.19" y2="295.23"/><polyline class="cls-4" points="345.43 295.23 379 295.23 387.39 295.23"/><line class="cls-4" x1="115.53" y1="79.13" x2="120.25" y2="79.13"/><line class="cls-4" x1="247.53" y1="53.95" x2="510.47" y2="53.95"/><line class="cls-4" x1="190.18" y1="56.76" x2="222.35" y2="56.76"/><line class="cls-4" x1="247.53" y1="56.76" x2="279.7" y2="56.76"/><polyline class="cls-4" points="282.49 56.76 333.2 56.76 354.88 56.76 388.8 56.76"/><polyline class="cls-4" points="394.39 56.76 415.37 56.76 419.56 56.76 448.94 56.76 453.14 56.76 482.51 56.76 486.7 56.76 507.68 56.76"/><line class="cls-4" x1="388.8" y1="76.34" x2="394.39" y2="76.34"/><line class="cls-4" x1="276.9" y1="222.5" x2="144.03" y2="222.5"/><line class="cls-4" x1="282.49" y1="219.7" x2="276.9" y2="219.7"/><line class="cls-4" x1="141.23" y1="222.5" x2="81.09" y2="222.5"/><line class="cls-4" x1="507.68" y1="243.47" x2="402.78" y2="243.47"/><line class="cls-4" x1="399.98" y1="246.28" x2="398.59" y2="246.28"/><line class="cls-4" x1="372.01" y1="246.28" x2="370.61" y2="246.28"/><line class="cls-4" x1="399.98" y1="279.84" x2="370.61" y2="279.84"/><line class="cls-4" x1="387.39" y1="282.64" x2="370.61" y2="282.64"/><line class="cls-4" x1="402.78" y1="282.64" x2="390.19" y2="282.64"/><line class="cls-4" x1="318.85" y1="243.47" x2="367.82" y2="243.47"/><line class="cls-4" x1="316.06" y1="243.47" x2="311.16" y2="243.47"/><line class="cls-4" x1="276.9" y1="225.29" x2="83.89" y2="225.29"/><line class="cls-4" x1="220.95" y1="141.38" x2="220.95" y2="149.76"/><line class="cls-4" x1="220.95" y1="152.56" x2="220.95" y2="155.19"/><line class="cls-4" x1="220.95" y1="173.71" x2="220.95" y2="176.34"/><polyline class="cls-4" points="237.74 152.56 237.74 163.8 237.74 164.84 237.74 172.15"/><line class="cls-4" x1="83.89" y1="225.29" x2="83.89" y2="234.03"/><line class="cls-4" x1="144.03" y1="179.14" x2="144.03" y2="185.96"/><line class="cls-4" x1="144.03" y1="212.88" x2="144.03" y2="222.5"/><line class="cls-4" x1="83.89" y1="370.4" x2="83.89" y2="379.14"/><line class="cls-4" x1="81.09" y1="381.95" x2="81.09" y2="370.4"/><line class="cls-4" x1="510.47" y1="381.95" x2="510.47" y2="353.27"/><line class="cls-4" x1="510.47" y1="269.36" x2="510.47" y2="214.1"/><line class="cls-4" x1="510.47" y1="76.34" x2="510.47" y2="53.95"/><line class="cls-4" x1="507.68" y1="379.14" x2="507.68" y2="353.27"/><line class="cls-4" x1="507.68" y1="269.36" x2="507.68" y2="243.47"/><line class="cls-4" x1="507.68" y1="240.68" x2="507.68" y2="214.1"/><line class="cls-4" x1="507.68" y1="76.34" x2="507.68" y2="56.76"/><line class="cls-4" x1="81.09" y1="234.03" x2="81.09" y2="222.5"/><line class="cls-4" x1="141.23" y1="222.5" x2="141.23" y2="212.88"/><line class="cls-4" x1="141.23" y1="185.96" x2="141.23" y2="176.34"/><line class="cls-4" x1="276.9" y1="292.43" x2="276.9" y2="273.72"/><line class="cls-4" x1="276.9" y1="249.6" x2="276.9" y2="225.29"/><line class="cls-4" x1="276.9" y1="222.5" x2="276.9" y2="219.7"/><line class="cls-4" x1="276.9" y1="181.93" x2="276.9" y2="179.14"/><line class="cls-4" x1="218.16" y1="176.34" x2="218.16" y2="173.71"/><line class="cls-4" x1="218.16" y1="155.19" x2="218.16" y2="144.17"/><line class="cls-4" x1="234.94" y1="176.34" x2="234.94" y2="152.56"/><line class="cls-4" x1="279.7" y1="243.47" x2="279.7" y2="249.6"/><polyline class="cls-4" points="279.7 273.71 279.7 281.24 279.7 292.43"/><line class="cls-4" x1="311.16" y1="237.88" x2="311.16" y2="243.47"/><line class="cls-4" x1="318.85" y1="237.88" x2="318.85" y2="240.68"/><line class="cls-4" x1="318.85" y1="243.47" x2="318.85" y2="245.57"/><line class="cls-4" x1="387.39" y1="282.64" x2="387.39" y2="292.43"/><polyline class="cls-4" points="387.39 320.23 387.39 320.4 387.39 329.33"/><line class="cls-4" x1="387.39" y1="295.23" x2="387.39" y2="319.18"/><polyline class="cls-4" points="387.39 356.25 387.39 364.46 387.39 379.14"/><line class="cls-4" x1="284.6" y1="237.88" x2="284.6" y2="243.47"/><line class="cls-4" x1="282.49" y1="219.7" x2="282.49" y2="237.88"/><line class="cls-4" x1="316.06" y1="243.47" x2="316.06" y2="245.57"/><polyline class="cls-4" points="316.06 269.7 316.06 281.24 316.06 292.43"/><line class="cls-4" x1="370.61" y1="246.28" x2="370.61" y2="279.84"/><line class="cls-4" x1="372.01" y1="240.68" x2="372.01" y2="246.28"/><line class="cls-4" x1="370.61" y1="282.64" x2="370.61" y2="292.43"/><polyline class="cls-4" points="367.82 243.47 367.82 282.64 367.82 291.02"/><line class="cls-4" x1="390.19" y1="282.64" x2="390.19" y2="329.33"/><line class="cls-4" x1="399.98" y1="246.28" x2="399.98" y2="251"/><line class="cls-4" x1="399.98" y1="275.12" x2="399.98" y2="279.84"/><line class="cls-4" x1="398.59" y1="240.68" x2="398.59" y2="246.28"/><line class="cls-4" x1="402.78" y1="243.47" x2="402.78" y2="251"/><line class="cls-4" x1="402.78" y1="275.12" x2="402.78" y2="282.64"/><line class="cls-4" x1="390.19" y1="356.25" x2="390.19" y2="379.14"/><line class="cls-4" x1="394.39" y1="56.76" x2="394.39" y2="76.34"/><polyline class="cls-4" points="507.68 154.48 507.68 150.81 507.68 146.62 507.68 130.88"/><polyline class="cls-4" points="388.8 56.76 388.8 65.14 388.8 73.54 388.8 76.34"/><line class="cls-4" x1="302.07" y1="179.14" x2="302.07" y2="170.92"/><line class="cls-4" x1="302.07" y1="143.99" x2="302.07" y2="135.78"/><line class="cls-4" x1="299.28" y1="176.34" x2="299.28" y2="170.92"/><line class="cls-4" x1="299.28" y1="143.99" x2="299.28" y2="138.57"/><line class="cls-4" x1="143.97" y1="185.96" x2="141.23" y2="185.96"/><polyline class="cls-4" points="144.03 212.88 143.97 212.88 141.23 212.88"/><line class="cls-4" x1="50.32" y1="155.01" x2="50.32" y2="173.54"/><line class="cls-4" x1="47.51" y1="155.01" x2="47.51" y2="176.34"/><line class="cls-4" x1="203.47" y1="173.54" x2="195.08" y2="173.54"/><line class="cls-4" x1="167.11" y1="173.54" x2="144.03" y2="173.54"/><line class="cls-4" x1="141.23" y1="173.54" x2="50.32" y2="173.54"/><line class="cls-4" x1="167.11" y1="179.14" x2="144.03" y2="179.14"/><line class="cls-4" x1="282.49" y1="181.93" x2="276.9" y2="181.93"/><line class="cls-4" x1="141.23" y1="176.34" x2="47.51" y2="176.34"/><line class="cls-4" x1="141.23" y1="81.93" x2="138.43" y2="81.93"/><line class="cls-4" x1="123.04" y1="81.93" x2="115.53" y2="81.93"/><polyline class="cls-4" points="47.51 100.47 50.31 100.47 50.32 100.47"/><line class="cls-4" x1="50.32" y1="125.63" x2="47.51" y2="125.63"/><line class="cls-4" x1="50.32" y1="125.63" x2="50.32" y2="129.83"/><line class="cls-4" x1="47.51" y1="125.63" x2="47.51" y2="129.83"/><line class="cls-4" x1="47.51" y1="155.01" x2="50.32" y2="155.01"/><line class="cls-4" x1="47.51" y1="129.83" x2="50.32" y2="129.83"/><line class="cls-4" x1="166.76" y1="141.38" x2="164.31" y2="141.38"/><line class="cls-4" x1="161.5" y1="141.38" x2="160.46" y2="141.38"/><line class="cls-4" x1="146.48" y1="141.38" x2="144.03" y2="141.38"/><polyline class="cls-4" points="164.31 125.29 160.11 125.29 145.43 125.29"/><line class="cls-4" x1="166.76" y1="144.17" x2="160.46" y2="144.17"/><line class="cls-4" x1="146.48" y1="144.17" x2="144.03" y2="144.17"/><line class="cls-4" x1="161.5" y1="128.08" x2="144.03" y2="128.08"/><line class="cls-4" x1="141.23" y1="147.49" x2="141.23" y2="81.93"/><polyline class="cls-4" points="141.23 70.73 141.23 65.14 141.23 64.09 141.23 56.76"/><polyline class="cls-4" points="144.03 141.38 144.03 136.48 144.03 128.08"/><polyline class="cls-4" points="145.43 125.29 145.43 100.11 145.43 77.73"/><line class="cls-4" x1="166.76" y1="144.17" x2="166.76" y2="141.38"/><line class="cls-4" x1="187.39" y1="77.73" x2="187.39" y2="141.38"/><line class="cls-4" x1="190.18" y1="56.76" x2="190.18" y2="141.38"/><line class="cls-4" x1="144.03" y1="170.22" x2="144.03" y2="173.54"/><line class="cls-4" x1="185.29" y1="141.38" x2="187.39" y2="141.38"/><line class="cls-4" x1="190.18" y1="141.38" x2="192.29" y2="141.38"/><line class="cls-4" x1="215.01" y1="141.38" x2="220.95" y2="141.38"/><line class="cls-4" x1="185.29" y1="144.17" x2="192.29" y2="144.17"/><line class="cls-4" x1="215.01" y1="144.17" x2="218.16" y2="144.17"/><line class="cls-4" x1="185.29" y1="144.17" x2="185.29" y2="141.38"/><line class="cls-4" x1="144.03" y1="170.22" x2="141.23" y2="170.22"/><line class="cls-4" x1="144.03" y1="147.49" x2="141.23" y2="147.49"/><line class="cls-4" x1="141.23" y1="173.54" x2="141.23" y2="170.22"/><line class="cls-4" x1="144.03" y1="147.49" x2="144.03" y2="144.17"/><line class="cls-4" x1="254.52" y1="179.14" x2="254.52" y2="174.94"/><line class="cls-4" x1="257.31" y1="176.34" x2="257.31" y2="174.94"/><polyline class="cls-4" points="279.7 172.15 279.7 164.84 279.7 163.8 279.7 152.56"/><line class="cls-4" x1="237.74" y1="179.14" x2="237.74" y2="174.94"/><line class="cls-4" x1="279.7" y1="149.76" x2="279.7" y2="56.76"/><line class="cls-4" x1="247.53" y1="56.76" x2="247.53" y2="53.95"/><line class="cls-4" x1="222.35" y1="56.76" x2="222.35" y2="53.95"/><line class="cls-4" x1="282.49" y1="176.34" x2="282.49" y2="138.57"/><polyline class="cls-4" points="282.49 135.78 282.49 118.99 282.49 91.02 282.49 56.76"/><line class="cls-4" x1="279.7" y1="176.34" x2="279.7" y2="174.94"/><line class="cls-4" x1="192.29" y1="144.17" x2="192.29" y2="141.38"/><line class="cls-4" x1="215.01" y1="144.17" x2="215.01" y2="141.57"/><line class="cls-4" x1="203.47" y1="176.34" x2="218.16" y2="176.34"/><polyline class="cls-4" points="220.95 176.34 226.54 176.34 227.59 176.34 234.94 176.34"/><polyline class="cls-4" points="237.74 172.15 258.71 172.15 279.7 172.15"/><line class="cls-4" x1="257.31" y1="174.94" x2="279.7" y2="174.94"/><line class="cls-4" x1="237.74" y1="174.94" x2="254.52" y2="174.94"/><polyline class="cls-4" points="282.49 176.34 293.69 176.34 299.28 176.34"/><polyline class="cls-4" points="282.49 135.78 290.89 135.78 299.28 135.78 302.07 135.78"/><line class="cls-4" x1="260.11" y1="292.43" x2="260.11" y2="377.74"/><line class="cls-4" x1="262.92" y1="295.23" x2="262.92" y2="379.14"/><line class="cls-4" x1="317.46" y1="321.79" x2="317.46" y2="329.33"/><polyline class="cls-4" points="317.46 356.25 317.46 364.46 317.46 379.14"/><line class="cls-4" x1="314.66" y1="321.79" x2="314.66" y2="329.33"/><polyline class="cls-4" points="314.66 356.25 314.66 370.8 314.66 379.14"/><line class="cls-4" x1="218.16" y1="377.74" x2="218.16" y2="379.14"/><line class="cls-4" x1="507.68" y1="294.52" x2="507.68" y2="298.73"/><line class="cls-4" x1="507.68" y1="323.9" x2="507.68" y2="328.1"/><line class="cls-4" x1="510.47" y1="294.52" x2="510.47" y2="298.73"/><line class="cls-4" x1="510.47" y1="323.9" x2="510.47" y2="328.1"/><line class="cls-4" x1="507.68" y1="328.1" x2="510.47" y2="328.1"/><line class="cls-4" x1="507.68" y1="353.27" x2="510.47" y2="353.27"/><line class="cls-4" x1="507.68" y1="298.73" x2="510.47" y2="298.73"/><line class="cls-4" x1="507.68" y1="323.9" x2="510.47" y2="323.9"/><line class="cls-4" x1="507.68" y1="269.36" x2="510.47" y2="269.36"/><line class="cls-4" x1="507.68" y1="294.52" x2="510.47" y2="294.52"/><polyline class="cls-4" points="507.68 178.61 507.68 178.8 507.68 188.93"/><line class="cls-4" x1="510.47" y1="178.61" x2="510.47" y2="188.93"/><line class="cls-4" x1="507.68" y1="188.93" x2="510.47" y2="188.93"/><line class="cls-4" x1="507.68" y1="214.1" x2="510.47" y2="214.1"/><line class="cls-4" x1="510.47" y1="154.48" x2="510.47" y2="130.88"/><polyline class="cls-4" points="316.06 269.7 318.16 269.7 318.85 269.7"/><line class="cls-4" x1="316.06" y1="245.57" x2="318.85" y2="245.57"/><polyline class="cls-4" points="88.6 81.93 88.6 81.82 88.6 79.13"/><polyline class="cls-4" points="115.53 81.93 115.53 81.76 115.53 81.62 115.53 79.13"/><polyline class="cls-4" points="510.48 178.61 507.89 178.61 507.68 178.61"/><polyline class="cls-4" points="510.48 154.48 508.41 154.48 507.68 154.48"/><line class="cls-4" x1="167.11" y1="179.14" x2="167.11" y2="173.54"/><line class="cls-4" x1="195.08" y1="179.14" x2="195.08" y2="173.54"/><line class="cls-4" x1="203.47" y1="176.34" x2="203.47" y2="173.54"/><line class="cls-4" x1="284.6" y1="237.88" x2="282.49" y2="237.88"/><line class="cls-4" x1="284.6" y1="243.47" x2="279.7" y2="243.47"/><line class="cls-4" x1="282.49" y1="181.93" x2="282.49" y2="179.14"/><line class="cls-4" x1="195.08" y1="179.14" x2="237.74" y2="179.14"/><line class="cls-4" x1="254.52" y1="179.14" x2="276.9" y2="179.14"/><line class="cls-4" x1="257.31" y1="176.34" x2="279.7" y2="176.34"/><line class="cls-4" x1="282.49" y1="179.14" x2="302.07" y2="179.14"/><polyline class="cls-4" points="282.49 138.57 293.69 138.57 299.28 138.57"/><line class="cls-4" x1="491.59" y1="381.95" x2="510.47" y2="381.95"/><line class="cls-4" x1="458.02" y1="381.95" x2="473.41" y2="381.95"/><line class="cls-4" x1="424.46" y1="381.95" x2="439.84" y2="381.95"/><line class="cls-4" x1="81.09" y1="381.95" x2="406.28" y2="381.95"/><polyline class="cls-4" points="507.68 240.68 486.7 240.68 482.51 240.68 453.14 240.68 448.94 240.68 419.56 240.68 415.37 240.68 398.59 240.68"/><line class="cls-4" x1="372.01" y1="240.68" x2="318.85" y2="240.68"/><line class="cls-4" x1="507.68" y1="105.71" x2="507.68" y2="101.52"/><line class="cls-4" x1="510.47" y1="105.71" x2="510.47" y2="101.52"/><line class="cls-4" x1="507.68" y1="101.52" x2="510.47" y2="101.52"/><line class="cls-4" x1="507.68" y1="76.34" x2="510.47" y2="76.34"/><line class="cls-4" x1="507.68" y1="130.88" x2="510.47" y2="130.88"/><line class="cls-4" x1="507.68" y1="105.71" x2="510.47" y2="105.71"/><line class="cls-4" x1="276.9" y1="292.43" x2="260.11" y2="292.43"/><line class="cls-4" x1="276.9" y1="273.72" x2="279.69" y2="273.72"/><line class="cls-4" x1="276.9" y1="249.6" x2="279.7" y2="249.6"/><polyline class="cls-4" points="272.17 149.76 272.17 149.85 272.17 152.56"/><polyline class="cls-4" points="245.25 149.76 245.25 149.85 245.25 152.56"/><line class="cls-4" x1="220.95" y1="149.76" x2="245.25" y2="149.76"/><line class="cls-4" x1="272.17" y1="149.76" x2="279.7" y2="149.76"/><polyline class="cls-4" points="220.95 152.56 226.54 152.56 227.59 152.56 234.94 152.56"/><line class="cls-4" x1="237.74" y1="152.56" x2="245.25" y2="152.56"/><line class="cls-4" x1="272.17" y1="152.56" x2="279.7" y2="152.56"/><line class="cls-4" x1="220.95" y1="155.19" x2="218.35" y2="155.19"/><polyline class="cls-4" points="220.95 173.71 218.37 173.71 218.33 173.71 218.16 173.71"/><line class="cls-4" x1="138.43" y1="73.54" x2="138.43" y2="81.93"/><line class="cls-4" x1="123.04" y1="73.54" x2="123.04" y2="81.93"/><line class="cls-4" x1="120.25" y1="70.74" x2="120.25" y2="79.13"/><line class="cls-4" x1="138.43" y1="73.54" x2="123.04" y2="73.54"/><line class="cls-4" x1="141.23" y1="70.74" x2="120.25" y2="70.74"/><line class="cls-4" x1="81.09" y1="234.03" x2="83.89" y2="234.03"/><line class="cls-4" x1="81.09" y1="370.4" x2="83.89" y2="370.4"/><polyline class="cls-4" points="318.85 269.7 318.85 282.64 318.85 291.02"/><line class="cls-4" x1="318.85" y1="237.88" x2="311.16" y2="237.88"/><polyline class="cls-4" points="345.43 319.18 345.43 319 345.43 295.23"/><polyline class="cls-4" points="345.43 321.79 345.43 320.4 345.43 320.23"/><line class="cls-4" x1="342.19" y1="319" x2="342.19" y2="295.23"/><line class="cls-4" x1="300.67" y1="319" x2="300.67" y2="295.23"/><polyline class="cls-4" points="296.48 321.79 296.48 303.58 296.48 302.53 296.48 295.23"/><polyline class="cls-4" points="345.43 321.79 340.21 321.79 340.09 321.79"/><line class="cls-4" x1="321.57" y1="321.79" x2="317.46" y2="321.79"/><line class="cls-4" x1="314.66" y1="321.79" x2="296.48" y2="321.79"/><line class="cls-4" x1="342.19" y1="319" x2="340.09" y2="319"/><line class="cls-4" x1="321.57" y1="319" x2="300.67" y2="319"/><polyline class="cls-4" points="314.66 329.33 314.72 329.33 317.46 329.33"/><line class="cls-4" x1="314.72" y1="356.25" x2="317.46" y2="356.25"/><line class="cls-4" x1="314.66" y1="356.25" x2="314.71" y2="356.25"/><line class="cls-4" x1="321.57" y1="321.79" x2="321.57" y2="319"/><line class="cls-4" x1="340.09" y1="321.79" x2="340.09" y2="319"/><line class="cls-4" x1="390.19" y1="329.33" x2="387.39" y2="329.33"/><polyline class="cls-4" points="390.19 356.25 390.13 356.25 387.39 356.25"/><polyline class="cls-4" points="302.07 143.99 302.02 143.99 299.28 143.99"/><polyline class="cls-4" points="302.07 170.92 302.02 170.92 299.28 170.92"/><line class="cls-4" x1="164.31" y1="141.38" x2="164.31" y2="125.29"/><polyline class="cls-4" points="161.5 141.38 161.5 136.48 161.5 128.08"/><polyline class="cls-4" points="146.48 144.17 146.48 144.11 146.48 141.38"/><line class="cls-4" x1="160.46" y1="144.17" x2="160.46" y2="141.38"/><polyline class="cls-4" points="399.98 275.13 402.06 275.13 402.78 275.13"/><polyline class="cls-4" points="399.98 251 402.77 251 402.78 251"/><line class="cls-4" x1="279.7" y1="281.24" x2="316.06" y2="281.24"/><polyline class="cls-2" points="290.89 65.14 290.89 91.02 290.89 92.42 290.89 117.59 290.89 118.99 290.89 135.78 290.89 135.79"/><line class="cls-4" x1="299.28" y1="73.54" x2="299.28" y2="91.02"/><line class="cls-4" x1="226.54" y1="176.34" x2="226.54" y2="152.56"/><line class="cls-2" x1="227.6" y1="176.34" x2="227.6" y2="152.56"/><polyline class="cls-2" points="388.8 65.14 354.88 65.14 333.2 65.14 290.89 65.14"/><line class="cls-4" x1="333.2" y1="73.54" x2="299.28" y2="73.54"/><line class="cls-4" x1="388.8" y1="73.54" x2="354.88" y2="73.54"/><line class="cls-4" x1="161.5" y1="136.48" x2="144.03" y2="136.48"/><line class="cls-4" x1="160.11" y1="125.29" x2="160.11" y2="100.11"/><line class="cls-4" x1="293.69" y1="176.34" x2="293.69" y2="138.57"/><polyline class="cls-4" points="282.49 118.99 290.89 118.99 299.28 118.99"/><polyline class="cls-4" points="282.49 91.02 290.89 91.02 299.28 91.02"/><polyline class="cls-4" points="297.88 370.8 297.88 371.84 297.88 379.14"/><polyline class="cls-2" points="141.23 64.09 114.66 64.09 83.89 64.09"/><polyline class="cls-4" points="141.23 65.14 114.66 65.14 83.89 65.14"/><line class="cls-4" x1="388.8" y1="104.31" x2="328.66" y2="104.31"/><line class="cls-4" x1="388.8" y1="129.48" x2="328.66" y2="129.48"/><line class="cls-4" x1="388.8" y1="104.31" x2="388.8" y2="129.48"/><line class="cls-4" x1="328.66" y1="104.31" x2="328.66" y2="129.48"/><polyline class="cls-4" points="354.88 56.76 354.88 65.14 354.88 73.54"/><polyline class="cls-4" points="333.2 56.76 333.2 65.14 333.2 73.54"/><polyline class="cls-2" points="237.74 164.84 258.71 164.84 279.7 164.84"/><polyline class="cls-4" points="237.74 163.8 258.71 163.8 279.7 163.8"/><polyline class="cls-4" points="258.71 163.8 258.71 164.84 258.71 172.15"/><polyline class="cls-4" points="114.66 56.8 114.66 64.09 114.66 65.14"/><line class="cls-4" x1="160.11" y1="100.11" x2="145.43" y2="100.11"/><line class="cls-4" x1="254.52" y1="179.14" x2="237.74" y2="179.14"/><polyline class="cls-4" points="367.82 282.64 363.97 282.64 343.69 282.64 343 282.64 322.73 282.64 318.85 282.64"/><line class="cls-2" x1="297.88" y1="371.84" x2="270.21" y2="371.84"/><polyline class="cls-4" points="314.66 370.8 297.88 370.8 271.25 370.8"/><line class="cls-2" x1="270.21" y1="371.84" x2="270.21" y2="302.53"/><line class="cls-4" x1="271.25" y1="370.8" x2="271.25" y2="303.58"/><line class="cls-2" x1="362.21" y1="364.46" x2="362.21" y2="379.14"/><polyline class="cls-4" points="387.39 364.46 362.21 364.46 342.64 364.46 317.46 364.46"/><line class="cls-2" x1="342.64" y1="364.46" x2="342.64" y2="379.14"/><line class="cls-2" x1="296.48" y1="302.53" x2="270.21" y2="302.53"/><line class="cls-4" x1="296.48" y1="303.58" x2="271.25" y2="303.58"/><line class="cls-4" x1="299.28" y1="135.78" x2="299.28" y2="118.99"/><line class="cls-4" x1="143.17" y1="211.95" x2="161.46" y2="193.66"/><line class="cls-4" x1="143.97" y1="212.76" x2="162.27" y2="194.46"/><line class="cls-4" x1="143.97" y1="212.76" x2="143.17" y2="211.95"/><path class="cls-4" d="M144,186H144c7.26,0,12.76,2.36,17.49,7.64.26.28.5.56.75.86"/><line class="cls-4" x1="184.76" y1="141.84" x2="172.4" y2="129.48"/><line class="cls-4" x1="185.31" y1="141.29" x2="172.95" y2="128.93"/><polyline class="cls-4" points="185.31 141.29 185.26 141.35 184.76 141.84"/><path class="cls-4" d="M166.76,141.38a15.2,15.2,0,0,1,5.6-11.94c.19-.17.38-.34.59-.51"/><line class="cls-4" x1="141.91" y1="169.5" x2="126.24" y2="153.69"/><line class="cls-4" x1="141.22" y1="170.2" x2="125.55" y2="154.39"/><line class="cls-4" x1="141.22" y1="170.2" x2="141.91" y2="169.5"/><path class="cls-4" d="M141.23,147.49c-6.11,0-11,1.75-15,6.15-.21.23-.43.47-.63.72"/><line class="cls-4" x1="192.95" y1="142.03" x2="208.29" y2="126.71"/><line class="cls-4" x1="192.29" y1="141.37" x2="207.61" y2="126.03"/><polyline class="cls-4" points="192.29 141.37 192.29 141.38 192.96 142.03"/><path class="cls-4" d="M215,141.57v-.19a18.89,18.89,0,0,0-6.68-14.72,8.54,8.54,0,0,0-.72-.63"/><line class="cls-4" x1="318.14" y1="246.3" x2="334.45" y2="262.62"/><line class="cls-4" x1="318.87" y1="245.58" x2="335.18" y2="261.89"/><polyline class="cls-4" points="318.87 245.57 318.87 245.59 318.14 246.3"/><path class="cls-4" d="M318.16,269.7a22.35,22.35,0,0,0,16.33-7.05h0c.23-.25.46-.5.68-.76"/><line class="cls-4" x1="47.51" y1="79.13" x2="81.09" y2="79.13"/><line class="cls-4" x1="83.89" y1="79.13" x2="88.6" y2="79.13"/><line class="cls-4" x1="81.09" y1="53.95" x2="222.35" y2="53.95"/><line class="cls-4" x1="50.31" y1="81.93" x2="50.31" y2="100.47"/><line class="cls-4" x1="47.51" y1="79.13" x2="47.51" y2="100.47"/><polyline class="cls-4" points="141.23 56.76 114.66 56.76 83.89 56.76"/><line class="cls-4" x1="88.6" y1="81.93" x2="50.31" y2="81.93"/><polyline class="cls-4" points="83.89 56.76 83.89 64.09 83.89 65.14 83.89 79.13"/><line class="cls-4" x1="81.09" y1="79.13" x2="81.09" y2="53.95"/><line class="cls-4" x1="115.19" y1="81.28" x2="106.04" y2="90.43"/><polyline class="cls-4" points="115.6 81.69 115.53 81.76 106.45 90.83"/><polyline class="cls-4" points="115.6 81.69 115.53 81.62 115.19 81.28"/><path class="cls-4" d="M106.45,90.83c-.16-.12-.3-.24-.44-.36a10.72,10.72,0,0,1-3.94-8.2"/><path class="cls-4" d="M102.07,82.27a11,11,0,0,1-3.83,8.33c-.13.12-.28.24-.43.36"/><line class="cls-4" x1="88.66" y1="81.82" x2="89.07" y2="81.41"/><line class="cls-4" x1="88.66" y1="81.82" x2="97.81" y2="90.96"/><line class="cls-4" x1="89.07" y1="81.41" x2="98.22" y2="90.56"/><line class="cls-4" x1="508.41" y1="178.08" x2="492.09" y2="161.77"/><polyline class="cls-4" points="507.69 178.81 507.68 178.8 491.39 162.51 491.38 162.5"/><polyline class="cls-4" points="507.69 178.81 507.89 178.61 508.41 178.08"/><path class="cls-4" d="M508.41,154.48a22,22,0,0,0-16.35,7.25s0,0,0,0c-.24.25-.46.51-.67.76"/><line class="cls-4" x1="278.97" y1="273" x2="295.29" y2="256.68"/><polyline class="cls-4" points="279.69 273.71 279.7 273.71 296 257.4"/><line class="cls-4" x1="279.69" y1="273.72" x2="278.97" y2="273"/><path class="cls-4" d="M279.7,249.6a19.61,19.61,0,0,1,15.63,7c.23.25.46.51.67.77"/><line class="cls-4" x1="245.66" y1="150.25" x2="254.81" y2="141.1"/><line class="cls-4" x1="245.25" y1="149.85" x2="254.4" y2="140.7"/><line class="cls-4" x1="245.25" y1="149.85" x2="245.66" y2="150.25"/><path class="cls-4" d="M254.4,140.7l.43.37a10.1,10.1,0,0,1,3.88,8.35"/><path class="cls-4" d="M258.71,149.42a10.06,10.06,0,0,1,3.9-8.34h0l.43-.37"/><line class="cls-4" x1="272.17" y1="149.85" x2="271.78" y2="150.25"/><line class="cls-4" x1="272.17" y1="149.85" x2="263.04" y2="140.7"/><line class="cls-4" x1="271.78" y1="150.25" x2="262.63" y2="141.1"/><line class="cls-4" x1="218.9" y1="173.2" x2="206.54" y2="160.84"/><polyline class="cls-4" points="218.35 173.74 218.33 173.71 205.99 161.37"/><polyline class="cls-4" points="218.35 173.74 218.37 173.71 218.9 173.2"/><path class="cls-4" d="M218.35,155.19h-.19c-4.84,0-8.51,2-11.67,5.61-.18.19-.34.38-.5.57"/><line class="cls-4" x1="315.12" y1="355.85" x2="305.98" y2="346.7"/><polyline class="cls-4" points="314.72 356.25 314.71 356.25 305.57 347.11"/><line class="cls-4" x1="314.72" y1="356.25" x2="315.12" y2="355.85"/><path class="cls-4" d="M305.57,347.1l.37-.44a11.14,11.14,0,0,1,8.38-3.87"/><path class="cls-4" d="M314.32,342.79a11.26,11.26,0,0,1-8.37-3.74,5.08,5.08,0,0,1-.38-.43"/><line class="cls-4" x1="314.72" y1="329.49" x2="315.12" y2="329.88"/><polyline class="cls-4" points="314.72 329.47 314.72 329.49 305.57 338.62"/><line class="cls-4" x1="315.12" y1="329.88" x2="305.98" y2="339.03"/><line class="cls-4" x1="322.12" y1="321.34" x2="334.48" y2="333.7"/><line class="cls-4" x1="321.57" y1="321.89" x2="333.93" y2="334.25"/><polyline class="cls-4" points="321.57 321.89 321.61 321.84 322.12 321.34"/><path class="cls-4" d="M340.21,321.61v.18a16,16,0,0,1-5.68,12,6.91,6.91,0,0,1-.6.5"/><line class="cls-4" x1="389.74" y1="355.85" x2="398.89" y2="346.7"/><line class="cls-4" x1="390.13" y1="356.25" x2="399.28" y2="347.1"/><line class="cls-4" x1="390.13" y1="356.25" x2="389.74" y2="355.85"/><path class="cls-4" d="M399.28,347.1l-.36-.43a11.1,11.1,0,0,0-8.38-3.88"/><path class="cls-4" d="M390.54,342.79a11.43,11.43,0,0,0,8.57-3.88c.13-.14.25-.29.37-.43"/><polyline class="cls-4" points="390.32 329.33 390.26 329.4 389.92 329.74"/><line class="cls-4" x1="390.32" y1="329.33" x2="399.47" y2="338.48"/><line class="cls-4" x1="389.91" y1="329.74" x2="399.06" y2="338.87"/><line class="cls-4" x1="301.62" y1="170.51" x2="310.77" y2="161.37"/><line class="cls-4" x1="302.02" y1="170.92" x2="311.17" y2="161.78"/><line class="cls-4" x1="302.02" y1="170.92" x2="301.62" y2="170.51"/><path class="cls-4" d="M311.17,161.78l-.37-.43a10.18,10.18,0,0,0-8.38-3.89"/><path class="cls-4" d="M302.42,157.46a10.18,10.18,0,0,0,8.38-3.89c.12-.14.25-.28.37-.43"/><line class="cls-4" x1="302.02" y1="143.99" x2="301.62" y2="144.4"/><line class="cls-4" x1="302.02" y1="143.99" x2="311.17" y2="153.14"/><line class="cls-4" x1="301.62" y1="144.4" x2="310.77" y2="153.55"/><path class="cls-4" d="M155.75,153.26c.14-.12.28-.24.41-.37h0c2.68-2.37,4.28-5.07,4.28-8.72"/><line class="cls-4" x1="146.6" y1="144.11" x2="147" y2="143.72"/><line class="cls-4" x1="146.6" y1="144.11" x2="155.75" y2="153.26"/><line class="cls-4" x1="147" y1="143.72" x2="156.14" y2="152.86"/><line class="cls-4" x1="402.05" y1="251.71" x2="418.37" y2="268.03"/><line class="cls-4" x1="402.77" y1="251" x2="419.08" y2="267.31"/><line class="cls-4" x1="402.77" y1="251" x2="402.05" y2="251.71"/><path class="cls-4" d="M402.06,275.12a22.36,22.36,0,0,0,16.34-7.05h0l.66-.76"/><polyline class="cls-4" points="367.46 319.97 379 319.97 386.34 319.97"/><polyline class="cls-4" points="367.46 319.44 379 319.44 386.34 319.44"/><polyline class="cls-4" points="350.94 320.4 350.93 320.41 350.56 320.78 350.37 320.97 349.79 320.4 349.62 320.23 350.37 319.49 351.12 320.23 350.95 320.4"/><polygon class="cls-4" points="345.43 320.23 345.43 319.18 346.48 319.18 346.48 319.44 346.48 319.97 346.48 320.23 345.43 320.23"/><polygon class="cls-4" points="349.62 320.23 348.57 320.23 348.57 319.97 348.57 319.44 348.57 319.18 349.62 319.18 349.62 320.23"/><line class="cls-4" x1="348.57" y1="319.44" x2="346.48" y2="319.44"/><line class="cls-4" x1="348.57" y1="319.97" x2="346.48" y2="319.97"/><polygon class="cls-4" points="367.46 319.44 367.46 319.18 366.41 319.18 366.41 320.23 367.46 320.23 367.46 319.97 367.46 319.44"/><line class="cls-4" x1="361.31" y1="332.2" x2="350.93" y2="320.41"/><line class="cls-4" x1="360.94" y1="332.57" x2="350.56" y2="320.78"/><polygon class="cls-4" points="360.94 332.57 360.76 332.75 361.5 333.49 362.24 332.75 361.5 332.01 361.31 332.2 360.94 332.57"/><polygon class="cls-4" points="387.39 319.18 386.34 319.18 386.34 319.44 386.34 319.97 386.34 320.23 387.39 320.23 387.39 319.18"/><line class="cls-4" x1="187.39" y1="56.76" x2="145.43" y2="56.76"/><line class="cls-4" x1="187.39" y1="77.73" x2="187.39" y2="56.76"/><line class="cls-4" x1="145.43" y1="65.13" x2="145.43" y2="56.76"/><line class="cls-4" x1="145.43" y1="77.73" x2="145.43" y2="69.35"/><line class="cls-4" x1="145.43" y1="65.13" x2="145.43" y2="69.35"/><polyline class="cls-4" points="387.39 320.4 379 320.4 350.95 320.4 350.94 320.4"/><line class="cls-4" x1="379" y1="319" x2="345.43" y2="319"/><line class="cls-4" x1="361.61" y1="306.68" x2="345.43" y2="295.23"/><line class="cls-4" x1="345.43" y1="319" x2="361.61" y2="307.54"/><polyline class="cls-4" points="349.8 320.4 349.79 320.4 345.43 320.4"/><line class="cls-4" x1="379" y1="319" x2="362.82" y2="307.54"/><path class="cls-4" d="M361.61,307.54a.72.72,0,0,0,1.21,0,.64.64,0,0,0,.15-.43.66.66,0,0,0-.15-.43.73.73,0,0,0-1.21,0,.66.66,0,0,0-.15.43A.64.64,0,0,0,361.61,307.54Z"/><line class="cls-4" x1="362.82" y1="306.68" x2="379" y2="295.23"/><polyline class="cls-4" points="379 295.23 379 319 379 319.44 379 319.97 379 320.4"/><line class="cls-4" x1="351.15" y1="291.04" x2="356.74" y2="291.04"/><polyline class="cls-2" points="363.97 290.41 363.97 282.64 363.97 272.23"/><line class="cls-2" x1="343.69" y1="290.41" x2="363.97" y2="290.41"/><polyline class="cls-2" points="343.69 272.23 343.69 282.64 343.69 290.41"/><line class="cls-2" x1="363.97" y1="272.23" x2="343.69" y2="272.23"/><line class="cls-2" x1="322.72" y1="290.41" x2="343" y2="290.41"/><polyline class="cls-2" points="343 290.41 343 282.64 343 272.23"/><line class="cls-2" x1="343" y1="272.23" x2="322.72" y2="272.23"/><polyline class="cls-2" points="322.73 272.23 322.73 282.64 322.73 290.41"/><line class="cls-4" x1="81.09" y1="370.4" x2="81.09" y2="234.03"/><line class="cls-4" x1="83.89" y1="370.4" x2="83.89" y2="234.03"/><path class="cls-5" d="M303.13,117.6h-19.2V92.42h19.2"/><path class="cls-5" d="M301.76,117.6V92.42"/><path class="cls-6" d="M303.13,108.33V92.42"/><path class="cls-5" d="M303.13,117.6v-8.92"/><path class="cls-5" d="M303.24,109.2h.93"/><path class="cls-5" d="M303.24,109.9h.93"/><path class="cls-7" d="M303.24,107.11h.93"/><path class="cls-7" d="M303.24,107.8h.93"/><path class="cls-8" d="M301.76,108.68h1.37"/><path class="cls-8" d="M301.76,108.33h1.37"/></g><polygon class="cls-4" points="81.09 230.54 68.85 230.54 68.85 222.49 74.97 222.49 81.09 222.49 81.09 230.54"/><rect class="cls-9" x="72.69" y="222.49" width="4.2" height="4.2"/><rect class="cls-10" x="572.05" y="233.66" width="2.64" height="2.7"/><rect class="cls-10" x="572.05" y="149.75" width="2.64" height="2.7"/><line class="cls-4" x1="68.85" y1="176.34" x2="68.85" y2="222.49"/><line class="cls-11" x1="141.23" y1="185.95" x2="141.23" y2="212.88"/><line class="cls-11" x1="276.9" y1="249.59" x2="276.9" y2="273.72"/><line class="cls-4" x1="510.47" y1="154.49" x2="510.47" y2="180.1"/></g><g id="window"><rect class="cls-12" x="47.52" y="130.9" width="2.79" height="22.86"/><line class="cls-12" x1="48.91" y1="130.98" x2="48.91" y2="153.77"/><rect class="cls-12" x="47.52" y="129.74" width="2.79" height="1.24"/><rect class="cls-12" x="47.51" y="153.77" width="2.8" height="1.24"/><rect class="cls-12" x="47.52" y="101.63" width="2.79" height="22.86"/><line class="cls-12" x1="48.91" y1="101.71" x2="48.91" y2="124.49"/><rect class="cls-12" x="47.52" y="100.46" width="2.79" height="1.24"/><rect class="cls-12" x="47.51" y="124.49" width="2.8" height="1.24"/><rect class="cls-13" x="407.51" y="379.15" width="15.78" height="2.79"/><line class="cls-13" x1="423.24" y1="380.54" x2="407.51" y2="380.54"/><rect class="cls-13" x="423.21" y="379.15" width="1.24" height="2.79"/><rect class="cls-13" x="406.27" y="379.15" width="1.24" height="2.8"/><rect class="cls-13" x="441.09" y="379.15" width="15.78" height="2.79"/><line class="cls-13" x1="456.81" y1="380.54" x2="441.08" y2="380.54"/><rect class="cls-13" x="456.78" y="379.15" width="1.24" height="2.79"/><rect class="cls-13" x="439.84" y="379.15" width="1.24" height="2.8"/><rect class="cls-13" x="474.66" y="379.15" width="15.78" height="2.79"/><line class="cls-13" x1="490.38" y1="380.54" x2="474.65" y2="380.54"/><rect class="cls-13" x="490.36" y="379.15" width="1.24" height="2.79"/><rect class="cls-13" x="473.41" y="379.15" width="1.24" height="2.8"/><rect class="cls-12" x="233.54" y="44" width="2.8" height="22.7" transform="translate(179.26 290.22) rotate(-89.92)"/><line class="cls-12" x1="246.21" y1="55.35" x2="223.59" y2="55.35"/><rect class="cls-12" x="246.29" y="53.95" width="1.24" height="2.8"/><rect class="cls-12" x="222.35" y="53.95" width="1.24" height="2.81"/><rect class="cls-12" x="497.73" y="87.52" width="22.7" height="2.8" transform="translate(419.44 597.87) rotate(-89.92)"/><line class="cls-12" x1="509.08" y1="100.19" x2="509.08" y2="77.57"/><rect class="cls-12" x="507.67" y="100.27" width="2.8" height="1.24"/><rect class="cls-12" x="507.67" y="76.33" width="2.81" height="1.24"/><rect class="cls-12" x="497.72" y="116.9" width="22.7" height="2.8" transform="translate(389.9 627.17) rotate(-89.9)"/><line class="cls-12" x1="509.08" y1="129.56" x2="509.08" y2="106.95"/><rect class="cls-12" x="507.67" y="129.65" width="2.8" height="1.24"/><rect class="cls-12" x="507.67" y="105.71" width="2.81" height="1.24"/><rect class="cls-12" x="497.72" y="200.12" width="22.7" height="2.8" transform="translate(306.67 710.24) rotate(-89.9)"/><line class="cls-12" x1="509.08" y1="212.79" x2="509.08" y2="190.17"/><rect class="cls-12" x="507.67" y="212.87" width="2.8" height="1.24"/><rect class="cls-12" x="507.67" y="188.93" width="2.81" height="1.24"/><rect class="cls-12" x="497.72" y="280.54" width="22.7" height="2.8" transform="translate(226.42 790.63) rotate(-89.92)"/><line class="cls-12" x1="509.08" y1="293.21" x2="509.08" y2="270.59"/><rect class="cls-12" x="507.67" y="293.29" width="2.8" height="1.24"/><rect class="cls-12" x="507.67" y="269.35" width="2.81" height="1.24"/><rect class="cls-12" x="497.72" y="309.91" width="22.7" height="2.8" transform="translate(196.87 819.84) rotate(-89.9)"/><line class="cls-12" x1="509.08" y1="322.58" x2="509.08" y2="299.96"/><rect class="cls-12" x="507.67" y="322.66" width="2.8" height="1.24"/><rect class="cls-12" x="507.67" y="298.72" width="2.81" height="1.24"/><rect class="cls-12" x="497.73" y="339.28" width="22.7" height="2.8" transform="translate(167.68 849.28) rotate(-89.92)"/><line class="cls-12" x1="509.08" y1="351.95" x2="509.08" y2="329.33"/><rect class="cls-12" x="507.67" y="352.03" width="2.8" height="1.24"/><rect class="cls-12" x="507.67" y="328.09" width="2.81" height="1.24"/></g><g id="Layer_5" data-name="Layer 5"><path class="cls-4" d="M150.75,112.05v1.19"/><path class="cls-4" d="M149.47,112.05v1.19"/><path class="cls-4" d="M150.75,113.24H147.3"/><path class="cls-4" d="M150.75,112.05H147.3"/><path class="cls-4" d="M147.3,113.24a.6.6,0,0,1-.52-.3.59.59,0,0,1,0-.6.61.61,0,0,1,.52-.29"/><polyline class="cls-4" points="147.84 112.04 147.84 105.38 158.63 105.38 158.63 119.96 147.84 119.96 147.84 113.24"/><path class="cls-4" d="M153.2,112.23a.34.34,0,0,1,0,.68.34.34,0,1,1,0-.68Z"/><path class="cls-4" d="M329.45,373.81h1.2"/><path class="cls-4" d="M329.45,375.09h1.2"/><path class="cls-4" d="M330.65,373.81v3.45"/><path class="cls-4" d="M329.45,373.81v3.45"/><path class="cls-4" d="M330.65,377.26a.62.62,0,0,1-.3.52.59.59,0,0,1-.6,0,.62.62,0,0,1-.3-.52"/><polyline class="cls-4" points="329.45 376.72 322.79 376.72 322.79 365.92 337.37 365.92 337.37 376.72 330.65 376.72"/><path class="cls-4" d="M329.63,371.36a.35.35,0,1,1,.34.34A.35.35,0,0,1,329.63,371.36Z"/><path class="cls-4" d="M374.33,373.81h1.19"/><path class="cls-4" d="M374.33,375.09h1.19"/><path class="cls-4" d="M375.52,373.81v3.45"/><path class="cls-4" d="M374.33,373.81v3.45"/><path class="cls-4" d="M375.52,377.26a.59.59,0,0,1-.89.52.6.6,0,0,1-.3-.52"/><polyline class="cls-4" points="374.33 376.72 367.67 376.72 367.67 365.92 382.24 365.92 382.24 376.72 375.52 376.72"/><path class="cls-4" d="M374.51,371.36a.35.35,0,0,1,.34-.35.35.35,0,0,1,0,.69A.35.35,0,0,1,374.51,371.36Z"/><path class="cls-4" d="M305.76,302.77a3.82,3.82,0,0,0-.51-2A1.53,1.53,0,0,0,304,300"/><path class="cls-4" d="M304,315a1.5,1.5,0,0,0,1.23-.82,3.85,3.85,0,0,0,.51-2"/><path class="cls-4" d="M319.58,304.67l-1.51-1.05"/><path class="cls-4" d="M320.33,305.42l-.75-.75"/><path class="cls-4" d="M320.71,306.08c-.12-.22-.25-.44-.38-.66"/><path class="cls-4" d="M321.09,307.11c-.13-.34-.25-.69-.38-1"/><path class="cls-4" d="M321.09,307.87v-.76"/><path class="cls-4" d="M320.71,308.91c.13-.35.25-.7.38-1"/><path class="cls-4" d="M320.33,309.56l.38-.65"/><path class="cls-4" d="M319.58,310.31l.75-.75"/><path class="cls-4" d="M318.07,311.36l1.51-1.05"/><path class="cls-4" d="M308.25,303.55c-.12.35-.25.7-.38,1"/><path class="cls-4" d="M307.87,304.59c-.12.72-.25,1.43-.37,2.14"/><path class="cls-4" d="M307.5,306.73v1.52"/><path class="cls-4" d="M307.5,308.25c.12.71.25,1.42.37,2.13"/><path class="cls-4" d="M307.87,310.38c.13.35.26.7.38,1"/><path class="cls-4" d="M318.07,303.62l-1.52-.71"/><path class="cls-4" d="M316.55,302.91l-1.5-.55"/><path class="cls-4" d="M315.05,302.36l-1.52-.4"/><path class="cls-4" d="M313.53,302l-1.5-.13"/><path class="cls-4" d="M312,301.83l-.75.07"/><path class="cls-4" d="M311.28,301.9l-.76.13"/><path class="cls-4" d="M310.52,302l-.76.2"/><path class="cls-4" d="M309.76,302.23l-.75.43"/><path class="cls-4" d="M309,302.66c-.26.3-.5.6-.76.89"/><path class="cls-4" d="M316.55,312.06l1.52-.7"/><path class="cls-4" d="M315.05,312.61l1.5-.55"/><path class="cls-4" d="M313.53,313l1.52-.41"/><path class="cls-4" d="M312,313.15l1.5-.13"/><path class="cls-4" d="M311.28,313.09l.75.06"/><path class="cls-4" d="M310.52,313l.76.14"/><path class="cls-4" d="M309.76,312.75l.76.2"/><path class="cls-4" d="M309,312.32l.75.43"/><path class="cls-4" d="M308.25,311.42l.76.9"/><path class="cls-4" d="M306,303.82l2.28-.27"/><path class="cls-4" d="M306,311.16l2.28.26"/><path class="cls-4" d="M301,300H304"/><path class="cls-4" d="M301,315H304"/><path class="cls-4" d="M305.76,302.77v9.44"/><path class="cls-4" d="M150.37,84.38a3.45,3.45,0,0,0-.52-1.88,1.53,1.53,0,0,0-1.23-.77"/><path class="cls-4" d="M148.62,95.92a1.52,1.52,0,0,0,1.23-.78,3.44,3.44,0,0,0,.52-1.87"/><path class="cls-4" d="M164.2,86.16l-1.51-1"/><path class="cls-4" d="M165,86.87l-.76-.71"/><path class="cls-4" d="M165.34,87.49l-.38-.62"/><path class="cls-4" d="M165.72,88.47l-.38-1"/><path class="cls-4" d="M165.72,89.17v-.7"/><path class="cls-4" d="M165.34,90.16l.38-1"/><path class="cls-4" d="M165,90.77l.38-.61"/><path class="cls-4" d="M164.2,91.48c.26-.23.51-.47.76-.71"/><path class="cls-4" d="M162.69,92.47l1.51-1"/><path class="cls-4" d="M152.86,85.11c-.13.33-.25.66-.38,1"/><path class="cls-4" d="M152.48,86.09c-.12.67-.25,1.35-.38,2"/><path class="cls-4" d="M152.1,88.11v1.42"/><path class="cls-4" d="M152.1,89.53c.13.67.26,1.35.38,2"/><path class="cls-4" d="M152.48,91.55l.38,1"/><path class="cls-4" d="M162.69,85.17l-1.51-.66"/><path class="cls-4" d="M161.18,84.51,159.67,84"/><path class="cls-4" d="M159.67,84l-1.52-.38"/><path class="cls-4" d="M158.15,83.61l-1.51-.12"/><path class="cls-4" d="M156.64,83.49l-.75.06"/><path class="cls-4" d="M155.89,83.55l-.76.13"/><path class="cls-4" d="M155.13,83.68l-.76.18"/><path class="cls-4" d="M154.37,83.86l-.75.41"/><path class="cls-4" d="M153.62,84.27l-.76.84"/><path class="cls-4" d="M161.18,93.13l1.51-.66"/><path class="cls-4" d="M159.67,93.65l1.51-.52"/><path class="cls-4" d="M158.15,94l1.52-.38"/><path class="cls-4" d="M156.64,94.16l1.51-.13"/><path class="cls-4" d="M155.89,94.09l.75.07"/><path class="cls-4" d="M155.13,94l.76.12"/><path class="cls-4" d="M154.37,93.78l.76.19"/><path class="cls-4" d="M153.62,93.37l.75.41"/><path class="cls-4" d="M152.86,92.53l.76.84"/><path class="cls-4" d="M150.57,85.36l2.29-.25"/><path class="cls-4" d="M150.57,92.28l2.29.25"/><path class="cls-4" d="M145.55,81.73h3.07"/><path class="cls-4" d="M145.55,95.92h3.07"/><path class="cls-4" d="M150.37,84.38v8.89"/><path class="cls-4" d="M368.42,115.35a1.41,1.41,0,0,1-.41,1,1.33,1.33,0,0,1-1,.42"/><path class="cls-4" d="M369,115.35a2,2,0,0,1-.57,1.4,1.88,1.88,0,0,1-1.35.57"/><path class="cls-4" d="M367,105.45a1.33,1.33,0,0,1,1,.41,1.46,1.46,0,0,1,.41,1"/><path class="cls-4" d="M367,104.89a1.89,1.89,0,0,1,1.35.58,2,2,0,0,1,.57,1.4"/><path class="cls-4" d="M359.82,116.77a1.35,1.35,0,0,1-1-.42,1.41,1.41,0,0,1-.4-1"/><path class="cls-4" d="M357.43,115.35a1.41,1.41,0,0,1-.4,1,1.35,1.35,0,0,1-1,.42"/><path class="cls-4" d="M348.6,116.77a1.35,1.35,0,0,1-1-.42,1.45,1.45,0,0,1-.4-1"/><path class="cls-4" d="M348.6,117.32a1.89,1.89,0,0,1-1.36-.57,2,2,0,0,1-.56-1.4"/><path class="cls-4" d="M358.45,106.87a1.41,1.41,0,0,1,1.06-1.38"/><path class="cls-4" d="M356.44,105.5a1.42,1.42,0,0,1,1,1.37"/><path class="cls-4" d="M347.22,107.06a1.49,1.49,0,0,1,.37-1.07,1.39,1.39,0,0,1,1-.44"/><path class="cls-4" d="M346.68,106.87a2,2,0,0,1,.56-1.4,1.9,1.9,0,0,1,1.36-.58"/><path class="cls-4" d="M352.85,111.21a.58.58,0,0,1-.57.6.6.6,0,0,1,0-1.2A.58.58,0,0,1,352.85,111.21Z"/><path class="cls-4" d="M363.92,111.21a.58.58,0,0,1-.57.6.6.6,0,0,1,0-1.2A.58.58,0,0,1,363.92,111.21Z"/><path class="cls-4" d="M358.4,117.32H367"/><path class="cls-4" d="M369.59,120.33v-16"/><path class="cls-4" d="M369,106.87v8.48"/><path class="cls-4" d="M368.42,115.35v-8.48"/><path class="cls-4" d="M348.6,116.77h7.45"/><path class="cls-4" d="M348.6,105.55l7.84,0"/><path class="cls-4" d="M346.05,104.31v16"/><path class="cls-4" d="M346.68,115.35v-8.48"/><path class="cls-4" d="M347.22,115.35v-8.29"/><path class="cls-4" d="M357.43,115.35v-8.48"/><path class="cls-4" d="M358.45,115.35v-8.48"/><path class="cls-4" d="M348.6,104.89H367"/><path class="cls-4" d="M348.6,117.32h8.89"/><path class="cls-4" d="M346.05,120.33h23.54"/><path class="cls-4" d="M359.51,105.49l7.53,0"/><path class="cls-4" d="M359.82,116.77H367"/><path class="cls-4" d="M358.17,120.08v-.45"/><path class="cls-4" d="M357.72,120.08v-.45"/><path class="cls-4" d="M358.51,119.5l-.09.36"/><path class="cls-4" d="M357.37,119.5c0,.12.07.24.1.36"/><path class="cls-4" d="M358.4,118.06c0-1.52-.07-3-.1-4.56"/><path class="cls-4" d="M357.49,118.06c0-1.52.07-3,.1-4.56"/><path class="cls-4" d="M358.3,113.5h-.71"/><path class="cls-4" d="M358.35,115.57h-.81"/><path class="cls-4" d="M358.43,119.14h-1"/><path class="cls-4" d="M358.4,118.06h-.91"/><path class="cls-4" d="M358.56,118c0,.12,0,.25,0,.37"/><path class="cls-4" d="M358.43,119.14l0-1.08"/><path class="cls-4" d="M358.56,118h-.16"/><path class="cls-4" d="M358.6,118.74c0,.13,0,.26,0,.38"/><path class="cls-4" d="M358.6,118.36v.38"/><path class="cls-4" d="M357.72,119.63h.45"/><path class="cls-4" d="M358.51,119.5c0-.13.05-.25.06-.38"/><path class="cls-4" d="M357.29,118.36c0-.12,0-.25,0-.37"/><path class="cls-4" d="M357.46,119.14l0-1.08"/><path class="cls-4" d="M357.33,118h.16"/><path class="cls-4" d="M357.31,119.12c0-.12,0-.25,0-.38"/><path class="cls-4" d="M357.29,118.36c0,.13,0,.26,0,.38"/><path class="cls-4" d="M357.31,119.12l.06.38"/><path class="cls-4" d="M357.59,120.22l-.12-.36"/><path class="cls-4" d="M358.17,120.08h-.45"/><path class="cls-4" d="M358.3,120.22h-.71"/><path class="cls-4" d="M358.42,119.86l-.12.36"/><line class="cls-4" x1="370.43" y1="120.39" x2="370.43" y2="120.39"/><path class="cls-14" d="M387.5,104.31v16.08"/><path class="cls-2" d="M370.43,120.39V104.31"/><path class="cls-15" d="M370.43,120.39H387.5"/><g id="INSERT"><g id="CIRCLE"><path class="cls-16" d="M347.4,61.77a2.66,2.66,0,1,0,2.66-2.66,2.67,2.67,0,0,0-2.66,2.66Z"/></g><g id="CIRCLE-2" data-name="CIRCLE"><path class="cls-16" d="M336.52,61.77a2.67,2.67,0,1,0,2.66-2.66,2.67,2.67,0,0,0-2.66,2.66Z"/></g><g id="LINE-2" data-name="LINE"><line class="cls-16" x1="333.2" y1="56.75" x2="333.2" y2="74.33"/></g><g id="LINE-3" data-name="LINE"><line class="cls-16" x1="354.88" y1="74.33" x2="354.88" y2="56.75"/></g><g id="LINE-4" data-name="LINE"><line class="cls-16" x1="333.2" y1="74.33" x2="354.88" y2="74.33"/></g><g id="CIRCLE-3" data-name="CIRCLE"><path class="cls-16" d="M347.4,68.54a2.66,2.66,0,1,0,2.66-2.66,2.67,2.67,0,0,0-2.66,2.66Z"/></g><g id="CIRCLE-4" data-name="CIRCLE"><path class="cls-16" d="M336.52,68.54a2.67,2.67,0,1,0,2.66-2.66,2.67,2.67,0,0,0-2.66,2.66Z"/></g></g><line class="cls-17" x1="144.63" y1="67.28" x2="147.2" y2="68.72"/><path class="cls-17" d="M175.82,75.14a8.7,8.7,0,0,0,7.59-3.85,7.33,7.33,0,0,0,0-8,8.7,8.7,0,0,0-7.59-3.85"/><path class="cls-17" d="M153,67.82a.63.63,0,0,0,.65-.61.63.63,0,0,0-.65-.61.62.62,0,0,0-.63.61A.62.62,0,0,0,153,67.82Z"/><path class="cls-17" d="M151.12,59.45a1.34,1.34,0,0,0-.68.13,1.1,1.1,0,0,0-.48.54,2,2,0,0,0-.12.76"/><path class="cls-17" d="M149.84,73.71a1.74,1.74,0,0,0,.12.76,1.15,1.15,0,0,0,.48.54,1.34,1.34,0,0,0,.68.13"/><path class="cls-17" d="M149.84,73.71V60.88"/><path class="cls-17" d="M175.82,75.14h-24.7"/><path class="cls-17" d="M147.16,65.51V58.18h38.51V76.7H147.16v-8"/><line class="cls-17" x1="144.63" y1="67.2" x2="147.2" y2="65.51"/><line class="cls-17" x1="188.18" y1="77.73" x2="144.84" y2="77.73"/><line class="cls-17" x1="175.82" y1="59.45" x2="151.12" y2="59.45"/><path class="cls-17" d="M147.2,68.72a2.19,2.19,0,0,0,0-3.21"/></g><g id="Layer_15" data-name="Layer 15"><text class="cls-18" transform="translate(329 281.07)">W</text><text class="cls-18" transform="translate(350.78 280.36)">D</text><text class="cls-19" transform="translate(443.06 374.97)">OP<tspan class="cls-20" x="7.82" y="0">T</tspan><tspan class="cls-21" x="10.64" y="0">.</tspan></text><text class="cls-22" transform="translate(437.56 149.97)">OP<tspan class="cls-23" x="6.07" y="0">T</tspan><tspan x="8.26" y="0">. </tspan><tspan class="cls-24" x="10.38" y="0">F</tspan><tspan class="cls-25" x="12.69" y="0">A</tspan><tspan class="cls-26" x="15.75" y="0">U</tspan><tspan x="18.75" y="0">X BEAM</tspan></text><text class="cls-27" transform="translate(420.72 130.98)"><tspan class="cls-28">F</tspan><tspan x="4.61" y="0">AMI</tspan><tspan class="cls-29" x="20.06" y="0">L</tspan><tspan x="23.98" y="0">Y ROOM</tspan></text><text class="cls-27" transform="translate(90.13 195.75)"><tspan class="cls-30">C</tspan><tspan class="cls-31" x="5.74" y="0">O</tspan><tspan x="12.22" y="0">VERED</tspan><tspan x="5.54" y="9.6">PORCH</tspan></text><text class="cls-27" transform="translate(344.36 199.42)">DINING</text><text class="cls-27" transform="translate(330.51 95.87)">KI<tspan class="cls-32" x="7.91" y="0">T</tspan><tspan class="cls-33" x="12.66" y="0">CHEN</tspan></text><text class="cls-18" transform="translate(292.59 106.47)">R</text><text class="cls-19" transform="translate(374.2 113.5)"><tspan class="cls-34">D</tspan><tspan x="3.85" y="0">W</tspan></text><text class="cls-18" transform="translate(284.6 141.45) rotate(90)"><tspan class="cls-35">P</tspan><tspan class="cls-36" x="4.19" y="0">ANT</tspan><tspan class="cls-37" x="19.78" y="0">R</tspan><tspan x="24.67" y="0">Y</tspan></text><text class="cls-18" transform="translate(290.84 269.7)">MUD<tspan x="-3.08" y="8.4">ROOM</tspan></text><text class="cls-27" transform="translate(334.62 254.46)">UTILITY</text><text class="cls-27" transform="translate(433.8 309.93)">M<tspan class="cls-38" x="6.94" y="0">AS</tspan><tspan class="cls-39" x="18.14" y="0">TER</tspan><tspan x="-4.62" y="9.6">BEDROOM</tspan></text><text class="cls-27" transform="translate(523.85 187.55)">OUTDOOR<tspan x="7.89" y="9.6">LIVING</tspan></text><text class="cls-27" transform="translate(512.38 101.52)">OP<tspan class="cls-40" x="12.14" y="0">T</tspan><tspan x="16.53" y="0">. EXTENDED</tspan><tspan x="11.47" y="9.6">OUTDOOR</tspan><tspan x="19.36" y="19.2">LIVING</tspan></text><text class="cls-27" transform="translate(335.29 342.79)">M<tspan class="cls-38" x="6.94" y="0">AS</tspan><tspan class="cls-39" x="18.14" y="0">TER</tspan><tspan x="5.92" y="9.6">B</tspan><tspan class="cls-41" x="11.69" y="9.6">A</tspan><tspan x="17.29" y="9.6">TH</tspan></text><text class="cls-42" transform="translate(280.11 338.48)">M<tspan class="cls-43" x="4.34" y="0">AS</tspan><tspan class="cls-44" x="11.34" y="0">TER</tspan><tspan x="0.47" y="6">C</tspan><tspan class="cls-45" x="4.16" y="6">L</tspan><tspan class="cls-46" x="7.06" y="6">O</tspan><tspan class="cls-47" x="11.28" y="6">SET</tspan></text><text class="cls-27" transform="translate(70.28 124.28)">BEDROOM 3</text><text class="cls-27" transform="translate(207.68 101.71)">BEDROOM 2</text><text class="cls-18" transform="translate(159.38 99.07)">B<tspan class="cls-48" x="5.05" y="0">A</tspan><tspan x="9.95" y="0">TH 2</tspan></text><text class="cls-27" transform="translate(154.39 305.04)">GAR<tspan class="cls-49" x="18.38" y="0">A</tspan><tspan class="cls-50" x="24.38" y="0">GE</tspan></text><text class="cls-27" transform="translate(198.58 202.8)"><tspan class="cls-51">F</tspan><tspan class="cls-52" x="5.09" y="0">O</tspan><tspan x="11.41" y="0">YER</tspan></text><text class="cls-42" transform="translate(144.81 133.7)">LINEN</text><g id="LINE-5" data-name="LINE"><line class="cls-4" x1="574.77" y1="236.36" x2="574.77" y2="233.56"/></g><g id="LINE-6" data-name="LINE"><line class="cls-4" x1="569.18" y1="239.15" x2="569.18" y2="230.76"/></g><g id="LINE-7" data-name="LINE"><line class="cls-4" x1="571.97" y1="236.36" x2="571.97" y2="233.56"/></g><g id="LINE-8" data-name="LINE"><line class="cls-4" x1="569.18" y1="230.76" x2="577.57" y2="230.76"/></g><g id="LINE-9" data-name="LINE"><line class="cls-4" x1="571.97" y1="233.56" x2="574.77" y2="233.56"/></g><g id="LINE-10" data-name="LINE"><line class="cls-4" x1="569.18" y1="239.15" x2="577.57" y2="239.15"/></g><g id="LINE-11" data-name="LINE"><line class="cls-4" x1="571.97" y1="236.36" x2="574.77" y2="236.36"/></g><g id="LINE-12" data-name="LINE"><line class="cls-4" x1="574.77" y1="149.7" x2="574.77" y2="152.49"/></g><g id="LINE-13" data-name="LINE"><line class="cls-4" x1="569.18" y1="146.9" x2="569.18" y2="155.29"/></g><g id="LINE-14" data-name="LINE"><line class="cls-4" x1="571.97" y1="149.7" x2="571.97" y2="152.49"/></g><g id="LINE-15" data-name="LINE"><line class="cls-4" x1="569.18" y1="155.29" x2="577.57" y2="155.29"/></g><g id="LINE-16" data-name="LINE"><line class="cls-4" x1="571.97" y1="152.49" x2="574.77" y2="152.49"/></g><g id="LINE-17" data-name="LINE"><line class="cls-4" x1="569.18" y1="146.9" x2="577.57" y2="146.9"/></g><g id="LINE-18" data-name="LINE"><line class="cls-4" x1="571.97" y1="149.7" x2="574.77" y2="149.7"/></g><g id="LINE-19" data-name="LINE"><line class="cls-4" x1="577.57" y1="239.15" x2="577.57" y2="230.76"/></g><g id="LINE-20" data-name="LINE"><line class="cls-4" x1="577.57" y1="146.9" x2="577.57" y2="155.29"/></g><g id="LINE-21" data-name="LINE"><line class="cls-4" x1="510.47" y1="239.15" x2="569.18" y2="239.15"/></g><g id="LINE-22" data-name="LINE"><line class="cls-4" x1="510.47" y1="146.9" x2="569.18" y2="146.9"/></g><g id="LINE-23" data-name="LINE"><line class="cls-4" x1="577.57" y1="155.29" x2="577.57" y2="230.76"/></g><g id="LINE-24" data-name="LINE"><line class="cls-53" x1="510.47" y1="53.95" x2="569.18" y2="53.95"/></g><g id="LINE-25" data-name="LINE"><line class="cls-53" x1="577.57" y1="62.34" x2="577.57" y2="146.9"/></g><g id="LINE-26" data-name="LINE"><line class="cls-53" x1="574.77" y1="56.75" x2="574.77" y2="59.54"/></g><g id="LINE-27" data-name="LINE"><line class="cls-53" x1="569.18" y1="53.95" x2="569.18" y2="62.34"/></g><g id="LINE-28" data-name="LINE"><line class="cls-53" x1="571.97" y1="56.75" x2="571.97" y2="59.54"/></g><g id="LINE-29" data-name="LINE"><line class="cls-53" x1="569.18" y1="62.34" x2="577.57" y2="62.34"/></g><g id="LINE-30" data-name="LINE"><line class="cls-53" x1="571.97" y1="59.54" x2="574.77" y2="59.54"/></g><g id="LINE-31" data-name="LINE"><line class="cls-53" x1="569.18" y1="53.95" x2="577.57" y2="53.95"/></g><g id="LINE-32" data-name="LINE"><line class="cls-53" x1="571.97" y1="56.75" x2="574.77" y2="56.75"/></g><g id="LINE-33" data-name="LINE"><line class="cls-53" x1="577.57" y1="53.95" x2="577.57" y2="62.34"/></g></g></svg>