<?xml version="1.0" encoding="utf-8"?>
<!-- Generator: Adobe Illustrator 24.0.1, SVG Export Plug-In . SVG Version: 6.00 Build 0)  -->
<svg preserveAspectRatio="none" version="1.1" xmlns="http://www.w3.org/2000/svg" xmlns:xlink="http://www.w3.org/1999/xlink" x="0px" y="0px"
	 viewBox="0 0 48.2 35.3" enable-background="new 0 0 48.2 35.3" xml:space="preserve">
<g id="OPT._Fireplace">
	<rect y="1.7" fill="#FFFFFF" width="47.9" height="33.6"/>
	<g>
		<polygon fill="none" stroke="#1A62AA" stroke-width="0.5" stroke-miterlimit="10" stroke-dasharray="2,1" points="22,10 35.7,3 
			48.1,15.7 41.2,29.7 40.3,28.7 41.8,27.3 40.4,25.8 44.8,16.6 34.9,6.4 25.8,10.9 24.4,9.5 23,11 		"/>
		
			<line fill="none" stroke="#1A62AA" stroke-width="0.5" stroke-miterlimit="10" stroke-dasharray="2,1" x1="13.7" y1="1.7" x2="46.5" y2="35.3"/>
		
			<line fill="none" stroke="#1A62AA" stroke-width="0.5" stroke-miterlimit="10" stroke-dasharray="2,1" x1="42.8" y1="28.1" x2="48.2" y2="33.6"/>
		
			<line fill="none" stroke="#1A62AA" stroke-width="0.5" stroke-miterlimit="10" stroke-dasharray="2,1" x1="15.3" y1="0" x2="23.6" y2="8.4"/>
		
			<line fill="none" stroke="#1A62AA" stroke-width="0.5" stroke-miterlimit="10" stroke-dasharray="2,1" x1="23.6" y1="8.4" x2="22" y2="10"/>
		
			<line fill="none" stroke="#1A62AA" stroke-width="0.5" stroke-miterlimit="10" stroke-dasharray="2,1" x1="42.8" y1="28.1" x2="41.2" y2="29.7"/>
	</g>
	<text transform="matrix(1 0 0 1 7.78 18.527)" fill="#1B63AB" font-family="'Gotham-Light'" font-size="5px">OPT. </text>
	<text transform="matrix(1 0 0 1 0 24.527)" fill="#1B63AB" font-family="'Gotham-Light'" font-size="5px">FIREPLACE</text>
</g>
</svg>
