<svg xmlns="http://www.w3.org/2000/svg" viewBox="0 0 67.85 93.95"><defs><style>.cls-1{fill:#fff;}.cls-2,.cls-6,.cls-7{fill:none;stroke:#d80000;}.cls-2{stroke-miterlimit:10;}.cls-3,.cls-4{isolation:isolate;}.cls-4{font-size:7.65px;font-family:ArialMT, Arial;}.cls-5{letter-spacing:-0.11em;}.cls-6,.cls-7{stroke-linecap:round;stroke-linejoin:round;stroke-width:0.35px;}.cls-7{stroke-dasharray:2 1;}</style></defs><title>Varlık 3</title><g id="katman_2" data-name="katman 2"><g id="katman_1-2" data-name="katman 1"><rect class="cls-1" x="0.25" y="0.81" width="67.02" height="93.05"/><g id="Layer_15" data-name="Layer 15"><g id="LINE"><line class="cls-2" x1="58.95" y1="93.45" x2="67.35" y2="93.45"/></g><g id="LINE-2" data-name="LINE"><line class="cls-2" x1="0.25" y1="0.5" x2="58.95" y2="0.5"/></g><g id="LINE-3" data-name="LINE"><line class="cls-2" x1="67.35" y1="8.89" x2="67.35" y2="93.45"/></g><g id="LINE-4" data-name="LINE"><line class="cls-2" x1="64.55" y1="3.3" x2="64.55" y2="6.09"/></g><g id="LINE-5" data-name="LINE"><line class="cls-2" x1="58.95" y1="0.5" x2="58.95" y2="8.89"/></g><g id="LINE-6" data-name="LINE"><line class="cls-2" x1="61.74" y1="3.3" x2="61.74" y2="6.09"/></g><g id="LINE-7" data-name="LINE"><line class="cls-2" x1="58.95" y1="8.89" x2="67.35" y2="8.89"/></g><g id="LINE-8" data-name="LINE"><line class="cls-2" x1="61.74" y1="6.09" x2="64.55" y2="6.09"/></g><g id="LINE-9" data-name="LINE"><line class="cls-2" x1="58.95" y1="0.5" x2="67.35" y2="0.5"/></g><g id="LINE-10" data-name="LINE"><line class="cls-2" x1="61.74" y1="3.3" x2="64.55" y2="3.3"/></g><g id="LINE-11" data-name="LINE"><line class="cls-2" x1="67.35" y1="0.5" x2="67.35" y2="8.89"/></g><g class="cls-3"><text class="cls-4" transform="translate(1.69 44.35)">OP<tspan class="cls-5" x="11.06" y="0">T</tspan><tspan x="14.89" y="0">. EXTENDED</tspan></text><text class="cls-4" transform="translate(13.05 53.54)">OUTDOOR </text><text class="cls-4" transform="translate(20.59 62.72)">LIVING</text></g><g id="LINE-12" data-name="LINE"><line class="cls-6" x1="58.87" y1="93.55" x2="67.26" y2="93.55"/></g><g id="LINE-13" data-name="LINE"><line class="cls-6" x1="0.17" y1="93.55" x2="58.87" y2="93.55"/></g><g id="LINE-14" data-name="LINE"><line class="cls-7" x1="0.17" y1="0.6" x2="58.87" y2="0.6"/></g><g id="LINE-15" data-name="LINE"><line class="cls-7" x1="67.26" y1="8.99" x2="67.26" y2="93.55"/></g><g id="LINE-16" data-name="LINE"><line class="cls-7" x1="64.47" y1="3.4" x2="64.47" y2="6.19"/></g><g id="LINE-17" data-name="LINE"><line class="cls-7" x1="58.87" y1="0.6" x2="58.87" y2="8.99"/></g><g id="LINE-18" data-name="LINE"><line class="cls-7" x1="61.68" y1="3.4" x2="61.68" y2="6.19"/></g><g id="LINE-19" data-name="LINE"><line class="cls-7" x1="58.87" y1="8.99" x2="67.26" y2="8.99"/></g><g id="LINE-20" data-name="LINE"><line class="cls-7" x1="61.68" y1="6.19" x2="64.47" y2="6.19"/></g><g id="LINE-21" data-name="LINE"><line class="cls-7" x1="58.87" y1="0.6" x2="67.26" y2="0.6"/></g><g id="LINE-22" data-name="LINE"><line class="cls-7" x1="61.68" y1="3.4" x2="64.47" y2="3.4"/></g><g id="LINE-23" data-name="LINE"><line class="cls-7" x1="67.26" y1="0.6" x2="67.26" y2="8.99"/></g></g></g></g></svg>