<?xml version="1.0" encoding="utf-8"?>
<!-- Generator: Adobe Illustrator 24.0.1, SVG Export Plug-In . SVG Version: 6.00 Build 0)  -->
<svg preserveAspectRatio="none" version="1.1" xmlns="http://www.w3.org/2000/svg" xmlns:xlink="http://www.w3.org/1999/xlink" x="0px" y="0px"
	 viewBox="0 0 36.3 79.8" enable-background="new 0 0 36.3 79.8" xml:space="preserve">
<g id="OPT._Laundry_Components">
	<g id="LINE_1791_">
		
			<line fill="none" stroke="#1A62AA" stroke-width="0.5" stroke-linecap="round" stroke-linejoin="round" stroke-miterlimit="10" stroke-dasharray="2,1" x1="14.9" y1="79.8" x2="14.9" y2="61.7"/>
	</g>
	<g>
		
			<path fill="none" stroke="#1A62AA" stroke-width="0.5" stroke-linecap="round" stroke-linejoin="round" stroke-miterlimit="10" stroke-dasharray="2,1" d="
			M6.2,70.3c0,0.3,0,0.6,0,0.9"/>
		
			<path fill="none" stroke="#1A62AA" stroke-width="0.5" stroke-linecap="round" stroke-linejoin="round" stroke-miterlimit="10" stroke-dasharray="2,1" d="
			M5.2,70.3c0,0.3,0,0.6,0,0.9"/>
		
			<path fill="none" stroke="#1A62AA" stroke-width="0.5" stroke-linecap="round" stroke-linejoin="round" stroke-miterlimit="10" stroke-dasharray="2,1" d="
			M6.2,71.2c-0.9,0-1.8,0-2.7,0"/>
		
			<path fill="none" stroke="#1A62AA" stroke-width="0.5" stroke-linecap="round" stroke-linejoin="round" stroke-miterlimit="10" stroke-dasharray="2,1" d="
			M6.2,70.3c-0.9,0-1.8,0-2.7,0"/>
		
			<path fill="none" stroke="#1A62AA" stroke-width="0.5" stroke-linecap="round" stroke-linejoin="round" stroke-miterlimit="10" stroke-dasharray="2,1" d="
			M3.5,71.2c-0.2,0-0.3-0.1-0.4-0.2c-0.1-0.1-0.1-0.3,0-0.5s0.2-0.2,0.4-0.2"/>
		
			<polyline fill="none" stroke="#1A62AA" stroke-width="0.5" stroke-linecap="round" stroke-linejoin="round" stroke-miterlimit="10" stroke-dasharray="2,1" points="
			3.9,70.3 3.9,65 12.4,65 12.4,76.5 3.9,76.5 3.9,71.2 		"/>
		
			<path fill="none" stroke="#1A62AA" stroke-width="0.5" stroke-linecap="round" stroke-linejoin="round" stroke-miterlimit="10" stroke-dasharray="2,1" d="
			M8.1,70.4c0.1,0,0.3,0.1,0.3,0.3c0,0.2-0.1,0.3-0.3,0.3s-0.3-0.1-0.3-0.3S8,70.4,8.1,70.4z"/>
	</g>
	<g id="LINE_1790_">
		
			<line fill="none" stroke="#1A62AA" stroke-width="0.5" stroke-linecap="round" stroke-linejoin="round" stroke-miterlimit="10" stroke-dasharray="2,1" x1="0.5" y1="61.7" x2="14.9" y2="61.7"/>
	</g>
	<g id="INSERT_81_">
		<g id="LWPOLYLINE_47_">
			
				<polyline fill="none" stroke="#1A62AA" stroke-width="0.5" stroke-linecap="round" stroke-linejoin="round" stroke-miterlimit="10" stroke-dasharray="2,1" points="
				7.7,39.8 17.9,39.8 17.9,21.7 7.7,21.7 7.7,39.8 			"/>
		</g>
		<g id="LWPOLYLINE_26_">
			
				<polyline fill="none" stroke="#1A62AA" stroke-width="0.5" stroke-linecap="round" stroke-linejoin="round" stroke-miterlimit="10" stroke-dasharray="2,1" points="
				7.7,39.8 17.9,39.8 17.9,21.7 7.7,21.7 7.7,39.8 			"/>
		</g>
		<g id="LWPOLYLINE_25_">
			
				<polyline fill="none" stroke="#1A62AA" stroke-width="0.5" stroke-linecap="round" stroke-linejoin="round" stroke-miterlimit="10" stroke-dasharray="2,1" points="
				7.7,19.3 17.9,19.3 17.9,1.2 7.7,1.2 7.7,19.3 			"/>
		</g>
		<g id="LWPOLYLINE_24_">
			
				<polyline fill="none" stroke="#1A62AA" stroke-width="0.5" stroke-linecap="round" stroke-linejoin="round" stroke-miterlimit="10" stroke-dasharray="2,1" points="
				7.7,19.3 17.9,19.3 17.9,1.2 7.7,1.2 7.7,19.3 			"/>
		</g>
	</g>
	<g id="INSERT_60_">
		<g id="INSERT_59_">
			<g id="LWPOLYLINE_20_">
				
					<path fill="none" stroke="#1A62AA" stroke-width="0.5" stroke-linecap="round" stroke-linejoin="round" stroke-miterlimit="10" stroke-dasharray="2,1" d="
					M0.5,44.9c3.6,0,7.1,1.3,9.7,3.8L0,58.8l0.5,0.5l10.2-10.2l-0.5-0.5"/>
			</g>
		</g>
	</g>
	<text transform="matrix(1 0 0 1 11.499 54.4282)" fill="#1A62AA" font-family="'Gotham-Light'" font-size="4px">OPT. SINK/</text>
	<text transform="matrix(1 0 0 1 8.069 59.2281)" fill="#1A62AA" font-family="'Gotham-Light'" font-size="4px">OPT. CABINET</text>
	<g>
		<text transform="matrix(1 0 0 1 7.7658 33.4512)" fill="#1A62AA" font-family="'Gotham-Light'" font-size="7px">W</text>
	</g>
	<g>
		<text transform="matrix(1 0 0 1 8.8859 13.5695)" fill="#1A62AA" font-family="'Gotham-Light'" font-size="7px">D</text>
	</g>
</g>
</svg>
