<?xml version="1.0" encoding="utf-8"?>
<!-- Generator: Adobe Illustrator 24.0.1, SVG Export Plug-In . SVG Version: 6.00 Build 0)  -->
<svg preserveAspectRatio="none" version="1.1" id="OPT_TUB_x2F_SHOWER_AT_OWNER"
	 xmlns="http://www.w3.org/2000/svg" xmlns:xlink="http://www.w3.org/1999/xlink" x="0px" y="0px" viewBox="0 0 87.03 72.12"
	 enable-background="new 0 0 87.03 72.12" xml:space="preserve">
<polygon fill="#FFFFFF" points="68.83,14.95 68.83,-0.08 43.52,-0.08 43.52,20.57 39.08,20.57 39.08,44.23 35.01,44.23 35.01,44.6 
	0.21,44.6 0.21,71.94 35.01,71.94 36.54,71.94 43.52,71.94 44.72,71.94 70.68,71.94 70.68,33.64 74.09,27.76 76.98,22.63 
	77.86,14.95 "/>
<line fill="none" stroke="#1A62AA" stroke-width="0.5" stroke-linecap="round" stroke-linejoin="round" x1="45.69" y1="72.2" x2="45.69" y2="46.55"/>
<line fill="none" stroke="#1A62AA" stroke-width="0.5" stroke-linecap="round" stroke-linejoin="round" x1="0.17" y1="47.03" x2="35.47" y2="47.03"/>
<path fill="none" stroke="#1A62AA" stroke-width="0.5" stroke-linecap="round" stroke-linejoin="round" d="M1.12,59.44
	c0,0.61,0.08,1.22,0.25,1.82c0.25,0.92,0.71,1.8,1.32,2.64c0.62,0.83,1.41,1.6,2.32,2.29C5.94,66.88,7,67.5,8.16,68.01
	c1.16,0.53,2.43,0.95,3.76,1.27c1.33,0.32,2.72,0.54,4.15,0.64c1.41,0.1,2.84,0.1,4.26-0.02c1.42-0.13,2.8-0.35,4.13-0.68
	c1.33-0.33,2.58-0.77,3.73-1.3c1.14-0.53,2.2-1.15,3.09-1.85c0.91-0.7,1.68-1.48,2.27-2.32c0.6-0.83,1.03-1.73,1.26-2.64
	c0.23-0.93,0.27-1.87,0.11-2.8c-0.16-0.93-0.52-1.83-1.04-2.69c-0.54-0.86-1.24-1.66-2.1-2.39c-0.84-0.73-1.84-1.39-2.95-1.94
	c-1.12-0.57-2.33-1.04-3.63-1.41c-1.3-0.37-2.67-0.64-4.07-0.8c-1.41-0.16-2.84-0.21-4.27-0.15c-1.42,0.07-2.82,0.24-4.18,0.52
	c-1.35,0.28-2.65,0.67-3.85,1.15c-1.2,0.48-2.31,1.06-3.28,1.73c-0.97,0.66-1.82,1.4-2.5,2.21c-0.68,0.81-1.2,1.68-1.52,2.58
	C1.26,57.86,1.12,58.65,1.12,59.44z"/>
<path fill="none" stroke="#1A62AA" stroke-width="0.5" stroke-linecap="round" stroke-linejoin="round" d="M6.57,59.37
	c0,4.67,5.8,8.46,12.95,8.46c7.15,0,12.94-3.79,12.94-8.46s-5.8-8.46-12.94-8.46C12.37,50.92,6.57,54.7,6.57,59.37"/>
<ellipse fill="none" stroke="#1A62AA" stroke-width="0.5" stroke-linecap="round" stroke-linejoin="round" cx="31.36" cy="59.22" rx="0.82" ry="0.81"/>
<line fill="none" stroke="#1A62AA" stroke-width="0.5" stroke-linecap="round" stroke-linejoin="round" x1="45.71" y1="46.55" x2="67.59" y2="46.55"/>
<line fill="none" stroke="#1A62AA" stroke-width="0.5" stroke-linecap="round" stroke-linejoin="round" x1="45.69" y1="72.2" x2="55.99" y2="59.89"/>
<path fill="none" stroke="#1A62AA" stroke-width="0.5" stroke-linecap="round" stroke-linejoin="round" d="M57.98,58.95
	c0-0.66-0.54-1.21-1.21-1.21c-0.67,0-1.21,0.55-1.21,1.21c0,0.67,0.54,1.22,1.21,1.22C57.43,60.16,57.98,59.62,57.98,58.95
	L57.98,58.95z"/>
<line fill="none" stroke="#1A62AA" stroke-width="0.5" stroke-linecap="round" stroke-linejoin="round" x1="45.71" y1="48.96" x2="67.59" y2="48.96"/>
<line fill="none" stroke="#1A62AA" stroke-width="0.5" stroke-linecap="round" stroke-linejoin="round" x1="45.71" y1="48.96" x2="55.99" y2="58.01"/>
<line fill="none" stroke="#1A62AA" stroke-width="0.5" stroke-linecap="round" stroke-linejoin="round" x1="57.54" y1="58.01" x2="67.59" y2="48.96"/>
<line fill="none" stroke="#1A62AA" stroke-width="0.5" stroke-linecap="round" stroke-linejoin="round" x1="57.54" y1="59.89" x2="67.59" y2="72.2"/>
<path fill="none" stroke="#1A62AA" stroke-width="0.5" stroke-linecap="round" stroke-linejoin="round" d="M64.37,57.87
	c0,0.72,0,1.44,0,2.15c0.61-0.35,1.23-0.71,1.85-1.07C65.61,58.59,64.98,58.23,64.37,57.87z"/>
<path fill="none" stroke="#1A62AA" stroke-width="0.5" stroke-linecap="round" stroke-linejoin="round" d="M67.42,57.39
	c-0.4,0-0.8,0-1.2,0"/>
<path fill="none" stroke="#1A62AA" stroke-width="0.5" stroke-linecap="round" stroke-linejoin="round" d="M66.61,61
	c0-0.33,0-0.66,0-0.99"/>
<path fill="none" stroke="#1A62AA" stroke-width="0.5" stroke-linecap="round" stroke-linejoin="round" d="M67.42,60.5
	c-0.4,0-0.8,0-1.2,0"/>
<path fill="none" stroke="#1A62AA" stroke-width="0.5" stroke-linecap="round" stroke-linejoin="round" d="M66.61,56.89
	c0,0.34,0,0.67,0,1"/>
<line fill="none" stroke="#1A62AA" stroke-width="0.5" stroke-linecap="round" stroke-linejoin="round" x1="66.22" y1="58.95" x2="67.56" y2="58.95"/>
<rect x="57.8" y="47.17" fill="none" stroke="#1A62AA" stroke-width="0.5" stroke-linecap="round" stroke-linejoin="round" width="9.77" height="0.49"/>
<rect x="45.69" y="47.8" fill="none" stroke="#1A62AA" stroke-width="0.5" stroke-linecap="round" stroke-linejoin="round" width="12.36" height="0.5"/>
<rect x="35.47" y="44.74" fill="none" stroke="#1A62AA" stroke-width="0.5" stroke-linecap="round" stroke-linejoin="round" stroke-miterlimit="10" width="3.61" height="27.46"/>
<rect x="36.08" y="45.06" fill="none" stroke="#1A62AA" stroke-width="0.5" stroke-linecap="round" stroke-linejoin="round" stroke-miterlimit="10" width="9.63" height="27.14"/>
<text transform="matrix(0.9997 0 0 1 48.9253 6.5483)" fill="#1A62AA" font-family="'Gotham-Light'" font-size="5.0209px">LINEN</text>
<g>
	<g id="XMLID_7_">
		<g>
			
				<line fill="none" stroke="#1B63AB" stroke-width="0.5" stroke-linecap="round" stroke-linejoin="round" stroke-miterlimit="10" x1="67.6" y1="9.56" x2="45.92" y2="9.56"/>
		</g>
	</g>
</g>
<rect x="43.52" y="-0.08" fill="#1A62AA" stroke="#1A62AA" stroke-width="0.35" stroke-miterlimit="10" width="2.4" height="14.46"/>
<rect x="67.63" y="0.03" fill="#1A62AA" stroke="#1A62AA" stroke-width="0.35" stroke-miterlimit="10" width="2.4" height="16.77"/>
<g id="XMLID_1_">
	<g>
		<rect x="70.02" y="16.79" fill="#1B63AB" width="16.85" height="0.79"/>
		
			<rect x="50.21" y="18.91" transform="matrix(0.707 -0.7072 0.7072 0.707 3.2184 46.2611)" fill="#1B63AB" width="14.45" height="0.68"/>
	</g>
	<g>
		
			<rect x="70.02" y="16.79" fill="none" stroke="#1B63AB" stroke-width="0.5" stroke-linecap="round" stroke-linejoin="round" width="16.85" height="0.79"/>
		<path fill="none" stroke="#1B63AB" stroke-width="0.5" stroke-linecap="round" stroke-linejoin="round" d="M70.02,33.65
			c9,0,16.42-7.08,16.85-16.07"/>
		
			<rect x="50.21" y="18.91" transform="matrix(0.707 -0.7072 0.7072 0.707 3.2184 46.2611)" fill="none" stroke="#1B63AB" stroke-width="0.5" stroke-linecap="round" stroke-linejoin="round" width="14.45" height="0.68"/>
		<path fill="none" stroke="#1B63AB" stroke-width="0.5" stroke-linecap="round" stroke-linejoin="round" d="M48.33,14.38
			c-0.01,3.6,1.34,7.07,3.75,9.74"/>
	</g>
</g>
<rect x="67.63" y="33.65" fill="#1A62AA" stroke="#1A62AA" stroke-width="0.35" stroke-miterlimit="10" width="2.4" height="38.55"/>
<rect x="43.52" y="11.97" fill="#1A62AA" stroke="#1A62AA" stroke-width="0.35" stroke-miterlimit="10" width="4.81" height="2.41"/>
<rect x="62.61" y="11.97" fill="#1A62AA" stroke="#1A62AA" stroke-width="0.35" stroke-miterlimit="10" width="4.81" height="2.41"/>
<polyline fill="none" stroke="#000000" stroke-width="0.5" stroke-linecap="round" stroke-linejoin="round" stroke-miterlimit="10" points="
	39.08,21.81 49.74,21.81 49.74,38.65 39.08,38.65 "/>
</svg>
