<svg preserveAspectRatio="none" xmlns="http://www.w3.org/2000/svg" viewBox="0 0 43.99 26.23"><defs><style>.cls-1{fill:#fff;}.cls-2{fill:none;stroke:#e42d2c;stroke-linejoin:round;stroke-width:0.35px;}</style></defs><title>Varlık_2_reverse</title><g id="katman_2" data-name="katman 2"><g id="katman_1-2" data-name="katman 1"><rect class="cls-1" width="43.89" height="26.06" transform="translate(43.89 26.06) rotate(-180)"/><g id="Layer_15" data-name="Layer 15"><line class="cls-2" x1="41.29" y1="13.5" x2="43.89" y2="12.05"/><path class="cls-2" d="M12.46,4.15A7,7,0,0,0,6.14,8a8.74,8.74,0,0,0,0,8A7,7,0,0,0,12.46,20"/><path class="cls-2" d="M36.06,12a.65.65,0,1,0-.64.62A.63.63,0,0,0,36.06,12Z"/><path class="cls-2" d="M38.62,5.58a2,2,0,0,0-.11-.76A1.17,1.17,0,0,0,38,4.28a1.34,1.34,0,0,0-.68-.13"/><path class="cls-2" d="M37.35,20a1.34,1.34,0,0,0,.68-.13,1.31,1.31,0,0,0,.49-.55,1.74,1.74,0,0,0,.11-.76"/><path class="cls-2" d="M38.63,5.59V18.52"/><path class="cls-2" d="M37.35,20H12.46"/><path class="cls-2" d="M41.33,13.32v9.92H3.11"/><path class="cls-2" d="M3.11,1.51H41.33v9"/><line class="cls-2" x1="41.29" y1="10.26" x2="43.89" y2="11.96"/><line class="cls-2" x1="43.88" y1="26.06" y2="26.06"/><line class="cls-2" x1="37.34" y1="4.15" x2="12.46" y2="4.15"/><path class="cls-2" d="M41.29,10.26a2.2,2.2,0,0,0,0,3.24"/></g></g></g></svg>