<?xml version="1.0" encoding="utf-8"?>
<!-- Generator: Adobe Illustrator 24.0.1, SVG Export Plug-In . SVG Version: 6.00 Build 0)  -->
<svg preserveAspectRatio="none" version="1.1" id="Layer_4" xmlns="http://www.w3.org/2000/svg" xmlns:xlink="http://www.w3.org/1999/xlink" x="0px" y="0px"
	 viewBox="0 0 205.01 165.77" enable-background="new 0 0 205.01 165.77" xml:space="preserve">
<polygon fill="#FFFFFF" points="199.71,76.53 199.71,0.23 9.2,0.23 9.2,21.71 0.21,21.71 0.48,74.67 8.05,74.67 8.05,75.09 
	79.08,75.09 79.08,165.77 147.24,165.77 147.24,156.66 182.02,156.66 182.02,150.88 185.68,150.88 185.68,147.65 188.56,147.65 
	188.56,144.54 205.01,113.34 205.01,76.53 "/>
<polyline fill="none" stroke="#000000" stroke-width="0.5" stroke-linecap="round" stroke-linejoin="round" stroke-miterlimit="10" points="
	0.21,24.63 7.9,24.63 7.9,41.47 0.21,41.47 "/>
<line fill="none" stroke="#231F20" stroke-width="0.5" stroke-linecap="round" stroke-linejoin="round" x1="0" y1="51.18" x2="7.97" y2="51.18"/>
<line fill="none" stroke="#231F20" stroke-width="0.5" stroke-linecap="round" stroke-linejoin="round" x1="0" y1="51.69" x2="7.97" y2="51.69"/>
<g id="LINE_127_">
	
		<line fill="none" stroke="#1A62AA" stroke-width="0.35" stroke-linecap="round" stroke-linejoin="round" stroke-miterlimit="10" x1="146.54" y1="136.74" x2="129.46" y2="136.74"/>
</g>
<polygon fill="#1A62AA" stroke="#1A62AA" stroke-width="0.35" stroke-miterlimit="10" points="78.98,113 78.98,115.29 78.98,139.13 
	82.59,139.13 82.59,136.74 94.41,136.74 94.41,134.33 81.39,134.33 81.39,117.7 127.06,117.7 127.06,134.33 111.23,134.33 
	111.23,136.74 129.46,136.74 129.46,133.66 146.54,133.66 146.54,136.74 148.95,136.74 148.95,115.3 81.39,115.3 81.39,113.03 "/>
<rect x="129.46" y="117.71" fill="#FFFFFF" stroke="#1A62AA" stroke-width="0.35" stroke-miterlimit="10" width="17.08" height="13.56"/>
<rect x="94.66" y="136.71" fill="#1A62AA" width="0.78" height="16.82"/>
<rect x="94.66" y="136.71" fill="none" stroke="#1A62AA" stroke-width="0.35" stroke-linecap="round" stroke-linejoin="round" stroke-miterlimit="10" width="0.78" height="16.82"/>
<path fill="none" stroke="#1A62AA" stroke-width="0.35" stroke-linecap="round" stroke-linejoin="round" stroke-miterlimit="10" d="
	M111.25,136.71c0,8.98-6.96,16.39-15.81,16.82"/>
<g id="LINE_126_">
	
		<line fill="none" stroke="#1A62AA" stroke-width="0.5" stroke-linecap="round" stroke-linejoin="round" stroke-miterlimit="10" x1="127.06" y1="127.13" x2="81.39" y2="127.13"/>
</g>
<text transform="matrix(1.0019 0 0 1 93.7458 133.1681)" fill="#1A62AA" font-family="'Gotham-Light'" font-size="6.9869px">COAT</text>
<text transform="matrix(1.0019 0 0 1 51.6481 44.0651)" fill="#1A62AA" font-family="'Gotham-Light'" font-size="7.8166px">BEDROOM 5</text>
<text transform="matrix(1.0019 0 0 1 99.7292 97.1427)" fill="#1A62AA" font-family="'Gotham-Light'" font-size="7.8166px">BATH 4</text>
<text transform="matrix(1.0019 0 0 1 137.9088 41.1681)" fill="#1A62AA" font-family="'Gotham-Light'" font-size="7.8166px">LOFT</text>
<text transform="matrix(1.0019 0 0 1 161.8815 27.0323)" fill="#1A62AA" font-family="'Gotham-Light'" font-size="5.8625px">OPT.</text>
<g>
	<path fill="none" stroke="#1A62AA" stroke-width="0.5" stroke-linecap="round" stroke-linejoin="round" d="M126.79,109.34
		c0.3,0,0.62,0,0.92,0"/>
	<path fill="none" stroke="#1A62AA" stroke-width="0.5" stroke-linecap="round" stroke-linejoin="round" d="M126.79,110.32
		c0.3,0,0.62,0,0.92,0"/>
	<path fill="none" stroke="#1A62AA" stroke-width="0.5" stroke-linecap="round" stroke-linejoin="round" d="M127.7,109.34
		c0,0.88,0,1.77,0,2.65"/>
	<path fill="none" stroke="#1A62AA" stroke-width="0.5" stroke-linecap="round" stroke-linejoin="round" d="M126.79,109.34
		c0,0.88,0,1.77,0,2.65"/>
	<path fill="none" stroke="#1A62AA" stroke-width="0.5" stroke-linecap="round" stroke-linejoin="round" d="M127.7,111.98
		c0,0.17-0.09,0.31-0.23,0.4c-0.14,0.08-0.31,0.08-0.46,0c-0.15-0.08-0.23-0.23-0.23-0.4"/>
	<polyline fill="none" stroke="#1A62AA" stroke-width="0.5" stroke-linecap="round" stroke-linejoin="round" points="126.78,111.56 
		121.67,111.56 121.67,103.3 132.86,103.3 132.86,111.56 127.7,111.56 	"/>
	<path fill="none" stroke="#1A62AA" stroke-width="0.5" stroke-linecap="round" stroke-linejoin="round" d="M126.92,107.46
		c0-0.15,0.12-0.26,0.26-0.26s0.26,0.12,0.26,0.26s-0.12,0.26-0.26,0.26C127.04,107.72,126.92,107.61,126.92,107.46z"/>
</g>
<g>
	<line fill="none" stroke="#1A62AA" stroke-width="0.5" stroke-linejoin="round" x1="90.62" y1="114.43" x2="91.84" y2="112.26"/>
	<path fill="none" stroke="#1A62AA" stroke-width="0.5" stroke-linejoin="round" d="M97.06,88.21c0.08-2.15-1.16-4.17-3.24-5.27
		s-4.65-1.09-6.73,0c-2.08,1.09-3.32,3.12-3.24,5.27"/>
	<ellipse fill="none" stroke="#1A62AA" stroke-width="0.5" stroke-linejoin="round" cx="90.38" cy="107.36" rx="0.51" ry="0.54"/>
	<path fill="none" stroke="#1A62AA" stroke-width="0.5" stroke-linejoin="round" d="M83.85,108.96c0,0.2,0.01,0.4,0.11,0.57
		c0.1,0.18,0.25,0.32,0.46,0.41c0.2,0.08,0.39,0.1,0.64,0.1"/>
	<path fill="none" stroke="#1A62AA" stroke-width="0.5" stroke-linejoin="round" d="M95.86,110.04c0.23,0.01,0.44-0.01,0.64-0.1
		c0.2-0.09,0.35-0.23,0.46-0.41c0.1-0.18,0.11-0.37,0.11-0.57"/>
	<path fill="none" stroke="#1A62AA" stroke-width="0.5" stroke-linejoin="round" d="M95.86,110.04c-3.6,0-7.2,0-10.81,0"/>
	<path fill="none" stroke="#1A62AA" stroke-width="0.5" stroke-linejoin="round" d="M97.06,88.21c0,6.92,0,13.84,0,20.76"/>
	<path fill="none" stroke="#1A62AA" stroke-width="0.5" stroke-linejoin="round" d="M89.12,112.19c-1.98,0-4.6,0-6.58,0
		c0-10.59,0-22.62,0-33.21c5.29,0,10.58,0,15.87,0c0,10.59,0,22.62,0,33.21c-1.75,0-4.83,0-6.58,0"/>
	<line fill="none" stroke="#1A62AA" stroke-width="0.5" stroke-linejoin="round" x1="90.55" y1="114.43" x2="89.12" y2="112.26"/>
	<line fill="none" stroke="#1A62AA" stroke-width="0.5" stroke-linejoin="round" x1="99.37" y1="77.4" x2="99.37" y2="114.25"/>
	<line fill="none" stroke="#1A62AA" stroke-width="0.5" stroke-linejoin="round" x1="83.85" y1="88.21" x2="83.85" y2="108.96"/>
	<path fill="none" stroke="#1A62AA" stroke-width="0.5" stroke-linejoin="round" d="M91.84,112.27c-0.88-0.75-1.69-0.82-2.7-0.01"/>
</g>
<g>
	<rect x="32.11" y="0.23" fill="none" stroke="#1A62AA" stroke-width="0.35" stroke-miterlimit="10" width="18.85" height="2.34"/>
	<line fill="none" stroke="#1A62AA" stroke-width="0.35" stroke-miterlimit="10" x1="50.89" y1="1.4" x2="32.11" y2="1.4"/>
	<rect x="50.96" y="0.23" fill="none" stroke="#1A62AA" stroke-width="0.35" stroke-miterlimit="10" width="1.18" height="2.35"/>
	<rect x="30.93" y="0.23" fill="none" stroke="#1A62AA" stroke-width="0.35" stroke-miterlimit="10" width="1.18" height="2.35"/>
</g>
<g>
	<rect x="86.74" y="0.23" fill="none" stroke="#1A62AA" stroke-width="0.35" stroke-miterlimit="10" width="18.85" height="2.34"/>
	<line fill="none" stroke="#1A62AA" stroke-width="0.35" stroke-miterlimit="10" x1="105.53" y1="1.4" x2="86.74" y2="1.4"/>
	<rect x="105.59" y="0.23" fill="none" stroke="#1A62AA" stroke-width="0.35" stroke-miterlimit="10" width="1.18" height="2.35"/>
	<rect x="85.56" y="0.23" fill="none" stroke="#1A62AA" stroke-width="0.35" stroke-miterlimit="10" width="1.18" height="2.35"/>
</g>
<g>
	<rect x="134.25" y="0.23" fill="none" stroke="#1A62AA" stroke-width="0.35" stroke-miterlimit="10" width="20.05" height="2.34"/>
	<line fill="none" stroke="#1A62AA" stroke-width="0.35" stroke-miterlimit="10" x1="154.23" y1="1.4" x2="134.25" y2="1.4"/>
	<rect x="154.3" y="0.23" fill="none" stroke="#1A62AA" stroke-width="0.35" stroke-miterlimit="10" width="1.18" height="2.35"/>
	<rect x="133.06" y="0.23" fill="none" stroke="#1A62AA" stroke-width="0.35" stroke-miterlimit="10" width="1.18" height="2.35"/>
</g>
<g>
	<rect x="177.35" y="6.12" fill="none" stroke="#1A62AA" stroke-width="0.35" stroke-miterlimit="10" width="2.35" height="8.88"/>
	<line fill="none" stroke="#1A62AA" stroke-width="0.35" stroke-miterlimit="10" x1="178.52" y1="14.97" x2="178.52" y2="6.12"/>
	<rect x="177.33" y="14.93" fill="none" stroke="#1A62AA" stroke-width="0.35" stroke-miterlimit="10" width="2.36" height="1.18"/>
	<rect x="177.33" y="4.94" fill="none" stroke="#1A62AA" stroke-width="0.35" stroke-miterlimit="10" width="2.36" height="1.18"/>
</g>
<g>
	
		<rect x="177.35" y="20.26" fill="none" stroke="#1A62AA" stroke-width="0.35" stroke-miterlimit="10" stroke-dasharray="2,1" width="2.35" height="8.3"/>
	
		<line fill="none" stroke="#1A62AA" stroke-width="0.35" stroke-miterlimit="10" stroke-dasharray="2,1" x1="178.52" y1="28.52" x2="178.52" y2="20.26"/>
	
		<rect x="177.33" y="28.52" fill="none" stroke="#1A62AA" stroke-width="0.35" stroke-miterlimit="10" stroke-dasharray="2,1" width="2.36" height="1.18"/>
	
		<rect x="177.33" y="19.07" fill="none" stroke="#1A62AA" stroke-width="0.35" stroke-miterlimit="10" stroke-dasharray="2,1" width="2.36" height="1.18"/>
</g>
<g>
	<path fill="none" stroke="#1A62AA" stroke-width="0.5" stroke-linecap="round" stroke-linejoin="round" d="M103.38,110.6
		c-0.61,0-1.19,0.15-1.63,0.41c-0.43,0.26-0.67,0.63-0.67,1"/>
	<path fill="none" stroke="#1A62AA" stroke-width="0.5" stroke-linecap="round" stroke-linejoin="round" d="M113.35,112.01
		c0-0.37-0.24-0.73-0.68-1c-0.43-0.26-1.01-0.41-1.62-0.41"/>
	<path fill="none" stroke="#1A62AA" stroke-width="0.5" stroke-linecap="round" stroke-linejoin="round" d="M104.92,99.38
		c-0.28,0.41-0.57,0.81-0.85,1.22"/>
	<path fill="none" stroke="#1A62AA" stroke-width="0.5" stroke-linecap="round" stroke-linejoin="round" d="M105.54,98.76
		c-0.21,0.21-0.41,0.41-0.62,0.62"/>
	<path fill="none" stroke="#1A62AA" stroke-width="0.5" stroke-linecap="round" stroke-linejoin="round" d="M106.07,98.46
		c-0.18,0.1-0.35,0.21-0.53,0.3"/>
	<path fill="none" stroke="#1A62AA" stroke-width="0.5" stroke-linecap="round" stroke-linejoin="round" d="M106.92,98.15
		c-0.28,0.11-0.56,0.21-0.84,0.31"/>
	<path fill="none" stroke="#1A62AA" stroke-width="0.5" stroke-linecap="round" stroke-linejoin="round" d="M107.52,98.15
		c-0.21,0-0.41,0-0.62,0"/>
	<path fill="none" stroke="#1A62AA" stroke-width="0.5" stroke-linecap="round" stroke-linejoin="round" d="M108.37,98.46
		c-0.28-0.11-0.56-0.21-0.84-0.31"/>
	<path fill="none" stroke="#1A62AA" stroke-width="0.5" stroke-linecap="round" stroke-linejoin="round" d="M108.9,98.76
		c-0.18-0.1-0.35-0.21-0.53-0.3"/>
	<path fill="none" stroke="#1A62AA" stroke-width="0.5" stroke-linecap="round" stroke-linejoin="round" d="M109.52,99.38
		c-0.21-0.21-0.41-0.41-0.62-0.62"/>
	<path fill="none" stroke="#1A62AA" stroke-width="0.5" stroke-linecap="round" stroke-linejoin="round" d="M110.37,100.61
		c-0.28-0.41-0.57-0.82-0.85-1.22"/>
	<path fill="none" stroke="#1A62AA" stroke-width="0.5" stroke-linecap="round" stroke-linejoin="round" d="M104.02,108.57
		c0.28,0.1,0.57,0.21,0.84,0.3"/>
	<path fill="none" stroke="#1A62AA" stroke-width="0.5" stroke-linecap="round" stroke-linejoin="round" d="M104.87,108.89
		c0.58,0.1,1.16,0.21,1.74,0.3"/>
	<path fill="none" stroke="#1A62AA" stroke-width="0.5" stroke-linecap="round" stroke-linejoin="round" d="M106.6,109.19
		c0.41,0,0.82,0,1.23,0"/>
	<path fill="none" stroke="#1A62AA" stroke-width="0.5" stroke-linecap="round" stroke-linejoin="round" d="M107.84,109.19
		c0.58-0.11,1.16-0.21,1.74-0.3"/>
	<path fill="none" stroke="#1A62AA" stroke-width="0.5" stroke-linecap="round" stroke-linejoin="round" d="M109.58,108.89
		c0.28-0.11,0.56-0.21,0.84-0.3"/>
	<path fill="none" stroke="#1A62AA" stroke-width="0.5" stroke-linecap="round" stroke-linejoin="round" d="M104.07,100.61
		c-0.2,0.41-0.38,0.81-0.58,1.22"/>
	<path fill="none" stroke="#1A62AA" stroke-width="0.5" stroke-linecap="round" stroke-linejoin="round" d="M103.5,101.83
		c-0.15,0.41-0.29,0.81-0.45,1.22"/>
	<path fill="none" stroke="#1A62AA" stroke-width="0.5" stroke-linecap="round" stroke-linejoin="round" d="M103.05,103.05
		c-0.11,0.41-0.22,0.82-0.33,1.23"/>
	<path fill="none" stroke="#1A62AA" stroke-width="0.5" stroke-linecap="round" stroke-linejoin="round" d="M102.73,104.28
		c-0.04,0.41-0.07,0.81-0.11,1.22"/>
	<path fill="none" stroke="#1A62AA" stroke-width="0.5" stroke-linecap="round" stroke-linejoin="round" d="M102.62,105.51
		c0.02,0.21,0.04,0.41,0.06,0.61"/>
	<path fill="none" stroke="#1A62AA" stroke-width="0.5" stroke-linecap="round" stroke-linejoin="round" d="M102.67,106.12
		c0.04,0.21,0.07,0.41,0.11,0.62"/>
	<path fill="none" stroke="#1A62AA" stroke-width="0.5" stroke-linecap="round" stroke-linejoin="round" d="M102.77,106.74
		c0.06,0.21,0.11,0.41,0.17,0.62"/>
	<path fill="none" stroke="#1A62AA" stroke-width="0.5" stroke-linecap="round" stroke-linejoin="round" d="M102.94,107.35
		c0.12,0.21,0.23,0.41,0.35,0.62"/>
	<path fill="none" stroke="#1A62AA" stroke-width="0.5" stroke-linecap="round" stroke-linejoin="round" d="M103.29,107.96
		c0.24,0.21,0.49,0.41,0.73,0.62"/>
	<path fill="none" stroke="#1A62AA" stroke-width="0.5" stroke-linecap="round" stroke-linejoin="round" d="M110.94,101.83
		c-0.19-0.41-0.38-0.82-0.57-1.22"/>
	<path fill="none" stroke="#1A62AA" stroke-width="0.5" stroke-linecap="round" stroke-linejoin="round" d="M111.39,103.05
		c-0.15-0.41-0.29-0.82-0.45-1.22"/>
	<path fill="none" stroke="#1A62AA" stroke-width="0.5" stroke-linecap="round" stroke-linejoin="round" d="M111.72,104.28
		c-0.11-0.41-0.22-0.82-0.33-1.23"/>
	<path fill="none" stroke="#1A62AA" stroke-width="0.5" stroke-linecap="round" stroke-linejoin="round" d="M111.83,105.51
		c-0.04-0.41-0.07-0.81-0.11-1.22"/>
	<path fill="none" stroke="#1A62AA" stroke-width="0.5" stroke-linecap="round" stroke-linejoin="round" d="M111.77,106.12
		c0.02-0.21,0.04-0.4,0.06-0.61"/>
	<path fill="none" stroke="#1A62AA" stroke-width="0.5" stroke-linecap="round" stroke-linejoin="round" d="M111.66,106.74
		c0.04-0.21,0.07-0.41,0.11-0.62"/>
	<path fill="none" stroke="#1A62AA" stroke-width="0.5" stroke-linecap="round" stroke-linejoin="round" d="M111.5,107.35
		c0.05-0.21,0.11-0.41,0.17-0.62"/>
	<path fill="none" stroke="#1A62AA" stroke-width="0.5" stroke-linecap="round" stroke-linejoin="round" d="M111.15,107.96
		c0.12-0.21,0.23-0.41,0.35-0.62"/>
	<path fill="none" stroke="#1A62AA" stroke-width="0.5" stroke-linecap="round" stroke-linejoin="round" d="M110.42,108.57
		c0.24-0.21,0.49-0.41,0.73-0.62"/>
	<path fill="none" stroke="#1A62AA" stroke-width="0.5" stroke-linecap="round" stroke-linejoin="round" d="M104.23,110.43
		c-0.07-0.62-0.14-1.23-0.22-1.86"/>
	<path fill="none" stroke="#1A62AA" stroke-width="0.5" stroke-linecap="round" stroke-linejoin="round" d="M110.2,110.43
		c0.07-0.62,0.14-1.23,0.22-1.86"/>
	<path fill="none" stroke="#1A62AA" stroke-width="0.5" stroke-linecap="round" stroke-linejoin="round" d="M101.09,114.51
		c0-0.98,0-1.5,0-2.49"/>
	<path fill="none" stroke="#1A62AA" stroke-width="0.5" stroke-linecap="round" stroke-linejoin="round" d="M113.35,114.51
		c0-0.98,0-1.5,0-2.49"/>
	<path fill="none" stroke="#1A62AA" stroke-width="0.5" stroke-linecap="round" stroke-linejoin="round" d="M103.38,110.6
		c2.55,0,5.12,0,7.67,0"/>
</g>
<g id="LINE_164_">
	
		<line fill="none" stroke="#1A62AA" stroke-width="0.5" stroke-linecap="round" stroke-linejoin="round" stroke-miterlimit="10" x1="115.94" y1="114.23" x2="115.94" y2="101.27"/>
</g>
<g id="LINE_163_">
	
		<line fill="none" stroke="#1A62AA" stroke-width="0.5" stroke-linecap="round" stroke-linejoin="round" stroke-miterlimit="10" x1="115.94" y1="101.27" x2="138.38" y2="101.27"/>
</g>
<g id="LINE_162_">
	
		<line fill="none" stroke="#1A62AA" stroke-width="0.5" stroke-linecap="round" stroke-linejoin="round" stroke-miterlimit="10" stroke-dasharray="0.0891,0.0445" x1="153.73" y1="76.53" x2="177.34" y2="76.53"/>
</g>
<g id="LINE_161_">
	
		<line fill="none" stroke="#1A62AA" stroke-width="0.5" stroke-linecap="round" stroke-linejoin="round" stroke-miterlimit="10" stroke-dasharray="0.0445,0.0223" x1="151.36" y1="68.27" x2="147.82" y2="68.27"/>
</g>
<g id="LINE_160_">
	
		<line fill="none" stroke="#1A62AA" stroke-width="0.5" stroke-linecap="round" stroke-linejoin="round" stroke-miterlimit="10" stroke-dasharray="0.0445,0.0223" x1="147.82" y1="75.09" x2="147.82" y2="68.27"/>
</g>
<g id="LINE_159_">
	
		<line fill="none" stroke="#1A62AA" stroke-width="0.5" stroke-linecap="round" stroke-linejoin="round" stroke-miterlimit="10" stroke-dasharray="0.0445,0.0223" x1="151.36" y1="75.09" x2="151.36" y2="68.27"/>
</g>
<g id="LWPOLYLINE_27_">
	<g id="XMLID_11_">
		<g>
			<rect x="135.35" y="77.44" width="0.67" height="15.59"/>
		</g>
		<g>
			
				<rect x="135.35" y="77.44" fill="none" stroke="#1A62AA" stroke-width="0.35" stroke-linecap="round" stroke-linejoin="round" stroke-miterlimit="10" width="0.67" height="15.59"/>
		</g>
	</g>
</g>
<g id="LWPOLYLINE_22_">
	<g id="XMLID_10_">
		<g>
			<rect x="135.39" y="77.44" fill="#1A62AA" width="0.67" height="15.59"/>
		</g>
		<g>
			<path fill="none" stroke="#1A62AA" stroke-width="0.35" stroke-miterlimit="10" d="M121.67,77.44c0,7.56,6.16,15.22,13.72,15.59"
				/>
		</g>
	</g>
</g>
<g id="INSERT_3_">
	<g id="LWPOLYLINE_14_">
		<g id="XMLID_9_">
			<g>
				<polygon fill="#1A62AA" points="97.52,61.67 98.11,61.09 110.63,73.59 110.04,74.17 				"/>
			</g>
			<g>
				<polyline fill="none" stroke="#1A62AA" stroke-width="0.35" stroke-miterlimit="10" points="109.94,74.17 110.04,74.17 
					112.31,74.17 				"/>
				<line fill="none" stroke="#1A62AA" stroke-width="0.35" stroke-miterlimit="10" x1="110.05" y1="56.5" x2="112.42" y2="56.5"/>
				<path fill="none" stroke="#1A62AA" stroke-width="0.35" stroke-miterlimit="10" d="M110.04,56.49c-4.41,0-8.66,1.63-11.93,4.6
					l12.52,12.5l-0.59,0.59l-12.52-12.5l0.59-0.59"/>
			</g>
		</g>
	</g>
</g>
<g id="LINE_158_">
	
		<line fill="none" stroke="#1A62AA" stroke-width="0.35" stroke-linecap="round" stroke-linejoin="round" stroke-miterlimit="10" x1="140.74" y1="114.23" x2="149" y2="99.18"/>
</g>
<g id="LINE_157_">
	
		<line fill="none" stroke="#1A62AA" stroke-width="0.5" stroke-linecap="round" stroke-linejoin="round" stroke-miterlimit="10" x1="147.23" y1="75.09" x2="147.23" y2="67.68"/>
</g>
<g id="LINE_156_">
	
		<line fill="none" stroke="#1A62AA" stroke-width="0.5" stroke-linecap="round" stroke-linejoin="round" stroke-miterlimit="10" x1="151.96" y1="67.68" x2="147.23" y2="67.68"/>
</g>
<g id="LINE_155_">
	
		<line fill="none" stroke="#1A62AA" stroke-width="0.5" stroke-linecap="round" stroke-linejoin="round" stroke-miterlimit="10" x1="151.96" y1="75.09" x2="151.96" y2="67.68"/>
</g>
<g id="LINE_154_">
	
		<line fill="none" stroke="#1A62AA" stroke-width="0.5" stroke-linecap="round" stroke-linejoin="round" stroke-miterlimit="10" x1="17.95" y1="63.87" x2="17.95" y2="21.44"/>
</g>
<g id="LINE_153_">
	
		<line fill="none" stroke="#1A62AA" stroke-width="0.35" stroke-linecap="round" stroke-linejoin="round" stroke-miterlimit="10" x1="151.36" y1="147.12" x2="153.73" y2="147.12"/>
</g>
<g id="LINE_152_">
	
		<line fill="none" stroke="#1A62AA" stroke-width="0.5" stroke-linecap="round" stroke-linejoin="round" stroke-miterlimit="10" x1="152.54" y1="145.94" x2="152.54" y2="69.45"/>
</g>
<g id="LINE_151_">
	
		<line fill="none" stroke="#1A62AA" stroke-width="0.5" stroke-linecap="round" stroke-linejoin="round" stroke-miterlimit="10" x1="153.73" y1="147.12" x2="153.73" y2="68.27"/>
</g>
<g id="LINE_150_">
	
		<line fill="none" stroke="#1A62AA" stroke-width="0.35" stroke-linecap="round" stroke-linejoin="round" stroke-miterlimit="10" x1="151.36" y1="145.94" x2="152.54" y2="145.94"/>
</g>
<g id="LINE_149_">
	
		<line fill="none" stroke="#1A62AA" stroke-width="0.5" stroke-linecap="round" stroke-linejoin="round" stroke-miterlimit="10" x1="180.87" y1="150.66" x2="151.36" y2="150.66"/>
</g>
<g id="LINE_148_">
	
		<line fill="none" stroke="#1A62AA" stroke-width="0.5" stroke-linecap="round" stroke-linejoin="round" stroke-miterlimit="10" x1="180.87" y1="150.06" x2="151.36" y2="150.06"/>
</g>
<g id="LINE_147_">
	
		<line fill="none" stroke="#1A62AA" stroke-width="0.5" stroke-linecap="round" stroke-linejoin="round" stroke-miterlimit="10" x1="180.87" y1="155.93" x2="151.36" y2="155.93"/>
</g>
<g id="LINE_146_">
	
		<line fill="none" stroke="#1A62AA" stroke-width="0.5" stroke-linecap="round" stroke-linejoin="round" stroke-miterlimit="10" x1="149" y1="147.12" x2="149" y2="156.55"/>
</g>
<g id="LINE_145_">
	
		<line fill="none" stroke="#1A62AA" stroke-width="0.5" stroke-linecap="round" stroke-linejoin="round" stroke-miterlimit="10" x1="180.87" y1="156.55" x2="149" y2="156.55"/>
</g>
<g id="LINE_144_">
	
		<line fill="none" stroke="#1A62AA" stroke-width="0.5" stroke-linecap="round" stroke-linejoin="round" stroke-miterlimit="10" x1="180.87" y1="149.48" x2="180.87" y2="156.55"/>
</g>
<g id="LINE_143_">
	
		<line fill="none" stroke="#1A62AA" stroke-width="0.5" stroke-linecap="round" stroke-linejoin="round" stroke-miterlimit="10" x1="177.34" y1="144.77" x2="153.73" y2="144.77"/>
</g>
<g id="LINE_142_">
	
		<line fill="none" stroke="#1A62AA" stroke-width="0.5" stroke-linecap="round" stroke-linejoin="round" stroke-miterlimit="10" x1="177.34" y1="138.98" x2="153.73" y2="138.98"/>
</g>
<g id="LINE_141_">
	
		<line fill="none" stroke="#1A62AA" stroke-width="0.5" stroke-linecap="round" stroke-linejoin="round" stroke-miterlimit="10" x1="177.34" y1="133.09" x2="153.73" y2="133.09"/>
</g>
<g id="LINE_140_">
	
		<line fill="none" stroke="#1A62AA" stroke-width="0.5" stroke-linecap="round" stroke-linejoin="round" stroke-miterlimit="10" x1="177.34" y1="127.19" x2="153.73" y2="127.19"/>
</g>
<g id="LINE_139_">
	
		<line fill="none" stroke="#1A62AA" stroke-width="0.5" stroke-linecap="round" stroke-linejoin="round" stroke-miterlimit="10" x1="177.34" y1="121.3" x2="153.73" y2="121.3"/>
</g>
<g id="LINE_42_">
	
		<line fill="none" stroke="#1A62AA" stroke-width="0.5" stroke-linecap="round" stroke-linejoin="round" stroke-miterlimit="10" x1="177.34" y1="115.41" x2="153.73" y2="115.41"/>
</g>
<g id="LINE_41_">
	
		<line fill="none" stroke="#1A62AA" stroke-width="0.5" stroke-linecap="round" stroke-linejoin="round" stroke-miterlimit="10" x1="177.34" y1="109.52" x2="153.73" y2="109.52"/>
</g>
<g id="LINE_40_">
	
		<line fill="none" stroke="#1A62AA" stroke-width="0.5" stroke-linecap="round" stroke-linejoin="round" stroke-miterlimit="10" x1="177.34" y1="103.63" x2="153.73" y2="103.63"/>
</g>
<g id="LINE_39_">
	
		<line fill="none" stroke="#1A62AA" stroke-width="0.5" stroke-linecap="round" stroke-linejoin="round" stroke-miterlimit="10" x1="177.34" y1="97.74" x2="153.73" y2="97.74"/>
</g>
<g id="LINE_38_">
	
		<line fill="none" stroke="#1A62AA" stroke-width="0.5" stroke-linecap="round" stroke-linejoin="round" stroke-miterlimit="10" x1="177.34" y1="91.85" x2="153.73" y2="91.85"/>
</g>
<g id="LINE_37_">
	
		<line fill="none" stroke="#1A62AA" stroke-width="0.5" stroke-linecap="round" stroke-linejoin="round" stroke-miterlimit="10" x1="151.36" y1="147.12" x2="151.36" y2="156.55"/>
</g>
<g id="LINE_36_">
	
		<line fill="none" stroke="#1A62AA" stroke-width="0.5" stroke-linecap="round" stroke-linejoin="round" stroke-miterlimit="10" x1="150.77" y1="147.12" x2="150.77" y2="154.43"/>
</g>
<g id="LINE_35_">
	
		<line fill="none" stroke="#1A62AA" stroke-width="0.5" stroke-linecap="round" stroke-linejoin="round" stroke-miterlimit="10" x1="149.59" y1="147.12" x2="149.59" y2="154.43"/>
</g>
<g id="LINE_34_">
	
		<line fill="none" stroke="#1A62AA" stroke-width="0.5" stroke-linecap="round" stroke-linejoin="round" stroke-miterlimit="10" x1="151.36" y1="147.12" x2="153.73" y2="147.12"/>
</g>
<g id="LINE_33_">
	
		<line fill="none" stroke="#1A62AA" stroke-width="0.5" stroke-linecap="round" stroke-linejoin="round" stroke-miterlimit="10" x1="152.54" y1="145.94" x2="152.54" y2="85.94"/>
</g>
<g id="LINE_32_">
	
		<line fill="none" stroke="#1A62AA" stroke-width="0.5" stroke-linecap="round" stroke-linejoin="round" stroke-miterlimit="10" x1="153.73" y1="147.12" x2="153.73" y2="85.94"/>
</g>
<g id="LINE_31_">
	
		<line fill="none" stroke="#1A62AA" stroke-width="0.5" stroke-linecap="round" stroke-linejoin="round" stroke-miterlimit="10" x1="151.36" y1="145.94" x2="152.54" y2="145.94"/>
</g>
<g id="LINE_30_">
	
		<line fill="none" stroke="#1A62AA" stroke-width="0.5" stroke-linecap="round" stroke-linejoin="round" stroke-miterlimit="10" x1="177.34" y1="85.94" x2="153.73" y2="85.94"/>
</g>
<g id="LINE_29_">
	
		<line fill="none" stroke="#1A62AA" stroke-width="0.5" stroke-linecap="round" stroke-linejoin="round" stroke-miterlimit="10" x1="177.34" y1="80.06" x2="153.73" y2="80.06"/>
</g>
<g id="LINE_28_">
	
		<line fill="none" stroke="#1A62AA" stroke-width="0.5" stroke-linecap="round" stroke-linejoin="round" stroke-miterlimit="10" x1="177.34" y1="144.17" x2="153.73" y2="144.17"/>
</g>
<g id="LINE_27_">
	
		<line fill="none" stroke="#1A62AA" stroke-width="0.5" stroke-linecap="round" stroke-linejoin="round" stroke-miterlimit="10" x1="177.34" y1="138.38" x2="153.73" y2="138.38"/>
</g>
<g id="LINE_26_">
	
		<line fill="none" stroke="#1A62AA" stroke-width="0.5" stroke-linecap="round" stroke-linejoin="round" stroke-miterlimit="10" x1="177.34" y1="132.49" x2="153.73" y2="132.49"/>
</g>
<g id="LINE_25_">
	
		<line fill="none" stroke="#1A62AA" stroke-width="0.5" stroke-linecap="round" stroke-linejoin="round" stroke-miterlimit="10" x1="177.34" y1="126.59" x2="153.73" y2="126.59"/>
</g>
<g id="LINE_24_">
	
		<line fill="none" stroke="#1A62AA" stroke-width="0.5" stroke-linecap="round" stroke-linejoin="round" stroke-miterlimit="10" x1="177.34" y1="120.7" x2="153.73" y2="120.7"/>
</g>
<g id="LINE_23_">
	
		<line fill="none" stroke="#1A62AA" stroke-width="0.5" stroke-linecap="round" stroke-linejoin="round" stroke-miterlimit="10" x1="177.34" y1="114.82" x2="153.73" y2="114.82"/>
</g>
<g id="LINE_22_">
	
		<line fill="none" stroke="#1A62AA" stroke-width="0.5" stroke-linecap="round" stroke-linejoin="round" stroke-miterlimit="10" x1="177.34" y1="108.93" x2="153.73" y2="108.93"/>
</g>
<g id="LINE_21_">
	
		<line fill="none" stroke="#1A62AA" stroke-width="0.5" stroke-linecap="round" stroke-linejoin="round" stroke-miterlimit="10" x1="177.34" y1="103.03" x2="153.73" y2="103.03"/>
</g>
<g id="LINE_20_">
	
		<line fill="none" stroke="#1A62AA" stroke-width="0.5" stroke-linecap="round" stroke-linejoin="round" stroke-miterlimit="10" x1="177.34" y1="97.14" x2="153.73" y2="97.14"/>
</g>
<g id="LINE_19_">
	
		<line fill="none" stroke="#1A62AA" stroke-width="0.5" stroke-linecap="round" stroke-linejoin="round" stroke-miterlimit="10" x1="177.34" y1="91.25" x2="153.73" y2="91.25"/>
</g>
<g id="LINE_18_">
	
		<line fill="none" stroke="#1A62AA" stroke-width="0.5" stroke-linecap="round" stroke-linejoin="round" stroke-miterlimit="10" x1="177.34" y1="85.35" x2="153.73" y2="85.35"/>
</g>
<g id="LINE_17_">
	
		<line fill="none" stroke="#1A62AA" stroke-width="0.5" stroke-linecap="round" stroke-linejoin="round" stroke-miterlimit="10" x1="177.34" y1="79.47" x2="153.73" y2="79.47"/>
</g>
<g id="LINE_16_">
	
		<line fill="none" stroke="#1A62AA" stroke-width="0.5" stroke-linecap="round" stroke-linejoin="round" stroke-miterlimit="10" x1="152.54" y1="144.77" x2="151.36" y2="144.77"/>
</g>
<g id="LINE_15_">
	
		<line fill="none" stroke="#1A62AA" stroke-width="0.5" stroke-linecap="round" stroke-linejoin="round" stroke-miterlimit="10" x1="152.54" y1="138.98" x2="151.36" y2="138.98"/>
</g>
<g id="LINE_14_">
	
		<line fill="none" stroke="#1A62AA" stroke-width="0.5" stroke-linecap="round" stroke-linejoin="round" stroke-miterlimit="10" x1="152.54" y1="133.09" x2="151.36" y2="133.09"/>
</g>
<g id="LINE_12_">
	
		<line fill="none" stroke="#1A62AA" stroke-width="0.5" stroke-linecap="round" stroke-linejoin="round" stroke-miterlimit="10" x1="152.54" y1="127.19" x2="151.36" y2="127.19"/>
</g>
<g id="LINE_10_">
	
		<line fill="none" stroke="#1A62AA" stroke-width="0.5" stroke-linecap="round" stroke-linejoin="round" stroke-miterlimit="10" x1="152.54" y1="121.3" x2="151.36" y2="121.3"/>
</g>
<g id="LINE_9_">
	
		<line fill="none" stroke="#1A62AA" stroke-width="0.5" stroke-linecap="round" stroke-linejoin="round" stroke-miterlimit="10" x1="152.54" y1="115.41" x2="151.36" y2="115.41"/>
</g>
<g id="LINE_8_">
	
		<line fill="none" stroke="#1A62AA" stroke-width="0.5" stroke-linecap="round" stroke-linejoin="round" stroke-miterlimit="10" x1="152.54" y1="109.52" x2="151.36" y2="109.52"/>
</g>
<g id="LINE_7_">
	
		<line fill="none" stroke="#1A62AA" stroke-width="0.5" stroke-linecap="round" stroke-linejoin="round" stroke-miterlimit="10" x1="152.54" y1="103.63" x2="151.36" y2="103.63"/>
</g>
<g id="LINE_6_">
	
		<line fill="none" stroke="#1A62AA" stroke-width="0.5" stroke-linecap="round" stroke-linejoin="round" stroke-miterlimit="10" x1="152.54" y1="97.74" x2="151.36" y2="97.74"/>
</g>
<g id="LINE_5_">
	
		<line fill="none" stroke="#1A62AA" stroke-width="0.5" stroke-linecap="round" stroke-linejoin="round" stroke-miterlimit="10" x1="152.54" y1="91.85" x2="151.36" y2="91.85"/>
</g>
<g id="LINE_4_">
	
		<line fill="none" stroke="#1A62AA" stroke-width="0.5" stroke-linecap="round" stroke-linejoin="round" stroke-miterlimit="10" x1="152.54" y1="85.94" x2="151.36" y2="85.94"/>
</g>
<g id="LINE_3_">
	
		<line fill="none" stroke="#1A62AA" stroke-width="0.5" stroke-linecap="round" stroke-linejoin="round" stroke-miterlimit="10" x1="152.54" y1="80.06" x2="151.36" y2="80.06"/>
</g>
<g id="LINE_2_">
	
		<line fill="none" stroke="#1A62AA" stroke-width="0.5" stroke-linecap="round" stroke-linejoin="round" stroke-miterlimit="10" x1="152.54" y1="144.17" x2="151.36" y2="144.17"/>
</g>
<g id="LINE_1_">
	
		<line fill="none" stroke="#1A62AA" stroke-width="0.5" stroke-linecap="round" stroke-linejoin="round" stroke-miterlimit="10" x1="152.54" y1="138.38" x2="151.36" y2="138.38"/>
</g>
<g id="LINE_71_">
	
		<line fill="none" stroke="#1A62AA" stroke-width="0.5" stroke-linecap="round" stroke-linejoin="round" stroke-miterlimit="10" x1="152.54" y1="132.49" x2="151.36" y2="132.49"/>
</g>
<g id="LINE_70_">
	
		<line fill="none" stroke="#1A62AA" stroke-width="0.5" stroke-linecap="round" stroke-linejoin="round" stroke-miterlimit="10" x1="152.54" y1="126.59" x2="151.36" y2="126.59"/>
</g>
<g id="LINE_69_">
	
		<line fill="none" stroke="#1A62AA" stroke-width="0.5" stroke-linecap="round" stroke-linejoin="round" stroke-miterlimit="10" x1="152.54" y1="120.7" x2="151.36" y2="120.7"/>
</g>
<g id="LINE_68_">
	
		<line fill="none" stroke="#1A62AA" stroke-width="0.5" stroke-linecap="round" stroke-linejoin="round" stroke-miterlimit="10" x1="152.54" y1="114.82" x2="151.36" y2="114.82"/>
</g>
<g id="LINE_67_">
	
		<line fill="none" stroke="#1A62AA" stroke-width="0.5" stroke-linecap="round" stroke-linejoin="round" stroke-miterlimit="10" x1="152.54" y1="108.93" x2="151.36" y2="108.93"/>
</g>
<g id="LINE_66_">
	
		<line fill="none" stroke="#1A62AA" stroke-width="0.5" stroke-linecap="round" stroke-linejoin="round" stroke-miterlimit="10" x1="152.54" y1="103.03" x2="151.36" y2="103.03"/>
</g>
<g id="LINE_65_">
	
		<line fill="none" stroke="#1A62AA" stroke-width="0.5" stroke-linecap="round" stroke-linejoin="round" stroke-miterlimit="10" x1="152.54" y1="97.14" x2="151.36" y2="97.14"/>
</g>
<g id="LINE_64_">
	
		<line fill="none" stroke="#1A62AA" stroke-width="0.5" stroke-linecap="round" stroke-linejoin="round" stroke-miterlimit="10" x1="152.54" y1="91.25" x2="151.36" y2="91.25"/>
</g>
<g id="LINE_63_">
	
		<line fill="none" stroke="#1A62AA" stroke-width="0.5" stroke-linecap="round" stroke-linejoin="round" stroke-miterlimit="10" x1="152.54" y1="85.35" x2="151.36" y2="85.35"/>
</g>
<g id="LINE_62_">
	
		<line fill="none" stroke="#1A62AA" stroke-width="0.5" stroke-linecap="round" stroke-linejoin="round" stroke-miterlimit="10" x1="152.54" y1="79.47" x2="151.36" y2="79.47"/>
</g>
<g id="LINE_61_">
	
		<line fill="none" stroke="#1A62AA" stroke-width="0.5" stroke-linecap="round" stroke-linejoin="round" stroke-miterlimit="10" x1="177.34" y1="74.17" x2="153.73" y2="74.17"/>
</g>
<g id="LINE_60_">
	
		<line fill="none" stroke="#1A62AA" stroke-width="0.5" stroke-linecap="round" stroke-linejoin="round" stroke-miterlimit="10" x1="177.34" y1="68.27" x2="151.36" y2="68.27"/>
</g>
<g id="LINE_59_">
	
		<line fill="none" stroke="#1A62AA" stroke-width="0.35" stroke-linecap="round" stroke-linejoin="round" stroke-miterlimit="10" x1="151.36" y1="68.27" x2="153.73" y2="68.27"/>
</g>
<g id="LINE_58_">
	
		<line fill="none" stroke="#1A62AA" stroke-width="0.5" stroke-linecap="round" stroke-linejoin="round" stroke-miterlimit="10" x1="151.96" y1="69.45" x2="152.54" y2="69.45"/>
</g>
<g id="LWPOLYLINE_6_">
	
		<rect x="149.23" y="154.43" fill="none" stroke="#1A62AA" stroke-width="0.5" stroke-linecap="round" stroke-linejoin="round" stroke-miterlimit="10" width="1.89" height="1.89"/>
</g>
<g id="CIRCLE_2_">
	<path fill="none" stroke="#1A62AA" stroke-width="0.5" stroke-linecap="round" stroke-linejoin="round" stroke-miterlimit="10" d="
		M150.74,155.37c0-0.31-0.24-0.56-0.56-0.56s-0.57,0.24-0.57,0.56s0.25,0.56,0.57,0.56S150.74,155.68,150.74,155.37L150.74,155.37z"
		/>
</g>
<line fill="none" stroke="#1A62AA" stroke-width="0.35" stroke-linecap="round" stroke-linejoin="round" stroke-miterlimit="10" x1="151.96" y1="75.19" x2="151.36" y2="75.19"/>
<line fill="none" stroke="#1A62AA" stroke-width="0.35" stroke-linecap="round" stroke-linejoin="round" stroke-miterlimit="10" x1="140.82" y1="99.18" x2="149" y2="114.23"/>
<g>
	
		<rect x="51.85" y="0.23" fill="#1A62AA" stroke="#1A62AA" stroke-width="0.35" stroke-miterlimit="10" width="33.44" height="2.35"/>
	<polygon fill="#1A62AA" stroke="#1A62AA" stroke-width="0.35" stroke-miterlimit="10" points="109.84,56.49 112.21,56.49 
		112.21,2.58 132.91,2.58 132.91,0.23 106.59,0.23 106.59,2.58 109.84,2.58 	"/>
	<polygon fill="#1A62AA" stroke="#1A62AA" stroke-width="0.35" stroke-miterlimit="10" points="109.84,74.17 109.84,75.09 
		99.73,75.09 99.73,77.28 121.67,77.28 121.67,75.09 112.21,75.09 112.21,74.17 	"/>
	<polygon fill="#1A62AA" stroke="#1A62AA" stroke-width="0.4" stroke-miterlimit="10" points="179.68,144.73 179.68,29.68 
		177.31,29.68 177.31,149.48 180.85,149.48 180.85,147.09 188.56,147.09 188.56,144.73 	"/>
	<polygon fill="#1A62AA" stroke="#1A62AA" stroke-width="0.35" stroke-miterlimit="10" points="177.31,4.94 179.68,4.94 
		179.68,0.23 155.4,0.23 155.4,2.58 177.31,2.58 	"/>
	<path fill="#1A62AA" stroke="#1A62AA" stroke-width="0.35" stroke-miterlimit="10" d="M135.88,75.09v2.35h2.37h2.37h8.28v36.79
		h-8.28V96.35h-2.37v17.88H81.4V77.28h18.97l1.15-2.19H27.21l0.06-18.3H24.9v7.08H10.42V21.44h14.21v7.07H27v-9.72h-2.37h-0.5H10.42
		V4.94h13.7h0.5h2.37V2.58h3.55V0.23H8.05v77.05h70.99v40.49h69.86v18.97h-2.37v10.39h4.73V77.44v-2.35
		C151.27,75.09,135.88,75.09,135.88,75.09z M24.9,75.09H10.42v-8.86h14.49L24.9,75.09L24.9,75.09z"/>
	
		<rect x="138.25" y="96.35" fill="#1A62AA" stroke="#1A62AA" stroke-width="0.35" stroke-miterlimit="10" width="10.66" height="2.83"/>
</g>
<g id="INSERT_1_">
	<g id="INSERT_2_">
		<g id="LWPOLYLINE_11_">
			<g id="XMLID_8_">
				<g>
					<polygon fill="#1A62AA" points="37.41,38.44 36.95,38.91 26.93,28.97 27.4,28.5 					"/>
					<polygon fill="#1A62AA" points="36.95,46.22 37.41,46.69 27.4,56.63 26.93,56.15 					"/>
				</g>
				<g>
					<line fill="none" stroke="#1A62AA" stroke-width="0.35" stroke-miterlimit="10" x1="27.4" y1="28.5" x2="25.04" y2="28.5"/>
					<line fill="none" stroke="#1A62AA" stroke-width="0.35" stroke-miterlimit="10" x1="27.4" y1="56.63" x2="24.75" y2="56.63"/>
					<path fill="none" stroke="#1A62AA" stroke-width="0.35" stroke-miterlimit="10" d="M27.4,42.57c0.06,0,0.13,0,0.19-0.01
						c3.47-0.04,6.79-1.33,9.37-3.65l-10.02-9.94l0.47-0.47l10.01,9.94l-0.46,0.47"/>
					<path fill="none" stroke="#1A62AA" stroke-width="0.35" stroke-miterlimit="10" d="M27.4,42.56c0.06,0,0.13,0,0.19,0
						c3.48,0.04,6.79,1.33,9.37,3.65l-10.02,9.94l0.47,0.48l10.01-9.95l-0.46-0.47"/>
				</g>
			</g>
		</g>
	</g>
</g>
<rect x="17.46" y="4.09" fill="#1A62AA" stroke="#1A62AA" stroke-width="0.35" stroke-miterlimit="10" width="3.13" height="15.58"/>
<line fill="none" stroke="#1A62AA" stroke-width="0.5" stroke-linecap="round" stroke-linejoin="round" stroke-miterlimit="10" x1="26.93" y1="4.94" x2="26.93" y2="18.78"/>
<rect x="177.35" y="16.11" fill="#1A62AA" stroke="#1A62AA" stroke-width="0.35" stroke-miterlimit="10" width="2.35" height="2.96"/>
<line fill="none" stroke="#1A62AA" stroke-width="0.35" stroke-linecap="round" stroke-linejoin="round" stroke-miterlimit="10" x1="138.38" y1="77.44" x2="138.38" y2="97.14"/>
<rect x="179.7" y="0.23" fill="#1A62AA" stroke="#1A62AA" stroke-width="0.35" stroke-miterlimit="10" width="20.01" height="2.41"/>
<line fill="none" stroke="#231F20" stroke-width="0.5" stroke-miterlimit="10" x1="0.21" y1="48.59" x2="7.9" y2="48.59"/>
<line fill="none" stroke="#000000" stroke-width="0.5" stroke-linecap="round" stroke-linejoin="round" stroke-miterlimit="10" stroke-dasharray="0.301,0.1505" x1="79.08" y1="165.77" x2="79.08" y2="139.41"/>
</svg>
