<?xml version="1.0" encoding="utf-8"?>
<!-- Generator: Adobe Illustrator 24.0.1, SVG Export Plug-In . SVG Version: 6.00 Build 0)  -->
<svg preserveAspectRatio="none" version="1.1" id="Partial_Floor_Plan_Elevation_B"
	 xmlns="http://www.w3.org/2000/svg" xmlns:xlink="http://www.w3.org/1999/xlink" x="0px" y="0px" viewBox="0 0 55.67 288.82"
	 enable-background="new 0 0 55.67 288.82" xml:space="preserve">
<polygon fill="#FFFFFF" points="41.54,2.12 41.54,3.48 39.26,3.48 39.26,5.76 47.82,5.76 47.82,147.89 39.26,147.89 35.07,147.89 
	32.44,147.89 32.44,150.66 -0.01,150.66 0.13,190.07 32.65,190.07 32.65,192.8 49.06,192.8 49.06,282.93 41.06,282.93 41.06,288.63 
	54.93,288.63 54.93,2.12 "/>
<g>
	<rect x="53.08" y="240.87" fill="none" stroke="#231F20" stroke-width="0.35" stroke-miterlimit="10" width="2.4" height="19.26"/>
	<line fill="none" stroke="#231F20" stroke-width="0.35" stroke-miterlimit="10" x1="54.28" y1="240.94" x2="54.28" y2="260.13"/>
	<rect x="53.08" y="239.66" fill="none" stroke="#231F20" stroke-width="0.35" stroke-miterlimit="10" width="2.41" height="1.21"/>
	<rect x="53.08" y="260.13" fill="none" stroke="#231F20" stroke-width="0.35" stroke-miterlimit="10" width="2.41" height="1.21"/>
</g>
<g>
	<rect x="53.08" y="215.64" fill="none" stroke="#231F20" stroke-width="0.35" stroke-miterlimit="10" width="2.4" height="19.26"/>
	<line fill="none" stroke="#231F20" stroke-width="0.35" stroke-miterlimit="10" x1="54.28" y1="215.7" x2="54.28" y2="234.9"/>
	<rect x="53.08" y="214.43" fill="none" stroke="#231F20" stroke-width="0.35" stroke-miterlimit="10" width="2.41" height="1.21"/>
	<rect x="53.08" y="234.9" fill="none" stroke="#231F20" stroke-width="0.35" stroke-miterlimit="10" width="2.41" height="1.21"/>
</g>
<line fill="none" stroke="#231F20" stroke-width="0.35" stroke-miterlimit="10" x1="37.46" y1="156.44" x2="37.46" y2="185.89"/>
<g>
	<g id="LINE_122_">
		
			<line fill="none" stroke="#000000" stroke-width="0.35" stroke-linecap="round" stroke-linejoin="round" stroke-miterlimit="10" x1="52.18" y1="190.39" x2="37.46" y2="190.39"/>
	</g>
	<g id="LINE_121_">
		
			<line fill="none" stroke="#000000" stroke-width="0.35" stroke-linecap="round" stroke-linejoin="round" stroke-miterlimit="10" x1="52.18" y1="3.48" x2="52.18" y2="14.3"/>
	</g>
	<g id="LINE_120_">
		
			<line fill="none" stroke="#000000" stroke-width="0.35" stroke-linecap="round" stroke-linejoin="round" stroke-miterlimit="10" x1="49.78" y1="5.89" x2="49.78" y2="16.7"/>
	</g>
	<g id="LINE_119_">
		
			<line fill="none" stroke="#000000" stroke-width="0.35" stroke-linecap="round" stroke-linejoin="round" stroke-miterlimit="10" x1="55.48" y1="187.09" x2="37.46" y2="187.09"/>
	</g>
	<g id="LINE_118_">
		
			<line fill="none" stroke="#000000" stroke-width="0.35" stroke-linecap="round" stroke-linejoin="round" stroke-miterlimit="10" x1="52.18" y1="3.48" x2="43.47" y2="3.48"/>
	</g>
	<g id="LINE_117_">
		
			<line fill="none" stroke="#000000" stroke-width="0.35" stroke-linecap="round" stroke-linejoin="round" stroke-miterlimit="10" x1="32.65" y1="184.68" x2="32.65" y2="190.39"/>
	</g>
	<g id="LINE_116_">
		
			<line fill="none" stroke="#000000" stroke-width="0.35" stroke-linecap="round" stroke-linejoin="round" stroke-miterlimit="10" x1="32.65" y1="184.68" x2="37.46" y2="184.68"/>
	</g>
	<g id="LINE_115_">
		
			<line fill="none" stroke="#000000" stroke-width="0.35" stroke-linecap="round" stroke-linejoin="round" stroke-miterlimit="10" x1="52.18" y1="285.33" x2="52.18" y2="266.1"/>
	</g>
	<g id="LINE_114_">
		
			<line fill="none" stroke="#000000" stroke-width="0.35" stroke-linecap="round" stroke-linejoin="round" stroke-miterlimit="10" x1="52.18" y1="192.8" x2="52.18" y2="209.62"/>
	</g>
	<g id="LINE_113_">
		
			<line fill="none" stroke="#000000" stroke-width="0.35" stroke-linecap="round" stroke-linejoin="round" stroke-miterlimit="10" x1="55.48" y1="288.63" x2="55.48" y2="261.29"/>
	</g>
	<g id="LINE_112_">
		
			<line fill="none" stroke="#000000" stroke-width="0.35" stroke-linecap="round" stroke-linejoin="round" stroke-miterlimit="10" x1="55.48" y1="187.09" x2="55.48" y2="214.43"/>
	</g>
	<g id="LINE_111_">
		
			<line fill="none" stroke="#000000" stroke-width="0.35" stroke-linecap="round" stroke-linejoin="round" stroke-miterlimit="10" x1="49.78" y1="282.93" x2="49.78" y2="263.7"/>
	</g>
	<g id="LINE_110_">
		
			<line fill="none" stroke="#000000" stroke-width="0.35" stroke-linecap="round" stroke-linejoin="round" stroke-miterlimit="10" x1="49.78" y1="192.8" x2="49.78" y2="212.02"/>
	</g>
	<g id="LINE_109_">
		
			<line fill="none" stroke="#000000" stroke-width="0.35" stroke-linecap="round" stroke-linejoin="round" stroke-miterlimit="10" x1="52.18" y1="285.33" x2="43.47" y2="285.33"/>
	</g>
	<g id="LINE_108_">
		
			<line fill="none" stroke="#000000" stroke-width="0.35" stroke-linecap="round" stroke-linejoin="round" stroke-miterlimit="10" x1="55.48" y1="288.63" x2="41.06" y2="288.63"/>
	</g>
	<g id="LINE_107_">
		
			<polyline fill="none" stroke="#000000" stroke-width="0.35" stroke-linecap="round" stroke-linejoin="round" stroke-miterlimit="10" points="
			41.06,288.63 41.06,285.33 41.06,285.33 41.06,282.93 		"/>
	</g>
	<g id="LINE_106_">
		
			<line fill="none" stroke="#000000" stroke-width="0.35" stroke-linecap="round" stroke-linejoin="round" stroke-miterlimit="10" x1="43.47" y1="286.23" x2="43.47" y2="285.33"/>
	</g>
	<g id="LINE_105_">
		
			<line fill="none" stroke="#000000" stroke-width="0.35" stroke-linecap="round" stroke-linejoin="round" stroke-miterlimit="10" x1="53.08" y1="286.23" x2="43.47" y2="286.23"/>
	</g>
	<g id="LINE_103_">
		
			<line fill="none" stroke="#000000" stroke-width="0.35" stroke-linecap="round" stroke-linejoin="round" stroke-miterlimit="10" x1="49.78" y1="282.93" x2="41.06" y2="282.93"/>
	</g>
	<g id="LINE_102_">
		
			<line fill="none" stroke="#000000" stroke-width="0.35" stroke-linecap="round" stroke-linejoin="round" stroke-miterlimit="10" x1="53.08" y1="286.23" x2="53.08" y2="266.1"/>
	</g>
	<g id="LINE_101_">
		
			<line fill="none" stroke="#000000" stroke-width="0.35" stroke-linecap="round" stroke-linejoin="round" stroke-miterlimit="10" x1="53.08" y1="261.29" x2="55.48" y2="261.29"/>
	</g>
	<g id="LINE_100_">
		
			<line fill="none" stroke="#000000" stroke-width="0.35" stroke-linecap="round" stroke-linejoin="round" stroke-miterlimit="10" x1="53.08" y1="214.43" x2="55.48" y2="214.43"/>
	</g>
	<g id="LINE_99_">
		
			<line fill="none" stroke="#000000" stroke-width="0.35" stroke-linecap="round" stroke-linejoin="round" stroke-miterlimit="10" x1="53.08" y1="239.66" x2="55.48" y2="239.66"/>
	</g>
	<g id="LINE_98_">
		
			<line fill="none" stroke="#000000" stroke-width="0.35" stroke-linecap="round" stroke-linejoin="round" stroke-miterlimit="10" x1="53.08" y1="236.06" x2="55.48" y2="236.06"/>
	</g>
	<g id="LINE_97_">
		
			<line fill="none" stroke="#000000" stroke-width="0.35" stroke-linecap="round" stroke-linejoin="round" stroke-miterlimit="10" x1="53.08" y1="239.66" x2="53.08" y2="236.06"/>
	</g>
	<g id="LINE_96_">
		
			<line fill="none" stroke="#000000" stroke-width="0.35" stroke-linecap="round" stroke-linejoin="round" stroke-miterlimit="10" x1="55.48" y1="239.66" x2="55.48" y2="236.06"/>
	</g>
	<g id="LINE_95_">
		
			<line fill="none" stroke="#000000" stroke-width="0.35" stroke-linecap="round" stroke-linejoin="round" stroke-miterlimit="10" x1="49.78" y1="263.7" x2="53.08" y2="263.7"/>
	</g>
	<g id="LINE_94_">
		
			<line fill="none" stroke="#000000" stroke-width="0.35" stroke-linecap="round" stroke-linejoin="round" stroke-miterlimit="10" x1="52.18" y1="266.1" x2="53.08" y2="266.1"/>
	</g>
	<g id="LINE_93_">
		
			<line fill="none" stroke="#000000" stroke-width="0.35" stroke-linecap="round" stroke-linejoin="round" stroke-miterlimit="10" x1="53.08" y1="263.7" x2="53.08" y2="261.29"/>
	</g>
	<g id="LINE_92_">
		
			<line fill="none" stroke="#000000" stroke-width="0.35" stroke-linecap="round" stroke-linejoin="round" stroke-miterlimit="10" x1="53.08" y1="214.43" x2="55.48" y2="214.43"/>
	</g>
	<g id="LINE_91_">
		
			<line fill="none" stroke="#000000" stroke-width="0.35" stroke-linecap="round" stroke-linejoin="round" stroke-miterlimit="10" x1="49.78" y1="212.02" x2="53.08" y2="212.02"/>
	</g>
	<g id="LINE_90_">
		
			<line fill="none" stroke="#000000" stroke-width="0.35" stroke-linecap="round" stroke-linejoin="round" stroke-miterlimit="10" x1="52.18" y1="209.62" x2="53.08" y2="209.62"/>
	</g>
	<g id="LINE_89_">
		
			<line fill="none" stroke="#000000" stroke-width="0.35" stroke-linecap="round" stroke-linejoin="round" stroke-miterlimit="10" x1="53.08" y1="212.02" x2="53.08" y2="214.43"/>
	</g>
	<g id="LINE_88_">
		
			<line fill="none" stroke="#000000" stroke-width="0.35" stroke-linecap="round" stroke-linejoin="round" stroke-miterlimit="10" x1="52.18" y1="190.39" x2="52.18" y2="209.62"/>
	</g>
	<g id="LINE_87_">
		
			<line fill="none" stroke="#000000" stroke-width="0.35" stroke-linecap="round" stroke-linejoin="round" stroke-miterlimit="10" x1="49.78" y1="192.8" x2="49.78" y2="212.02"/>
	</g>
	<g id="LINE_86_">
		
			<line fill="none" stroke="#000000" stroke-width="0.35" stroke-linecap="round" stroke-linejoin="round" stroke-miterlimit="10" x1="53.08" y1="189.49" x2="53.08" y2="209.62"/>
	</g>
	<g id="LINE_85_">
		
			<line fill="none" stroke="#000000" stroke-width="0.35" stroke-linecap="round" stroke-linejoin="round" stroke-miterlimit="10" x1="49.78" y1="212.02" x2="53.08" y2="212.02"/>
	</g>
	<g id="LINE_84_">
		
			<line fill="none" stroke="#000000" stroke-width="0.35" stroke-linecap="round" stroke-linejoin="round" stroke-miterlimit="10" x1="52.18" y1="209.62" x2="53.08" y2="209.62"/>
	</g>
	<g id="LINE_83_">
		
			<line fill="none" stroke="#000000" stroke-width="0.35" stroke-linecap="round" stroke-linejoin="round" stroke-miterlimit="10" x1="53.08" y1="212.02" x2="53.08" y2="214.43"/>
	</g>
	<g id="LINE_82_">
		
			<line fill="none" stroke="#000000" stroke-width="0.35" stroke-linecap="round" stroke-linejoin="round" stroke-miterlimit="10" x1="53.08" y1="189.49" x2="37.46" y2="189.49"/>
	</g>
	<g id="LINE_81_">
		
			<line fill="none" stroke="#000000" stroke-width="0.35" stroke-linecap="round" stroke-linejoin="round" stroke-miterlimit="10" x1="37.46" y1="189.49" x2="37.46" y2="190.39"/>
	</g>
	<g id="LINE_80_">
		
			<line fill="none" stroke="#000000" stroke-width="0.35" stroke-linecap="round" stroke-linejoin="round" stroke-miterlimit="10" x1="37.46" y1="184.68" x2="37.46" y2="187.09"/>
	</g>
	<g id="LINE_79_">
		
			<line fill="none" stroke="#000000" stroke-width="0.35" stroke-linecap="round" stroke-linejoin="round" stroke-miterlimit="10" x1="32.65" y1="156.44" x2="32.65" y2="150.74"/>
	</g>
	<g id="LINE_78_">
		
			<line fill="none" stroke="#000000" stroke-width="0.35" stroke-linecap="round" stroke-linejoin="round" stroke-miterlimit="10" x1="32.65" y1="156.44" x2="37.46" y2="156.44"/>
	</g>
	<g id="LINE_77_">
		
			<line fill="none" stroke="#000000" stroke-width="0.35" stroke-linecap="round" stroke-linejoin="round" stroke-miterlimit="10" x1="37.46" y1="156.44" x2="37.46" y2="154.04"/>
	</g>
	<g id="LINE_76_">
		
			<line fill="none" stroke="#000000" stroke-width="0.35" stroke-linecap="round" stroke-linejoin="round" stroke-miterlimit="10" x1="55.48" y1="154.04" x2="37.46" y2="154.04"/>
	</g>
	<g id="LINE_75_">
		
			<line fill="none" stroke="#000000" stroke-width="0.35" stroke-linecap="round" stroke-linejoin="round" stroke-miterlimit="10" x1="55.48" y1="154.04" x2="55.48" y2="135.11"/>
	</g>
	<g id="LINE_74_">
		
			<line fill="none" stroke="#000000" stroke-width="0.35" stroke-linecap="round" stroke-linejoin="round" stroke-miterlimit="10" x1="53.08" y1="151.64" x2="53.08" y2="139.92"/>
	</g>
	<g id="LINE_73_">
		
			<line fill="none" stroke="#000000" stroke-width="0.35" stroke-linecap="round" stroke-linejoin="round" stroke-miterlimit="10" x1="53.08" y1="151.64" x2="37.46" y2="151.64"/>
	</g>
	<g id="LINE_72_">
		
			<line fill="none" stroke="#000000" stroke-width="0.35" stroke-linecap="round" stroke-linejoin="round" stroke-miterlimit="10" x1="37.46" y1="151.64" x2="37.46" y2="150.74"/>
	</g>
	<g id="LINE_57_">
		
			<line fill="none" stroke="#000000" stroke-width="0.35" stroke-linecap="round" stroke-linejoin="round" stroke-miterlimit="10" x1="53.08" y1="135.11" x2="55.48" y2="135.11"/>
	</g>
	<g id="LINE_56_">
		
			<line fill="none" stroke="#000000" stroke-width="0.35" stroke-linecap="round" stroke-linejoin="round" stroke-miterlimit="10" x1="53.08" y1="137.52" x2="53.08" y2="135.11"/>
	</g>
	<g id="LINE_55_">
		
			<line fill="none" stroke="#000000" stroke-width="0.35" stroke-linecap="round" stroke-linejoin="round" stroke-miterlimit="10" x1="52.18" y1="3.48" x2="43.47" y2="3.48"/>
	</g>
	<g id="LINE_54_">
		
			<line fill="none" stroke="#000000" stroke-width="0.35" stroke-linecap="round" stroke-linejoin="round" stroke-miterlimit="10" x1="49.78" y1="16.7" x2="53.08" y2="16.7"/>
	</g>
	<g id="LINE_53_">
		
			<line fill="none" stroke="#000000" stroke-width="0.35" stroke-linecap="round" stroke-linejoin="round" stroke-miterlimit="10" x1="49.78" y1="5.89" x2="49.78" y2="16.7"/>
	</g>
	<g id="LINE_52_">
		
			<line fill="none" stroke="#000000" stroke-width="0.35" stroke-linecap="round" stroke-linejoin="round" stroke-miterlimit="10" x1="52.18" y1="3.48" x2="52.18" y2="14.3"/>
	</g>
	<g id="LINE_51_">
		
			<line fill="none" stroke="#000000" stroke-width="0.35" stroke-linecap="round" stroke-linejoin="round" stroke-miterlimit="10" x1="55.48" y1="0.18" x2="41.06" y2="0.18"/>
	</g>
	<g id="LINE_50_">
		
			<line fill="none" stroke="#000000" stroke-width="0.35" stroke-linecap="round" stroke-linejoin="round" stroke-miterlimit="10" x1="55.48" y1="0.18" x2="55.48" y2="19.1"/>
	</g>
	<g id="LINE_49_">
		
			<line fill="none" stroke="#000000" stroke-width="0.35" stroke-linecap="round" stroke-linejoin="round" stroke-miterlimit="10" x1="53.08" y1="2.58" x2="53.08" y2="14.3"/>
	</g>
	<g id="LINE_48_">
		
			<line fill="none" stroke="#000000" stroke-width="0.35" stroke-linecap="round" stroke-linejoin="round" stroke-miterlimit="10" x1="53.08" y1="2.58" x2="43.47" y2="2.58"/>
	</g>
	<g id="LINE_47_">
		
			<line fill="none" stroke="#000000" stroke-width="0.35" stroke-linecap="round" stroke-linejoin="round" stroke-miterlimit="10" x1="52.18" y1="14.3" x2="53.08" y2="14.3"/>
	</g>
	<g id="LINE_46_">
		
			<line fill="none" stroke="#000000" stroke-width="0.35" stroke-linecap="round" stroke-linejoin="round" stroke-miterlimit="10" x1="53.08" y1="19.1" x2="55.48" y2="19.1"/>
	</g>
	<g id="LINE_45_">
		
			<line fill="none" stroke="#000000" stroke-width="0.35" stroke-linecap="round" stroke-linejoin="round" stroke-miterlimit="10" x1="53.08" y1="16.7" x2="53.08" y2="19.1"/>
	</g>
	<g id="LINE_44_">
		
			<line fill="none" stroke="#000000" stroke-width="0.35" stroke-linecap="round" stroke-linejoin="round" stroke-miterlimit="10" x1="41.06" y1="0.18" x2="41.06" y2="3.48"/>
	</g>
	<g id="LINE_43_">
		
			<line fill="none" stroke="#000000" stroke-width="0.35" stroke-linecap="round" stroke-linejoin="round" stroke-miterlimit="10" x1="43.47" y1="2.58" x2="43.47" y2="3.48"/>
	</g>
	<g>
		<rect x="32.44" y="149.53" width="5.25" height="6.91"/>
		<polygon points="53.08,135.11 53.08,137.52 52.18,137.52 49.78,137.52 49.78,139.64 49.78,150.14 52.18,150.14 52.18,139.64 
			53.08,139.64 53.08,153.59 55.48,153.59 55.48,135.11 		"/>
	</g>
</g>
<line fill="none" stroke="#000000" stroke-width="0.35" stroke-linecap="round" stroke-linejoin="round" stroke-miterlimit="10" x1="55.48" y1="19.1" x2="55.48" y2="135.11"/>
<line fill="none" stroke="#000000" stroke-width="0.35" stroke-linecap="round" stroke-linejoin="round" stroke-miterlimit="10" x1="53.08" y1="135.11" x2="53.08" y2="19.1"/>
<rect x="53.08" y="261.29" width="2.4" height="27.34"/>
<polygon points="43.47,286.23 43.47,285.33 52.18,285.33 52.18,285.05 52.18,282.93 52.18,263.7 49.78,263.7 49.78,282.93 
	41.06,282.93 41.06,285.33 41.06,285.33 41.06,286.23 41.06,288.63 43.47,288.63 55.48,288.63 55.48,286.23 "/>
<rect x="51.26" y="262.42" transform="matrix(6.123234e-17 -1 1 6.123234e-17 -212.443 317.3571)" width="2.4" height="4.95"/>
<rect x="53.08" y="236.06" width="2.4" height="3.61"/>
<rect x="32.44" y="184.68" width="5.01" height="8.11"/>
<rect x="35.05" y="190.39" width="17.12" height="2.4"/>
<g>
	<rect x="36.88" y="187.09" width="18.61" height="2.4"/>
	<rect x="49.78" y="190.39" width="2.4" height="21.63"/>
</g>
<polygon points="53.08,189.49 53.08,209.62 49.98,209.62 49.98,212.02 53.08,212.02 53.08,214.43 55.48,214.43 55.48,189.49 "/>
<rect x="35.05" y="151.64" width="20.43" height="2.4"/>
<rect x="41.06" y="0.18" fill="#1A62AA" stroke="#1A62AA" stroke-width="0.35" stroke-miterlimit="10" width="2.4" height="3.3"/>
<g>
	<polygon points="39.26,3.48 39.26,6.13 49.78,6.13 49.78,16.7 52.18,16.7 52.18,3.48 49.78,3.48 	"/>
	<rect x="41.06" y="0.18" width="14.42" height="2.4"/>
</g>
<rect x="53.08" y="1.38" width="2.4" height="17.73"/>
<rect x="49.78" y="14.3" width="4.88" height="2.4"/>
<rect x="41.06" y="284.98" fill="#1A62AA" stroke="#1A62AA" stroke-width="0.35" stroke-miterlimit="10" width="2.4" height="3.65"/>
<rect x="47.86" y="281.01" transform="matrix(6.123234e-17 -1 1 6.123234e-17 -238.3678 336.4975)" fill="#1A62AA" stroke="#1A62AA" stroke-width="0.35" stroke-miterlimit="10" width="2.4" height="12.85"/>
<rect x="53.08" y="261.34" transform="matrix(-1 -1.224647e-16 1.224647e-16 -1 108.5675 549.9738)" fill="#1A62AA" stroke="#1A62AA" stroke-width="0.35" stroke-miterlimit="10" width="2.4" height="27.29"/>
<rect x="45.27" y="143.82" transform="matrix(6.123234e-17 -1 1 6.123234e-17 -106.3649 199.3112)" fill="#1A62AA" stroke="#1A62AA" stroke-width="0.35" stroke-miterlimit="10" width="2.4" height="18.03"/>
<rect x="53.08" y="135.11" transform="matrix(-1 -1.224647e-16 1.224647e-16 -1 108.5675 289.1523)" fill="#1A62AA" stroke="#1A62AA" stroke-width="0.35" stroke-miterlimit="10" width="2.4" height="18.93"/>
<rect x="45.27" y="179.3" transform="matrix(-1.836970e-16 1 -1 -1.836970e-16 234.7848 141.8384)" fill="#1A62AA" stroke="#1A62AA" stroke-width="0.35" stroke-miterlimit="10" width="2.4" height="18.03"/>
<rect x="53.08" y="187.11" transform="matrix(-1 -1.224647e-16 1.224647e-16 -1 108.5675 401.5147)" fill="#1A62AA" stroke="#1A62AA" stroke-width="0.35" stroke-miterlimit="10" width="2.4" height="27.29"/>
<rect x="47.07" y="-5.83" transform="matrix(-1.836970e-16 1 -1 -1.836970e-16 49.6549 -46.8967)" fill="#1A62AA" stroke="#1A62AA" stroke-width="0.35" stroke-miterlimit="10" width="2.4" height="14.43"/>
<rect x="53.08" y="0.18" transform="matrix(-1 -1.224647e-16 1.224647e-16 -1 108.5675 19.282)" fill="#1A62AA" stroke="#1A62AA" stroke-width="0.35" stroke-miterlimit="10" width="2.4" height="18.93"/>
<rect x="32.44" y="147.89" width="19.73" height="2.22"/>
<text transform="matrix(1 0 0 1 -0.1304 173.8584)" fill="#231F20" font-family="'Gotham-Light'" font-size="8px">PORCH</text>
</svg>
