<?xml version="1.0" encoding="utf-8"?>
<!-- Generator: Adobe Illustrator 24.0.1, SVG Export Plug-In . SVG Version: 6.00 Build 0)  -->
<svg preserveAspectRatio="none" version="1.1" id="OPT._Flex_With_Stair" xmlns="http://www.w3.org/2000/svg" xmlns:xlink="http://www.w3.org/1999/xlink"
	 x="0px" y="0px" viewBox="0 0 113.08 112.82" enable-background="new 0 0 113.08 112.82" xml:space="preserve">
<polygon fill="#FFFFFF" points="93.94,73.08 77.08,73.08 77.08,12.87 93.94,12.87 93.94,10.46 68.99,10.46 68.99,0 45.77,0 
	45.77,18.36 18.07,18.36 18.07,56.22 14.46,56.22 0,56.22 0,75.49 14.46,75.49 14.46,75.49 43.36,75.49 43.36,85.13 77.08,85.13 
	77.08,112.82 79.17,112.82 79.17,84.49 78.28,84.49 78.28,75.49 93.81,75.49 93.81,94.76 113.08,94.76 113.08,73.08 "/>
<line fill="none" stroke="#1A62AA" stroke-width="0.5" stroke-linecap="round" stroke-linejoin="round" x1="78.28" y1="79.1" x2="48.18" y2="79.1"/>
<line fill="none" stroke="#1A62AA" stroke-width="0.5" stroke-linecap="round" stroke-linejoin="round" x1="45.77" y1="75.49" x2="45.77" y2="85.13"/>
<line fill="none" stroke="#1A62AA" stroke-width="0.5" stroke-linecap="round" stroke-linejoin="round" x1="78.28" y1="85.13" x2="45.77" y2="85.13"/>
<line fill="none" stroke="#1A62AA" stroke-width="0.5" stroke-linecap="round" stroke-linejoin="round" x1="78.28" y1="84.49" x2="47.94" y2="84.49"/>
<line fill="none" stroke="#1A62AA" stroke-width="0.5" stroke-linecap="round" stroke-linejoin="round" x1="78.28" y1="78.47" x2="48.18" y2="78.47"/>
<line fill="none" stroke="#1A62AA" stroke-width="0.5" stroke-linecap="round" stroke-linejoin="round" x1="74.67" y1="73.09" x2="50.59" y2="73.09"/>
<line fill="none" stroke="#1A62AA" stroke-width="0.5" stroke-linecap="round" stroke-linejoin="round" x1="74.67" y1="67.06" x2="50.59" y2="67.06"/>
<line fill="none" stroke="#1A62AA" stroke-width="0.5" stroke-linecap="round" stroke-linejoin="round" x1="74.67" y1="61.04" x2="50.59" y2="61.04"/>
<line fill="none" stroke="#1A62AA" stroke-width="0.5" stroke-linecap="round" stroke-linejoin="round" x1="74.67" y1="55.02" x2="50.59" y2="55.02"/>
<line fill="none" stroke="#1A62AA" stroke-width="0.5" stroke-linecap="round" stroke-linejoin="round" x1="74.67" y1="49" x2="50.59" y2="49"/>
<line fill="none" stroke="#1A62AA" stroke-width="0.5" stroke-linecap="round" stroke-linejoin="round" x1="74.67" y1="42.97" x2="50.59" y2="42.97"/>
<line fill="none" stroke="#1A62AA" stroke-width="0.5" stroke-linecap="round" stroke-linejoin="round" x1="74.67" y1="36.96" x2="50.59" y2="36.96"/>
<line fill="none" stroke="#1A62AA" stroke-width="0.5" stroke-linecap="round" stroke-linejoin="round" x1="74.67" y1="30.93" x2="50.59" y2="30.93"/>
<line fill="none" stroke="#1A62AA" stroke-width="0.5" stroke-linecap="round" stroke-linejoin="round" x1="74.67" y1="24.91" x2="50.59" y2="24.91"/>
<line fill="none" stroke="#1A62AA" stroke-width="0.5" stroke-linecap="round" stroke-linejoin="round" x1="74.67" y1="18.89" x2="50.59" y2="18.89"/>
<line fill="none" stroke="#1A62AA" stroke-width="0.5" stroke-linecap="round" stroke-linejoin="round" x1="49.38" y1="73.09" x2="48.12" y2="73.09"/>
<line fill="none" stroke="#1A62AA" stroke-width="0.5" stroke-linecap="round" stroke-linejoin="round" x1="49.38" y1="67.06" x2="48.12" y2="67.06"/>
<line fill="none" stroke="#1A62AA" stroke-width="0.5" stroke-linecap="round" stroke-linejoin="round" x1="49.38" y1="61.04" x2="48.12" y2="61.04"/>
<line fill="none" stroke="#1A62AA" stroke-width="0.5" stroke-linecap="round" stroke-linejoin="round" x1="49.38" y1="55.02" x2="48.12" y2="55.02"/>
<line fill="none" stroke="#1A62AA" stroke-width="0.5" stroke-linecap="round" stroke-linejoin="round" x1="49.38" y1="49" x2="48.12" y2="49"/>
<line fill="none" stroke="#1A62AA" stroke-width="0.5" stroke-linecap="round" stroke-linejoin="round" x1="49.38" y1="42.97" x2="48.12" y2="42.97"/>
<line fill="none" stroke="#1A62AA" stroke-width="0.5" stroke-linecap="round" stroke-linejoin="round" x1="49.38" y1="36.96" x2="48.12" y2="36.96"/>
<line fill="none" stroke="#1A62AA" stroke-width="0.5" stroke-linecap="round" stroke-linejoin="round" x1="49.38" y1="30.93" x2="48.12" y2="30.93"/>
<line fill="none" stroke="#1A62AA" stroke-width="0.5" stroke-linecap="round" stroke-linejoin="round" x1="49.38" y1="24.91" x2="48.12" y2="24.91"/>
<line fill="none" stroke="#1A62AA" stroke-width="0.5" stroke-linecap="round" stroke-linejoin="round" x1="49.38" y1="18.89" x2="48.12" y2="18.89"/>
<line fill="none" stroke="#1A62AA" stroke-width="0.5" stroke-linecap="round" stroke-linejoin="round" x1="48.18" y1="75.49" x2="48.18" y2="85.13"/>
<line fill="none" stroke="#1A62AA" stroke-width="0.5" stroke-linecap="round" stroke-linejoin="round" x1="47.57" y1="75.49" x2="47.57" y2="82.96"/>
<line fill="none" stroke="#1A62AA" stroke-width="0.5" stroke-linecap="round" stroke-linejoin="round" x1="46.37" y1="75.49" x2="46.37" y2="82.96"/>
<line fill="none" stroke="#1A62AA" stroke-width="0.5" stroke-linecap="round" stroke-linejoin="round" x1="48.18" y1="75.49" x2="50.59" y2="75.49"/>
<line fill="none" stroke="#1A62AA" stroke-width="0.5" stroke-linecap="round" stroke-linejoin="round" x1="49.38" y1="74.29" x2="49.38" y2="12.87"/>
<line fill="none" stroke="#1A62AA" stroke-width="0.5" stroke-linecap="round" stroke-linejoin="round" x1="50.59" y1="75.49" x2="50.59" y2="12.87"/>
<line fill="none" stroke="#1A62AA" stroke-width="0.5" stroke-linecap="round" stroke-linejoin="round" x1="48.18" y1="74.29" x2="49.38" y2="74.29"/>
<rect x="46.01" y="82.96" fill="none" stroke="#1A62AA" stroke-width="0.5" stroke-linecap="round" stroke-linejoin="round" width="1.93" height="1.93"/>
<path fill="none" stroke="#1A62AA" stroke-width="0.5" stroke-linecap="round" stroke-linejoin="round" d="M47.54,83.92
	c0-0.32-0.25-0.57-0.57-0.57c-0.32,0-0.57,0.25-0.57,0.57c0,0.32,0.25,0.57,0.57,0.57C47.29,84.49,47.54,84.24,47.54,83.92
	L47.54,83.92z"/>
<line fill="none" stroke="#1A62AA" stroke-width="0.5" stroke-linecap="round" stroke-linejoin="round" x1="76.41" y1="72.45" x2="50.59" y2="72.45"/>
<line fill="none" stroke="#1A62AA" stroke-width="0.5" stroke-linecap="round" stroke-linejoin="round" x1="76.41" y1="66.44" x2="50.59" y2="66.44"/>
<line fill="none" stroke="#1A62AA" stroke-width="0.5" stroke-linecap="round" stroke-linejoin="round" x1="76.41" y1="60.43" x2="50.59" y2="60.43"/>
<line fill="none" stroke="#1A62AA" stroke-width="0.5" stroke-linecap="round" stroke-linejoin="round" x1="76.41" y1="54.42" x2="50.59" y2="54.42"/>
<line fill="none" stroke="#1A62AA" stroke-width="0.5" stroke-linecap="round" stroke-linejoin="round" x1="76.41" y1="48.41" x2="50.59" y2="48.41"/>
<line fill="none" stroke="#1A62AA" stroke-width="0.5" stroke-linecap="round" stroke-linejoin="round" x1="76.41" y1="42.4" x2="50.59" y2="42.4"/>
<line fill="none" stroke="#1A62AA" stroke-width="0.5" stroke-linecap="round" stroke-linejoin="round" x1="76.41" y1="36.39" x2="50.59" y2="36.39"/>
<line fill="none" stroke="#1A62AA" stroke-width="0.5" stroke-linecap="round" stroke-linejoin="round" x1="76.41" y1="30.38" x2="50.59" y2="30.38"/>
<line fill="none" stroke="#1A62AA" stroke-width="0.5" stroke-linecap="round" stroke-linejoin="round" x1="76.41" y1="24.37" x2="50.59" y2="24.37"/>
<line fill="none" stroke="#1A62AA" stroke-width="0.5" stroke-linecap="round" stroke-linejoin="round" x1="74.53" y1="18.36" x2="50.59" y2="18.36"/>
<line fill="none" stroke="#1A62AA" stroke-width="0.5" stroke-linecap="round" stroke-linejoin="round" x1="49.24" y1="72.45" x2="48.12" y2="72.45"/>
<line fill="none" stroke="#1A62AA" stroke-width="0.5" stroke-linecap="round" stroke-linejoin="round" x1="49.24" y1="66.44" x2="48.12" y2="66.44"/>
<line fill="none" stroke="#1A62AA" stroke-width="0.5" stroke-linecap="round" stroke-linejoin="round" x1="49.24" y1="60.43" x2="48.12" y2="60.43"/>
<line fill="none" stroke="#1A62AA" stroke-width="0.5" stroke-linecap="round" stroke-linejoin="round" x1="49.24" y1="54.42" x2="48.12" y2="54.42"/>
<line fill="none" stroke="#1A62AA" stroke-width="0.5" stroke-linecap="round" stroke-linejoin="round" x1="49.24" y1="48.41" x2="48.12" y2="48.41"/>
<line fill="none" stroke="#1A62AA" stroke-width="0.5" stroke-linecap="round" stroke-linejoin="round" x1="49.24" y1="42.4" x2="48.12" y2="42.4"/>
<line fill="none" stroke="#1A62AA" stroke-width="0.5" stroke-linecap="round" stroke-linejoin="round" x1="49.24" y1="36.39" x2="48.12" y2="36.39"/>
<line fill="none" stroke="#1A62AA" stroke-width="0.5" stroke-linecap="round" stroke-linejoin="round" x1="49.24" y1="30.38" x2="48.12" y2="30.38"/>
<line fill="none" stroke="#1A62AA" stroke-width="0.5" stroke-linecap="round" stroke-linejoin="round" x1="49.24" y1="24.37" x2="48.12" y2="24.37"/>
<line fill="none" stroke="#1A62AA" stroke-width="0.5" stroke-linecap="round" stroke-linejoin="round" x1="49.16" y1="18.36" x2="48.12" y2="18.36"/>
<g>
	<g id="LINE_574_">
		<g id="XMLID_2_">
			<g>
				<polygon fill="#1B63AB" points="74.67,12.87 48.18,12.87 48.18,12.17 45.77,12.17 45.77,12.87 43.36,12.87 43.36,10.46 
					93.94,10.46 93.94,12.87 77.08,12.87 				"/>
				<rect x="112.19" y="75.49" fill="#1B63AB" width="0.9" height="19.27"/>
				<rect x="78.28" y="73.09" fill="#1B63AB" width="15.54" height="2.4"/>
				<rect x="77.08" y="75.49" fill="#1B63AB" width="1.2" height="2.41"/>
				<rect x="77.08" y="73.09" fill="#1B63AB" width="1.2" height="2.4"/>
				<rect x="75.26" y="75.49" fill="#1B63AB" width="1.82" height="2.41"/>
				<rect x="75.26" y="73.09" fill="#1B63AB" width="1.82" height="2.4"/>
				<polygon fill="#1B63AB" points="77.08,12.87 77.08,73.09 75.26,73.09 75.26,75.49 75.26,77.9 74.67,77.9 74.67,12.87 				"/>
				<polygon fill="#1B63AB" points="48.18,12.87 48.18,75.49 47.57,75.49 47.57,56.22 45.77,56.22 45.77,12.87 				"/>
				<rect x="45.77" y="12.17" fill="#1B63AB" width="2.41" height="0.7"/>
				<rect x="45.77" y="56.22" fill="#1B63AB" width="1.8" height="19.27"/>
				<rect x="43.36" y="56.22" fill="#1B63AB" width="2.41" height="19.27"/>
				<rect x="16.86" y="73.08" fill="#1B63AB" width="2.41" height="1.21"/>
				<rect x="16.86" y="59.45" fill="#1B63AB" width="2.41" height="2.33"/>
				<rect x="16.86" y="74.29" fill="#1B63AB" width="2.41" height="1.2"/>
				<rect x="16.86" y="61.78" fill="#1B63AB" width="2.41" height="11.3"/>
				<polygon fill="#1B63AB" points="19.27,56.22 19.27,59.45 16.86,59.45 16.86,59.37 16.86,56.22 				"/>
				<rect x="2.41" y="73.08" fill="#1B63AB" width="14.45" height="1.21"/>
				<rect x="2.41" y="59.45" fill="#1B63AB" width="14.45" height="2.33"/>
				<rect x="2.41" y="59.37" width="14.45" height="0.08"/>
				<rect x="0" y="74.29" fill="#1B63AB" width="2.41" height="1.2"/>
				<rect x="0" y="73.08" fill="#1B63AB" width="2.41" height="1.21"/>
				<rect x="0" y="61.78" fill="#1B63AB" width="2.41" height="11.3"/>
				<rect x="0" y="59.45" fill="#1B63AB" width="2.41" height="2.33"/>
				<polygon fill="#1B63AB" points="2.41,59.37 2.41,59.45 0,59.45 0,56.22 2.41,56.22 				"/>
			</g>
			<g>
				
					<line fill="none" stroke="#1B63AB" stroke-width="0.35" stroke-linecap="round" stroke-linejoin="round" stroke-miterlimit="10" x1="78.28" y1="112.82" x2="78.28" y2="85.13"/>
				
					<path fill="none" stroke="#1B63AB" stroke-width="0.35" stroke-linecap="round" stroke-linejoin="round" stroke-miterlimit="10" d="
					M93.82,75.49c0,10.29,8.08,18.78,18.37,19.27V75.49h0.9v19.27h-0.9"/>
				<line fill="none" stroke="#1B63AB" stroke-width="0.35" stroke-miterlimit="10" x1="16.86" y1="59.37" x2="2.41" y2="59.37"/>
				
					<polyline fill="none" stroke="#1B63AB" stroke-width="0.35" stroke-linecap="round" stroke-linejoin="round" stroke-miterlimit="10" points="
					113.09,73.09 112.19,73.09 93.82,73.09 				"/>
				
					<line fill="none" stroke="#1B63AB" stroke-width="0.35" stroke-linecap="round" stroke-linejoin="round" stroke-miterlimit="10" x1="78.28" y1="77.9" x2="78.28" y2="85.13"/>
				<line fill="none" stroke="#1B63AB" stroke-width="0.35" stroke-miterlimit="10" x1="74.67" y1="12.87" x2="48.18" y2="12.87"/>
				<polyline fill="none" stroke="#1B63AB" stroke-width="0.35" stroke-miterlimit="10" points="45.77,12.87 43.36,12.87 
					43.36,10.46 93.94,10.46 93.94,12.87 77.08,12.87 				"/>
				<polyline fill="none" stroke="#1B63AB" stroke-width="0.35" stroke-miterlimit="10" points="45.77,56.22 45.77,12.87 
					45.77,12.17 48.18,12.17 48.18,12.87 48.18,75.49 47.57,75.49 				"/>
				<polygon fill="none" stroke="#1B63AB" stroke-width="0.35" stroke-miterlimit="10" points="47.57,75.49 45.77,75.49 
					43.36,75.49 43.36,56.22 45.77,56.22 47.57,56.22 				"/>
				<line fill="none" stroke="#1B63AB" stroke-width="0.35" stroke-miterlimit="10" x1="19.27" y1="61.78" x2="19.27" y2="73.08"/>
				<polyline fill="none" stroke="#1B63AB" stroke-width="0.35" stroke-miterlimit="10" points="16.86,59.45 16.86,59.37 
					16.86,56.22 19.27,56.22 19.27,59.45 				"/>
				<line fill="none" stroke="#1B63AB" stroke-width="0.35" stroke-miterlimit="10" x1="16.86" y1="73.08" x2="16.86" y2="61.78"/>
				<polyline fill="none" stroke="#1B63AB" stroke-width="0.35" stroke-miterlimit="10" points="19.27,74.29 19.27,75.49 
					16.86,75.49 16.86,74.29 				"/>
				<polyline fill="none" stroke="#1B63AB" stroke-width="0.35" stroke-miterlimit="10" points="0,59.45 0,56.22 2.41,56.22 
					2.41,59.37 2.41,59.45 2.41,61.78 2.41,73.08 				"/>
				<line fill="none" stroke="#1B63AB" stroke-width="0.35" stroke-miterlimit="10" x1="0" y1="73.08" x2="0" y2="61.78"/>
				<polyline fill="none" stroke="#1B63AB" stroke-width="0.35" stroke-miterlimit="10" points="2.41,74.29 2.41,75.49 0,75.49 
					0,74.29 				"/>
				<polygon fill="none" stroke="#1B63AB" stroke-width="0.35" stroke-miterlimit="10" points="0,74.29 0,73.08 2.41,73.08 
					16.86,73.08 19.27,73.08 19.27,74.29 16.86,74.29 2.41,74.29 				"/>
				<polyline fill="none" stroke="#1B63AB" stroke-width="0.35" stroke-miterlimit="10" points="77.08,73.09 77.08,12.87 
					74.67,12.87 74.67,77.9 75.26,77.9 				"/>
				<polyline fill="none" stroke="#1B63AB" stroke-width="0.35" stroke-miterlimit="10" points="78.28,73.09 93.82,73.09 
					93.82,75.49 78.28,75.49 				"/>
				<polygon fill="none" stroke="#1B63AB" stroke-width="0.35" stroke-miterlimit="10" points="75.26,75.49 75.26,73.09 
					77.08,73.09 78.28,73.09 78.28,75.49 78.28,77.9 77.08,77.9 75.26,77.9 				"/>
				<polygon fill="none" stroke="#1B63AB" stroke-width="0.35" stroke-miterlimit="10" points="0,61.78 0,59.45 2.41,59.45 
					16.86,59.45 19.27,59.45 19.27,61.78 16.86,61.78 2.41,61.78 				"/>
			</g>
		</g>
	</g>
</g>
<rect x="0" y="73.09" fill="#1B63AB" stroke="#1B63AB" stroke-width="0.35" stroke-miterlimit="10" width="19.27" height="2.4"/>
<line fill="none" stroke="#1B63AB" stroke-width="0.35" stroke-linecap="round" stroke-linejoin="round" stroke-miterlimit="10" x1="2.41" y1="56.22" x2="16.86" y2="56.22"/>
<path fill="none" stroke="#1B63AB" stroke-width="0.5" stroke-linecap="round" stroke-linejoin="round" d="M54.06,10.12
	c0-3.46,1.28-6.82,3.63-9.38l9.84,9.84l0.46-0.46l-9.84-9.84l-0.46,0.46"/>
</svg>
