<?xml version="1.0" encoding="utf-8"?>
<!-- Generator: Adobe Illustrator 24.0.1, SVG Export Plug-In . SVG Version: 6.00 Build 0)  -->
<svg preserveAspectRatio="none" version="1.1" id="OPT_BEDROOM_4_WITH_BATH_3" xmlns="http://www.w3.org/2000/svg" xmlns:xlink="http://www.w3.org/1999/xlink"
	 x="0px" y="0px" viewBox="0 0 128.56 170.68" enable-background="new 0 0 128.56 170.68" xml:space="preserve">
<g>
	<path fill="none" stroke="#1A62AA" stroke-width="0.5" stroke-linecap="round" stroke-linejoin="round" d="M8.94,50.07
		c0,0.31,0,0.63,0,0.94"/>
	<path fill="none" stroke="#1A62AA" stroke-width="0.5" stroke-linecap="round" stroke-linejoin="round" d="M7.93,50.07
		c0,0.31,0,0.63,0,0.94"/>
	<path fill="none" stroke="#1A62AA" stroke-width="0.5" stroke-linecap="round" stroke-linejoin="round" d="M8.94,51.01
		c-0.9,0-1.81,0-2.71,0"/>
	<path fill="none" stroke="#1A62AA" stroke-width="0.5" stroke-linecap="round" stroke-linejoin="round" d="M8.94,50.07
		c-0.9,0-1.81,0-2.71,0"/>
	<path fill="none" stroke="#1A62AA" stroke-width="0.5" stroke-linecap="round" stroke-linejoin="round" d="M6.23,51.01
		c-0.17,0-0.32-0.09-0.41-0.23c-0.08-0.14-0.08-0.32,0-0.47s0.24-0.23,0.41-0.23"/>
	<polyline fill="none" stroke="#1A62AA" stroke-width="0.5" stroke-linecap="round" stroke-linejoin="round" points="6.66,50.07 
		6.66,44.84 15.12,44.84 15.12,56.28 6.66,56.28 6.66,51.01 	"/>
	<path fill="none" stroke="#1A62AA" stroke-width="0.5" stroke-linecap="round" stroke-linejoin="round" d="M10.86,50.21
		c0.15,0,0.27,0.12,0.27,0.27s-0.12,0.27-0.27,0.27c-0.15,0-0.27-0.12-0.27-0.27C10.59,50.33,10.72,50.21,10.86,50.21z"/>
</g>
<g>
	<path fill="none" stroke="#1A62AA" stroke-width="0.5" stroke-linecap="round" stroke-linejoin="round" d="M7.81,26.51
		c0-0.61-0.15-1.18-0.41-1.61c-0.27-0.43-0.63-0.67-1-0.67"/>
	<path fill="none" stroke="#1A62AA" stroke-width="0.5" stroke-linecap="round" stroke-linejoin="round" d="M6.4,36.43
		c0.37,0,0.73-0.24,1-0.67c0.27-0.43,0.41-1.01,0.41-1.61"/>
	<path fill="none" stroke="#1A62AA" stroke-width="0.5" stroke-linecap="round" stroke-linejoin="round" d="M18.99,28.04
		c-0.41-0.28-0.81-0.56-1.22-0.85"/>
	<path fill="none" stroke="#1A62AA" stroke-width="0.5" stroke-linecap="round" stroke-linejoin="round" d="M19.61,28.65
		c-0.2-0.2-0.41-0.41-0.61-0.61"/>
	<path fill="none" stroke="#1A62AA" stroke-width="0.5" stroke-linecap="round" stroke-linejoin="round" d="M19.91,29.19
		c-0.1-0.18-0.2-0.35-0.3-0.53"/>
	<path fill="none" stroke="#1A62AA" stroke-width="0.5" stroke-linecap="round" stroke-linejoin="round" d="M20.22,30.02
		c-0.1-0.28-0.2-0.56-0.31-0.84"/>
	<path fill="none" stroke="#1A62AA" stroke-width="0.5" stroke-linecap="round" stroke-linejoin="round" d="M20.22,30.63
		c0-0.2,0-0.41,0-0.61"/>
	<path fill="none" stroke="#1A62AA" stroke-width="0.5" stroke-linecap="round" stroke-linejoin="round" d="M19.91,31.48
		c0.1-0.28,0.2-0.56,0.31-0.84"/>
	<path fill="none" stroke="#1A62AA" stroke-width="0.5" stroke-linecap="round" stroke-linejoin="round" d="M19.61,32.01
		c0.1-0.18,0.2-0.35,0.3-0.53"/>
	<path fill="none" stroke="#1A62AA" stroke-width="0.5" stroke-linecap="round" stroke-linejoin="round" d="M18.99,32.61
		c0.2-0.2,0.41-0.41,0.61-0.61"/>
	<path fill="none" stroke="#1A62AA" stroke-width="0.5" stroke-linecap="round" stroke-linejoin="round" d="M17.77,33.46
		c0.41-0.28,0.82-0.57,1.22-0.85"/>
	<path fill="none" stroke="#1A62AA" stroke-width="0.5" stroke-linecap="round" stroke-linejoin="round" d="M9.83,27.15
		c-0.1,0.28-0.2,0.56-0.31,0.84"/>
	<path fill="none" stroke="#1A62AA" stroke-width="0.5" stroke-linecap="round" stroke-linejoin="round" d="M9.52,27.99
		c-0.1,0.58-0.2,1.15-0.31,1.73"/>
	<path fill="none" stroke="#1A62AA" stroke-width="0.5" stroke-linecap="round" stroke-linejoin="round" d="M9.22,29.72
		c0,0.41,0,0.82,0,1.23"/>
	<path fill="none" stroke="#1A62AA" stroke-width="0.5" stroke-linecap="round" stroke-linejoin="round" d="M9.22,30.94
		c0.1,0.58,0.21,1.15,0.31,1.73"/>
	<path fill="none" stroke="#1A62AA" stroke-width="0.5" stroke-linecap="round" stroke-linejoin="round" d="M9.52,32.67
		c0.1,0.28,0.2,0.56,0.31,0.84"/>
	<path fill="none" stroke="#1A62AA" stroke-width="0.5" stroke-linecap="round" stroke-linejoin="round" d="M17.77,27.2
		c-0.4-0.19-0.81-0.38-1.22-0.57"/>
	<path fill="none" stroke="#1A62AA" stroke-width="0.5" stroke-linecap="round" stroke-linejoin="round" d="M16.55,26.63
		c-0.41-0.15-0.81-0.29-1.22-0.45"/>
	<path fill="none" stroke="#1A62AA" stroke-width="0.5" stroke-linecap="round" stroke-linejoin="round" d="M15.33,26.18
		c-0.41-0.11-0.82-0.22-1.23-0.33"/>
	<path fill="none" stroke="#1A62AA" stroke-width="0.5" stroke-linecap="round" stroke-linejoin="round" d="M14.1,25.85
		c-0.41-0.04-0.81-0.07-1.22-0.11"/>
	<path fill="none" stroke="#1A62AA" stroke-width="0.5" stroke-linecap="round" stroke-linejoin="round" d="M12.89,25.75
		c-0.2,0.02-0.41,0.03-0.61,0.05"/>
	<path fill="none" stroke="#1A62AA" stroke-width="0.5" stroke-linecap="round" stroke-linejoin="round" d="M12.28,25.8
		c-0.21,0.04-0.41,0.07-0.61,0.11"/>
	<path fill="none" stroke="#1A62AA" stroke-width="0.5" stroke-linecap="round" stroke-linejoin="round" d="M11.66,25.91
		c-0.2,0.05-0.41,0.11-0.61,0.16"/>
	<path fill="none" stroke="#1A62AA" stroke-width="0.5" stroke-linecap="round" stroke-linejoin="round" d="M11.05,26.07
		c-0.2,0.12-0.41,0.23-0.61,0.35"/>
	<path fill="none" stroke="#1A62AA" stroke-width="0.5" stroke-linecap="round" stroke-linejoin="round" d="M10.44,26.42
		c-0.21,0.24-0.41,0.49-0.61,0.73"/>
	<path fill="none" stroke="#1A62AA" stroke-width="0.5" stroke-linecap="round" stroke-linejoin="round" d="M16.55,34.03
		c0.41-0.19,0.82-0.38,1.22-0.57"/>
	<path fill="none" stroke="#1A62AA" stroke-width="0.5" stroke-linecap="round" stroke-linejoin="round" d="M15.33,34.48
		c0.41-0.15,0.82-0.3,1.22-0.44"/>
	<path fill="none" stroke="#1A62AA" stroke-width="0.5" stroke-linecap="round" stroke-linejoin="round" d="M14.1,34.81
		c0.41-0.11,0.82-0.22,1.23-0.33"/>
	<path fill="none" stroke="#1A62AA" stroke-width="0.5" stroke-linecap="round" stroke-linejoin="round" d="M12.89,34.91
		c0.41-0.04,0.81-0.07,1.22-0.11"/>
	<path fill="none" stroke="#1A62AA" stroke-width="0.5" stroke-linecap="round" stroke-linejoin="round" d="M12.28,34.86
		c0.2,0.02,0.4,0.04,0.61,0.05"/>
	<path fill="none" stroke="#1A62AA" stroke-width="0.5" stroke-linecap="round" stroke-linejoin="round" d="M11.66,34.75
		c0.2,0.04,0.41,0.07,0.61,0.11"/>
	<path fill="none" stroke="#1A62AA" stroke-width="0.5" stroke-linecap="round" stroke-linejoin="round" d="M11.05,34.59
		c0.21,0.05,0.41,0.11,0.61,0.16"/>
	<path fill="none" stroke="#1A62AA" stroke-width="0.5" stroke-linecap="round" stroke-linejoin="round" d="M10.44,34.24
		c0.2,0.12,0.41,0.23,0.61,0.35"/>
	<path fill="none" stroke="#1A62AA" stroke-width="0.5" stroke-linecap="round" stroke-linejoin="round" d="M9.83,33.51
		c0.21,0.24,0.41,0.48,0.61,0.73"/>
	<path fill="none" stroke="#1A62AA" stroke-width="0.5" stroke-linecap="round" stroke-linejoin="round" d="M7.98,27.36
		c0.62-0.07,1.23-0.14,1.85-0.21"/>
	<path fill="none" stroke="#1A62AA" stroke-width="0.5" stroke-linecap="round" stroke-linejoin="round" d="M7.98,33.3
		c0.62,0.07,1.23,0.14,1.85,0.21"/>
	<path fill="none" stroke="#1A62AA" stroke-width="0.5" stroke-linecap="round" stroke-linejoin="round" d="M3.92,24.23
		c0.98,0,1.5,0,2.48,0"/>
	<path fill="none" stroke="#1A62AA" stroke-width="0.5" stroke-linecap="round" stroke-linejoin="round" d="M3.92,36.43
		c0.98,0,1.5,0,2.48,0"/>
	<path fill="none" stroke="#1A62AA" stroke-width="0.5" stroke-linecap="round" stroke-linejoin="round" d="M7.81,26.51
		c0,2.54,0,5.09,0,7.64"/>
</g>
<g>
	<line fill="none" stroke="#1A62AA" stroke-width="0.5" stroke-linejoin="round" x1="6.17" y1="11.74" x2="8.39" y2="12.98"/>
	<path fill="none" stroke="#1A62AA" stroke-width="0.5" stroke-linejoin="round" d="M33,18.32c2.2,0.08,4.27-1.19,5.39-3.31
		s1.12-4.75,0-6.87C37.27,6.01,35.2,4.74,33,4.82"/>
	<path fill="none" stroke="#1A62AA" stroke-width="0.5" stroke-linejoin="round" d="M13.4,12.01c0.3,0,0.55-0.23,0.55-0.52
		c0-0.29-0.25-0.52-0.55-0.52s-0.55,0.23-0.55,0.52C12.85,11.78,13.1,12.01,13.4,12.01z"/>
	<path fill="none" stroke="#1A62AA" stroke-width="0.5" stroke-linejoin="round" d="M11.76,4.82c-0.2,0-0.41,0.01-0.58,0.11
		C11,5.03,10.84,5.19,10.76,5.4c-0.08,0.2-0.1,0.4-0.1,0.65"/>
	<path fill="none" stroke="#1A62AA" stroke-width="0.5" stroke-linejoin="round" d="M10.66,17.09c-0.01,0.23,0.01,0.45,0.1,0.65
		c0.09,0.2,0.24,0.36,0.42,0.47c0.18,0.1,0.38,0.11,0.58,0.11"/>
	<path fill="none" stroke="#1A62AA" stroke-width="0.5" stroke-linejoin="round" d="M10.66,17.09c0-3.68,0-7.36,0-11.04"/>
	<path fill="none" stroke="#1A62AA" stroke-width="0.5" stroke-linejoin="round" d="M33,18.32c-7.08,0-14.16,0-21.25,0"/>
	<path fill="none" stroke="#1A62AA" stroke-width="0.5" stroke-linejoin="round" d="M8.46,10.21c0-2.02,0-4.7,0-6.72
		c10.84,0,21.68,0,32.52,0c0,5.4,0,10.81,0,16.21c-10.84,0-21.68,0-32.52,0c0-1.79,0-4.93,0-6.72"/>
	<line fill="none" stroke="#1A62AA" stroke-width="0.5" stroke-linejoin="round" x1="6.17" y1="11.66" x2="8.39" y2="10.21"/>
	<line fill="none" stroke="#1A62AA" stroke-width="0.5" stroke-linejoin="round" x1="42.45" y1="20.68" x2="6.35" y2="20.68"/>
	<line fill="none" stroke="#1A62AA" stroke-width="0.5" stroke-linejoin="round" x1="33" y1="4.82" x2="11.76" y2="4.82"/>
	<path fill="none" stroke="#1A62AA" stroke-width="0.5" stroke-linejoin="round" d="M8.38,12.98c0.77-0.9,0.84-1.73,0.01-2.76"/>
</g>
<g id="LINE_170_">
	
		<line fill="none" stroke="#1A62AA" stroke-width="0.5" stroke-linecap="round" stroke-linejoin="round" stroke-miterlimit="10" x1="17.08" y1="40.02" x2="3.81" y2="40.02"/>
</g>
<g id="LINE_169_">
	
		<line fill="none" stroke="#1A62AA" stroke-width="0.5" stroke-linecap="round" stroke-linejoin="round" stroke-miterlimit="10" x1="17.08" y1="61.73" x2="17.08" y2="40.02"/>
</g>
<text transform="matrix(1 0 0 1 9.0393 98.6985)" fill="#1B63AB" font-family="'Gotham-Light'" font-size="7px">W</text>
<text transform="matrix(1 0 0 1 32.4309 98.6985)" fill="#1B63AB" font-family="'Gotham-Light'" font-size="7px">D</text>
<g id="opt_2_">
	<g id="LINE_171_">
		
			<line fill="none" stroke="#1B63AB" stroke-width="0.35" stroke-linecap="round" stroke-linejoin="round" stroke-miterlimit="10" x1="44.82" y1="147.37" x2="30.34" y2="147.37"/>
	</g>
	<g id="INSERT_12_">
		<g id="LWPOLYLINE_23_">
			
				<polyline fill="none" stroke="#1B63AB" stroke-width="0.5" stroke-linecap="round" stroke-linejoin="round" stroke-miterlimit="10" stroke-dasharray="0.0891,0.0445" points="
				5.01,90.8 5.01,101.01 23.11,101.01 23.11,90.8 5.01,90.8 			"/>
		</g>
		<g id="LWPOLYLINE_21_">
			
				<polyline fill="none" stroke="#1B63AB" stroke-width="0.5" stroke-linecap="round" stroke-linejoin="round" stroke-miterlimit="10" stroke-dasharray="0.0891,0.0445" points="
				5.01,90.8 5.01,101.01 23.11,101.01 23.11,90.8 5.01,90.8 			"/>
		</g>
		<g id="LWPOLYLINE_19_">
			
				<polyline fill="none" stroke="#1B63AB" stroke-width="0.5" stroke-linecap="round" stroke-linejoin="round" stroke-miterlimit="10" stroke-dasharray="0.0891,0.0445" points="
				25.52,90.8 25.52,101.01 43.61,101.01 43.61,90.8 25.52,90.8 			"/>
		</g>
		<g id="LWPOLYLINE_13_">
			
				<polyline fill="none" stroke="#1B63AB" stroke-width="0.5" stroke-linecap="round" stroke-linejoin="round" stroke-miterlimit="10" stroke-dasharray="0.0891,0.0445" points="
				25.52,90.8 25.52,101.01 43.61,101.01 43.61,90.8 25.52,90.8 			"/>
		</g>
	</g>
	<g id="LINE_168_">
		
			<line fill="none" stroke="#1B63AB" stroke-width="0.5" stroke-linecap="round" stroke-linejoin="round" stroke-miterlimit="10" x1="27.93" y1="137.72" x2="3.81" y2="137.72"/>
	</g>
	<g id="LINE_167_">
		
			<line fill="none" stroke="#1B63AB" stroke-width="0.5" stroke-linecap="round" stroke-linejoin="round" stroke-miterlimit="10" x1="119.6" y1="94.3" x2="76.17" y2="94.3"/>
	</g>
	<g id="LINE_166_">
		
			<line fill="none" stroke="#1B63AB" stroke-width="0.5" stroke-linecap="round" stroke-linejoin="round" stroke-miterlimit="10" x1="3.81" y1="90.75" x2="44.82" y2="90.75"/>
	</g>
	<g id="LINE_165_">
		
			<line fill="none" stroke="#1B63AB" stroke-width="0.5" stroke-linecap="round" stroke-linejoin="round" stroke-miterlimit="10" x1="13.45" y1="79.61" x2="13.45" y2="64"/>
	</g>
	<g>
		<polygon fill="#1B63AB" stroke="#1B63AB" stroke-width="0.35" stroke-miterlimit="10" points="38.78,2.6 42.41,2.6 42.41,20.69 
			44.82,20.69 44.82,60.64 47.23,60.64 47.23,2.6 61.1,2.6 61.1,0.19 38.78,0.19 		"/>
		<polygon fill="#1B63AB" stroke="#1B63AB" stroke-width="0.35" stroke-miterlimit="10" points="47.23,77.34 44.82,77.34 
			44.82,79.75 19.49,79.75 19.49,77.41 17.07,77.41 17.07,79.75 3.81,79.75 3.81,64.14 17.07,64.14 17.07,66.55 19.49,66.55 
			19.49,61.73 3.81,61.73 3.81,20.69 6.22,20.69 6.22,2.6 9.83,2.6 9.83,0.19 0.19,0.19 0.19,77.41 1.4,77.41 1.4,128.07 
			1.4,149.78 5.01,149.78 5.01,147.37 7.43,147.37 7.43,144.96 3.81,144.96 3.81,132.1 27.93,132.1 27.93,144.96 25.52,144.96 
			25.52,147.37 30.34,147.37 30.34,144.06 44.82,144.06 44.82,147.37 49.64,147.37 49.64,128.07 47.23,128.07 47.23,125.66 
			44.82,125.66 44.82,127.57 44.82,129.3 44.82,130.48 44.82,132.58 44.82,141.65 30.34,141.65 30.34,132.58 30.34,130.48 
			30.34,129.3 3.81,129.3 3.81,83.37 44.82,83.37 44.82,106.36 47.23,106.36 47.23,84.64 49.64,84.64 49.64,82.23 47.23,82.24 		"/>
		
			<rect x="82.81" y="0.19" fill="#1B63AB" stroke="#1B63AB" stroke-width="0.35" stroke-miterlimit="10" width="3.62" height="2.42"/>
		<polygon fill="#1B63AB" stroke="#1B63AB" stroke-width="0.35" stroke-miterlimit="10" points="108.14,0.19 108.14,2.6 119.6,2.6 
			119.6,82.23 106.33,82.23 106.33,84.64 119.6,84.64 119.6,101.53 76.17,101.53 76.17,84.64 89.44,84.64 89.44,82.23 67.73,82.23 
			67.73,84.64 73.76,84.64 73.76,106.36 76.17,106.36 76.17,103.95 122.01,103.95 122.01,2.6 122.08,2.6 122.08,0.19 		"/>
		<polygon fill="#1B63AB" stroke="#1B63AB" stroke-width="0.35" stroke-miterlimit="10" points="76.17,125.66 73.76,125.66 
			73.76,128.07 71.35,128.07 71.35,147.06 76.51,147.06 76.51,144.65 76.17,144.65 		"/>
	</g>
</g>
<g>
	<rect x="62.43" y="0.19" fill="none" stroke="#1B63AB" stroke-width="0.35" stroke-miterlimit="10" width="19.26" height="2.4"/>
	<line fill="none" stroke="#1B63AB" stroke-width="0.35" stroke-miterlimit="10" x1="81.62" y1="1.39" x2="62.43" y2="1.39"/>
	<rect x="81.69" y="0.19" fill="none" stroke="#1B63AB" stroke-width="0.35" stroke-miterlimit="10" width="1.21" height="2.41"/>
	<rect x="61.22" y="0.19" fill="none" stroke="#1B63AB" stroke-width="0.35" stroke-miterlimit="10" width="1.21" height="2.41"/>
</g>
<g>
	
		<rect x="23.19" y="-11.66" transform="matrix(1.041926e-03 -1 1 1.041926e-03 22.9777 25.7697)" fill="none" stroke="#1B63AB" stroke-width="0.35" stroke-linecap="round" stroke-linejoin="round" stroke-miterlimit="10" stroke-dasharray="2,1" width="2.4" height="26.08"/>
	
		<line fill="none" stroke="#1B63AB" stroke-width="0.35" stroke-linecap="round" stroke-linejoin="round" stroke-miterlimit="10" stroke-dasharray="2,1" x1="37.33" y1="1.39" x2="11.34" y2="1.39"/>
	
		<rect x="37.36" y="0.19" fill="none" stroke="#1B63AB" stroke-width="0.35" stroke-linecap="round" stroke-linejoin="round" stroke-miterlimit="10" stroke-dasharray="2,1" width="1.21" height="2.41"/>
	
		<rect x="10.14" y="0.19" fill="none" stroke="#1B63AB" stroke-width="0.35" stroke-linecap="round" stroke-linejoin="round" stroke-miterlimit="10" stroke-dasharray="2,1" width="1.21" height="2.41"/>
</g>
<g>
	<rect x="87.65" y="0.19" fill="none" stroke="#1B63AB" stroke-width="0.35" stroke-miterlimit="10" width="19.26" height="2.4"/>
	<line fill="none" stroke="#1B63AB" stroke-width="0.35" stroke-miterlimit="10" x1="106.84" y1="1.39" x2="87.65" y2="1.39"/>
	<rect x="106.91" y="0.19" fill="none" stroke="#1B63AB" stroke-width="0.35" stroke-miterlimit="10" width="1.21" height="2.41"/>
	<rect x="86.44" y="0.19" fill="none" stroke="#1B63AB" stroke-width="0.35" stroke-miterlimit="10" width="1.21" height="2.41"/>
</g>
<g id="LWPOLYLINE_12_">
	<g id="XMLID_4_">
		<g>
			<rect x="105.54" y="65.35" fill="#1B63AB" width="0.79" height="16.89"/>
			<rect x="54.47" y="106.35" fill="#1B63AB" width="19.3" height="0.91"/>
			<rect x="49.64" y="64.14" fill="#1B63AB" width="0.85" height="18.1"/>
			<rect x="25.52" y="124.75" fill="#1B63AB" width="19.3" height="0.91"/>
			<rect x="27.93" y="76.55" fill="#1B63AB" width="16.89" height="0.78"/>
			
				<rect x="17.72" y="73.14" transform="matrix(0.7071 -0.7071 0.7071 0.7071 -45.1198 37.8594)" fill="#1B63AB" width="10.85" height="0.51"/>
			<polygon fill="#1B63AB" points="20.82,159.55 20.22,160.16 7.43,147.37 8.03,146.76 			"/>
		</g>
		<g>
			
				<rect x="54.47" y="106.35" fill="none" stroke="#1B63AB" stroke-width="0.35" stroke-linecap="round" stroke-linejoin="round" stroke-miterlimit="10" width="19.3" height="0.91"/>
			
				<path fill="none" stroke="#1B63AB" stroke-width="0.35" stroke-linecap="round" stroke-linejoin="round" stroke-miterlimit="10" d="
				M73.77,125.66c-10.31,0-18.81-8.11-19.3-18.4"/>
			
				<polygon fill="none" stroke="#1B63AB" stroke-width="0.35" stroke-linecap="round" stroke-linejoin="round" stroke-miterlimit="10" points="
				20.82,159.55 8.03,146.76 7.43,147.37 20.22,160.16 			"/>
			
				<path fill="none" stroke="#1B63AB" stroke-width="0.35" stroke-linecap="round" stroke-linejoin="round" stroke-miterlimit="10" d="
				M25.53,147.37c0,4.51-1.68,8.85-4.71,12.18"/>
			
				<line fill="none" stroke="#1B63AB" stroke-width="0.35" stroke-linecap="round" stroke-linejoin="round" stroke-miterlimit="10" x1="49.64" y1="82.24" x2="49.64" y2="84.64"/>
			
				<line fill="none" stroke="#1B63AB" stroke-width="0.35" stroke-linecap="round" stroke-linejoin="round" stroke-miterlimit="10" x1="67.74" y1="82.24" x2="67.74" y2="84.64"/>
			
				<path fill="none" stroke="#1B63AB" stroke-width="0.35" stroke-linecap="round" stroke-linejoin="round" stroke-miterlimit="10" d="
				M67.74,82.24c0-9.68-7.6-17.64-17.25-18.1v18.1h-0.85v-18.1h0.85"/>
			
				<line fill="none" stroke="#1B63AB" stroke-width="0.35" stroke-linecap="round" stroke-linejoin="round" stroke-miterlimit="10" x1="106.33" y1="82.24" x2="106.33" y2="84.64"/>
			
				<line fill="none" stroke="#1B63AB" stroke-width="0.35" stroke-linecap="round" stroke-linejoin="round" stroke-miterlimit="10" x1="89.45" y1="82.24" x2="89.45" y2="84.64"/>
			
				<path fill="none" stroke="#1B63AB" stroke-width="0.35" stroke-linecap="round" stroke-linejoin="round" stroke-miterlimit="10" d="
				M89.44,82.24c0-9.03,7.09-16.46,16.1-16.89v16.89h0.79V65.35h-0.79"/>
			
				<rect x="25.52" y="124.75" fill="none" stroke="#1B63AB" stroke-width="0.35" stroke-linecap="round" stroke-linejoin="round" stroke-miterlimit="10" width="19.3" height="0.91"/>
			
				<path fill="none" stroke="#1B63AB" stroke-width="0.35" stroke-linecap="round" stroke-linejoin="round" stroke-miterlimit="10" d="
				M44.82,106.35c-10.31,0-18.81,8.1-19.3,18.4"/>
			
				<rect x="27.93" y="76.55" fill="none" stroke="#1B63AB" stroke-width="0.35" stroke-linecap="round" stroke-linejoin="round" stroke-miterlimit="10" width="16.89" height="0.78"/>
			
				<path fill="none" stroke="#1B63AB" stroke-width="0.35" stroke-linecap="round" stroke-linejoin="round" stroke-miterlimit="10" d="
				M44.82,60.64c-9.02-0.01-16.46,6.89-16.89,15.91"/>
			
				<rect x="17.72" y="73.14" transform="matrix(0.7071 -0.7071 0.7071 0.7071 -45.1198 37.8594)" fill="none" stroke="#1B63AB" stroke-width="0.35" stroke-linecap="round" stroke-linejoin="round" stroke-miterlimit="9.9999" width="10.85" height="0.51"/>
			
				<path fill="none" stroke="#1B63AB" stroke-width="0.35" stroke-linecap="round" stroke-linejoin="round" stroke-miterlimit="10" d="
				M19.49,66.55c2.7,0,5.32,1,7.31,2.83"/>
		</g>
	</g>
</g>
<text transform="matrix(1 0 0 1 57.3098 40.0193)" fill="#1A62AA" font-family="'Gotham-Light'" font-size="8px">BEDROOM 4</text>
<text transform="matrix(1 0 0 1 16.3644 40.0193)" fill="#1A62AA" font-family="'Gotham-Light'" font-size="7px">BATH 3</text>
<text transform="matrix(1 0 0 1 5.0384 109.3367)" fill="#1B63AB" font-family="'Gotham-Light'" font-size="6px">LAUNDRY</text>
<line fill="none" stroke="#1B63AB" stroke-width="0.35" stroke-miterlimit="10" x1="30.16" y1="133.22" x2="44.82" y2="133.22"/>
<line fill="none" stroke="#1B63AB" stroke-width="0.35" stroke-miterlimit="10" x1="30.34" y1="129.3" x2="44.82" y2="129.3"/>
</svg>
