<?xml version="1.0" encoding="utf-8"?>
<!-- Generator: Adobe Illustrator 24.0.1, SVG Export Plug-In . SVG Version: 6.00 Build 0)  -->
<svg preserveAspectRatio="none" version="1.1" xmlns="http://www.w3.org/2000/svg" xmlns:xlink="http://www.w3.org/1999/xlink" x="0px" y="0px"
	 viewBox="0 0 67.4 22.5" enable-background="new 0 0 67.4 22.5" xml:space="preserve">
<g id="OPT._kitchen_Components">
	<path fill="none" stroke="#1A62AA" stroke-width="0.5" stroke-linecap="round" stroke-linejoin="round" stroke-dasharray="2,1" d="
		M0.6,5.2c4.6,0,9.1,0,13.8,0"/>
	<g>
		
			<path fill="none" stroke="#1A62AA" stroke-width="0.5" stroke-linecap="round" stroke-linejoin="round" stroke-dasharray="2,1" d="
			M50.6,0.4c6.4,0,10.1,0,16.5,0v21.7c-6.4,0-10.1,0-16.5,0"/>
		
			<path fill="none" stroke="#1A62AA" stroke-width="0.5" stroke-linecap="round" stroke-linejoin="round" stroke-dasharray="2,1" d="
			M51.7,0.4c0,7.2,0,14.5,0,21.7"/>
		
			<path fill="none" stroke="#1A62AA" stroke-width="0.5" stroke-linecap="round" stroke-linejoin="round" stroke-dasharray="2,1" d="
			M50.6,8.4c0,4.6,0,9.1,0,13.7"/>
		
			<path fill="none" stroke="#1A62AA" stroke-width="0.5" stroke-linecap="round" stroke-linejoin="round" stroke-dasharray="2,1" d="
			M50.6,0.4c0,2.6,0,5.1,0,7.7"/>
		
			<path fill="none" stroke="#1A62AA" stroke-width="0.5" stroke-linecap="round" stroke-linejoin="round" stroke-dasharray="2,1" d="
			M50.6,7.7c-0.3,0-0.6,0-0.9,0"/>
		
			<path fill="none" stroke="#1A62AA" stroke-width="0.5" stroke-linecap="round" stroke-linejoin="round" stroke-dasharray="2,1" d="
			M50.6,7.1c-0.3,0-0.6,0-0.9,0"/>
		
			<path fill="none" stroke="#1A62AA" stroke-width="0.5" stroke-linecap="round" stroke-linejoin="round" stroke-dasharray="2,1" d="
			M50.6,9.5c-0.3,0-0.6,0-0.9,0"/>
		
			<path fill="none" stroke="#1A62AA" stroke-width="0.5" stroke-linecap="round" stroke-linejoin="round" stroke-dasharray="2,1" d="
			M50.6,8.9c-0.3,0-0.6,0-0.9,0"/>
		
			<path fill="none" stroke="#1A62AA" stroke-width="0.5" stroke-linecap="round" stroke-linejoin="round" stroke-dasharray="2,1" d="
			M51.7,8.1c-0.4,0-0.8,0-1.2,0"/>
		
			<path fill="none" stroke="#1A62AA" stroke-width="0.5" stroke-linecap="round" stroke-linejoin="round" stroke-dasharray="2,1" d="
			M51.7,8.4c-0.4,0-0.8,0-1.2,0"/>
	</g>
	<text transform="matrix(1 0 0 1 56.266 13.8387)" fill="#1A62AA" font-family="'Gotham-Light'" font-size="7px">R</text>
	<text transform="matrix(1 0 0 1 0.8353 14.6264)" fill="#1A62AA" font-family="'Gotham-Light'" font-size="7px">DW</text>
	<path fill="none" stroke="#1A62AA" stroke-width="0.5" stroke-linecap="round" stroke-linejoin="round" stroke-dasharray="2,1" d="
		M14.3,19.6c0-4.8,0-9.6,0-14.4"/>
	<path fill="none" stroke="#1A62AA" stroke-width="0.5" stroke-linecap="round" stroke-linejoin="round" stroke-dasharray="2,1" d="
		M0.6,5.2c0,4.8,0,9.6,0,14.4"/>
</g>

</svg>
