<svg preserveAspectRatio="none" xmlns="http://www.w3.org/2000/svg" viewBox="0 0 43.99 26.23"><defs><style>.cls-1{fill:#fff;}.cls-2{fill:none;stroke:#e42d2c;stroke-linejoin:round;stroke-width:0.35px;}</style></defs><title>Varlık 2</title><g id="katman_2" data-name="katman 2"><g id="katman_1-2" data-name="katman 1"><rect class="cls-1" x="0.1" width="43.89" height="26.06"/><g id="Layer_15" data-name="Layer 15"><line class="cls-2" x1="0.1" y1="12.05" x2="2.7" y2="13.5"/><path class="cls-2" d="M31.53,20a7,7,0,0,0,6.32-3.88,8.74,8.74,0,0,0,0-8,7,7,0,0,0-6.32-3.88"/><path class="cls-2" d="M8.57,12.58A.62.62,0,1,0,7.93,12,.63.63,0,0,0,8.57,12.58Z"/><path class="cls-2" d="M6.65,4.15A1.34,1.34,0,0,0,6,4.28a1.17,1.17,0,0,0-.49.54,2,2,0,0,0-.11.76"/><path class="cls-2" d="M5.36,18.52a1.74,1.74,0,0,0,.11.76,1.31,1.31,0,0,0,.49.55,1.34,1.34,0,0,0,.68.13"/><path class="cls-2" d="M5.36,18.52V5.59"/><path class="cls-2" d="M31.53,20H6.64"/><path class="cls-2" d="M40.88,23.24H2.66V13.32"/><path class="cls-2" d="M2.66,10.49v-9H40.88"/><line class="cls-2" x1="0.1" y1="11.96" x2="2.7" y2="10.26"/><line class="cls-2" x1="43.99" y1="26.06" x2="0.11" y2="26.06"/><line class="cls-2" x1="31.53" y1="4.15" x2="6.65" y2="4.15"/><path class="cls-2" d="M2.69,13.5a2.2,2.2,0,0,0,0-3.24"/></g></g></g></svg>